Italic_opsz10.ufo
<glyph name="comma" format="2">
  <advance width="277"/>
  <unicode hex="002C"/>
  <outline>
    <contour>
      <point x="84.87910170524027" y="53.0" type="curve" smooth="yes"/>
      <point x="84.87910170524027" y="26.0"/>
      <point x="104.87910170524027" y="0.0"/>
      <point x="137.87910170524026" y="0.0" type="curve" smooth="yes"/>
      <point x="149.87910170524026" y="0.0"/>
      <point x="162.87910170524026" y="4.0"/>
      <point x="172.87910170524026" y="13.0" type="curve"/>
      <point x="175.87910170524026" y="15.0"/>
      <point x="176.87910170524026" y="16.0"/>
      <point x="177.87910170524026" y="16.0" type="curve" smooth="yes"/>
      <point x="178.87910170524026" y="16.0"/>
      <point x="179.87910170524026" y="15.0"/>
      <point x="179.87910170524026" y="1.0" type="curve" smooth="yes"/>
      <point x="179.87910170524026" y="-73.0"/>
      <point x="144.87910170524026" y="-133.0"/>
      <point x="111.87910170524027" y="-166.0" type="curve" smooth="yes"/>
      <point x="100.87910170524027" y="-177.0"/>
      <point x="100.87910170524027" y="-179.0"/>
      <point x="100.87910170524027" y="-182.0" type="curve" smooth="yes"/>
      <point x="100.87910170524027" y="-189.0"/>
      <point x="105.87910170524027" y="-193.0"/>
      <point x="110.87910170524027" y="-193.0" type="curve" smooth="yes"/>
      <point x="121.87910170524027" y="-193.0"/>
      <point x="201.87910170524026" y="-116.0"/>
      <point x="201.87910170524026" y="1.0" type="curve" smooth="yes"/>
      <point x="201.87910170524026" y="67.0"/>
      <point x="176.87910170524026" y="106.0"/>
      <point x="137.87910170524026" y="106.0" type="curve" smooth="yes"/>
      <point x="104.87910170524027" y="106.0"/>
      <point x="84.87910170524027" y="81.0"/>
    </contour>
  </outline>
</glyph>
<glyph name="period" format="2">
	<unicode hex="002E"/>
	<advance width="554"/>
	<outline>
		<contour>
			<point x="357.7582034105" y="106" type="curve" smooth="yes"/>
			<point x="357.7582034105" y="164"/>
			<point x="309.7582034105" y="212"/>
			<point x="251.7582034105" y="212" type="curve" smooth="yes"/>
			<point x="193.7582034105" y="212"/>
			<point x="145.7582034105" y="164"/>
			<point x="145.7582034105" y="106" type="curve" smooth="yes"/>
			<point x="145.7582034105" y="48"/>
			<point x="193.7582034105" y="0"/>
			<point x="251.7582034105" y="0" type="curve" smooth="yes"/>
			<point x="309.7582034105" y="0"/>
			<point x="357.7582034105" y="48"/>
		</contour>
	</outline>
</glyph>
<glyph name="slash" format="2">
	<unicode hex="002F"/>
	<advance width="1000"/>
	<outline>
		<contour>
			<point x="851.7582034105" y="1424" type="line" smooth="yes"/>
			<point x="861.7582034105" y="1450"/>
			<point x="861.7582034105" y="1458"/>
			<point x="861.7582034105" y="1460" type="curve" smooth="yes"/>
			<point x="861.7582034105" y="1482"/>
			<point x="843.7582034105" y="1500"/>
			<point x="821.7582034105" y="1500" type="curve" smooth="yes"/>
			<point x="807.7582034105" y="1500"/>
			<point x="793.7582034105" y="1494"/>
			<point x="787.7582034105" y="1482" type="curve"/>
			<point x="93.7582034105" y="-424" type="line" smooth="yes"/>
			<point x="83.7582034105" y="-450"/>
			<point x="83.7582034105" y="-458"/>
			<point x="83.7582034105" y="-460" type="curve" smooth="yes"/>
			<point x="83.7582034105" y="-482"/>
			<point x="101.7582034105" y="-500"/>
			<point x="123.7582034105" y="-500" type="curve" smooth="yes"/>
			<point x="149.7582034105" y="-500"/>
			<point x="155.7582034105" y="-486"/>
			<point x="167.7582034105" y="-452" type="curve" smooth="yes"/>
		</contour>
	</outline>
</glyph>
<glyph name="zero" format="2">
	<unicode hex="0030"/>
	<advance width="1000"/>
	<outline>
		<contour>
			<point x="891.7582034105" y="426" type="curve" smooth="yes"/>
			<point x="891.7582034105" y="672"/>
			<point x="805.7582034105" y="906"/>
			<point x="473.7582034105" y="906" type="curve" smooth="yes"/>
			<point x="145.7582034105" y="906"/>
			<point x="53.7582034105" y="682"/>
			<point x="53.7582034105" y="426" type="curve" smooth="yes"/>
			<point x="53.7582034105" y="178"/>
			<point x="145.7582034105" y="-44"/>
			<point x="471.7582034105" y="-44" type="curve" smooth="yes"/>
			<point x="795.7582034105" y="-44"/>
			<point x="891.7582034105" y="170"/>
		</contour>
		<contour>
			<point x="473.7582034105" y="0" type="curve" smooth="yes"/>
			<point x="379.7582034105" y="0"/>
			<point x="289.7582034105" y="38"/>
			<point x="249.7582034105" y="126" type="curve" smooth="yes"/>
			<point x="215.7582034105" y="204"/>
			<point x="215.7582034105" y="350"/>
			<point x="215.7582034105" y="444" type="curve" smooth="yes"/>
			<point x="215.7582034105" y="542"/>
			<point x="215.7582034105" y="666"/>
			<point x="247.7582034105" y="740" type="curve" smooth="yes"/>
			<point x="297.7582034105" y="850"/>
			<point x="419.7582034105" y="862"/>
			<point x="471.7582034105" y="862" type="curve" smooth="yes"/>
			<point x="593.7582034105" y="862"/>
			<point x="657.7582034105" y="817"/>
			<point x="691.7582034105" y="746" type="curve" smooth="yes"/>
			<point x="729.7582034105" y="668"/>
			<point x="729.7582034105" y="558"/>
			<point x="729.7582034105" y="444" type="curve" smooth="yes"/>
			<point x="729.7582034105" y="338"/>
			<point x="729.7582034105" y="228"/>
			<point x="699.7582034105" y="142" type="curve" smooth="yes"/>
			<point x="665.7582034105" y="36"/>
			<point x="559.7582034105" y="0"/>
		</contour>
	</outline>
</glyph>
<glyph name="one" format="2">
  <advance width="500"/>
  <unicode hex="0031"/>
  <outline>
    <contour>
      <point x="221.87910170524026" y="393.0" type="curve"/>
      <point x="221.87910170524026" y="79.0" type="line" smooth="yes"/>
      <point x="221.87910170524026" y="48.5652"/>
      <point x="221.87910170524026" y="36.6559410208"/>
      <point x="181.35445756534028" y="32.700576765" type="curve" smooth="yes"/>
      <point x="168.61817127044029" y="31.4574652552"/>
      <point x="151.87906170524028" y="31.0"/>
      <point x="129.87910170524026" y="31.0" type="curve" smooth="yes"/>
      <point x="101.87910170524027" y="31.0"/>
      <point x="96.87910170524027" y="31.0"/>
      <point x="96.87910170524027" y="15.0" type="curve" smooth="yes"/>
      <point x="96.87910170524027" y="0.0"/>
      <point x="106.87910170524027" y="0.0"/>
      <point x="113.87910170524027" y="0.0" type="curve" smooth="yes"/>
      <point x="145.87910170524026" y="0.0"/>
      <point x="224.87910170524026" y="3.0"/>
      <point x="256.87910170524026" y="3.0" type="curve" smooth="yes"/>
      <point x="281.87910170524026" y="3.0"/>
      <point x="306.87910170524026" y="2.0"/>
      <point x="330.87910170524026" y="2.0" type="curve" smooth="yes"/>
      <point x="353.87910170524026" y="2.0"/>
      <point x="377.87910170524026" y="0.0"/>
      <point x="400.87910170524026" y="0.0" type="curve" smooth="yes"/>
      <point x="407.87910170524026" y="0.0"/>
      <point x="417.87910170524026" y="0.0"/>
      <point x="417.87910170524026" y="15.0" type="curve" smooth="yes"/>
      <point x="417.87910170524026" y="31.0"/>
      <point x="412.87910170524026" y="31.0"/>
      <point x="383.87910170524026" y="31.0" type="curve" smooth="yes"/>
      <point x="362.8790317052403" y="31.0"/>
      <point x="346.7251478591403" y="31.4260383432"/>
      <point x="334.29909578824027" y="32.573065635" type="curve" smooth="yes"/>
      <point x="292.87910170524026" y="36.3964733728"/>
      <point x="292.87910170524026" y="48.2308"/>
      <point x="292.87910170524026" y="79.0" type="curve" smooth="yes"/>
      <point x="292.87910170524026" y="425.0" type="line" smooth="yes"/>
      <point x="292.87910170524026" y="444.0"/>
      <point x="292.87910170524026" y="453.0"/>
      <point x="280.87910170524026" y="453.0" type="curve" smooth="yes"/>
      <point x="277.87910170524026" y="453.0"/>
      <point x="274.87910170524026" y="451.0"/>
      <point x="267.87910170524026" y="447.0" type="curve"/>
      <point x="253.87910170524026" y="438.0"/>
      <point x="212.87910170524026" y="411.0"/>
      <point x="119.87910170524027" y="410.0" type="curve"/>
      <point x="96.87910170524027" y="410.0"/>
      <point x="91.87910170524027" y="410.0"/>
      <point x="91.87910170524027" y="394.0" type="curve" smooth="yes"/>
      <point x="91.87910170524027" y="379.0"/>
      <point x="97.87910170524027" y="379.0"/>
      <point x="117.87910170524027" y="379.0" type="curve" smooth="yes"/>
      <point x="123.87910170524027" y="379.0"/>
      <point x="176.87910170524026" y="379.0"/>
    </contour>
  </outline>
</glyph>
<glyph name="two" format="2">
	<unicode hex="0032"/>
	<advance width="500"/>
	<outline>
		<contour>
			<point x="70.8791017052" y="0" type="curve" smooth="yes"/>
			<point x="391.8791017052" y="0" type="line" smooth="yes"/>
			<point x="415.8791017052" y="0"/>
			<point x="416.8791017052" y="1"/>
			<point x="419.8791017052" y="10" type="curve"/>
			<point x="422.8791017052" y="21"/>
			<point x="447.8791017052" y="118"/>
			<point x="447.8791017052" y="123" type="curve" smooth="yes"/>
			<point x="447.8791017052" y="128"/>
			<point x="443.8791017052" y="134"/>
			<point x="434.8791017052" y="134" type="curve" smooth="yes"/>
			<point x="425.8791017052" y="134"/>
			<point x="423.8791017052" y="127"/>
			<point x="421.8791017052" y="118" type="curve"/>
			<point x="419.8791017052" y="111"/>
			<point x="409.8791017052" y="74"/>
			<point x="400.8791017052" y="72" type="curve" smooth="yes"/>
			<point x="388.8791017052" y="69"/>
			<point x="351.8791017052" y="69"/>
			<point x="326.8791017052" y="69" type="curve" smooth="yes"/>
			<point x="143.8791017052" y="69" type="line"/>
			<point x="162.8791017052" y="80"/>
			<point x="209.8466117052" y="110.05632"/>
			<point x="268.8791017052" y="144" type="curve"/>
			<point x="383.8791017052" y="202"/>
			<point x="447.8791017052" y="234"/>
			<point x="447.8791017052" y="313" type="curve" smooth="yes"/>
			<point x="447.8791017052" y="407"/>
			<point x="351.8791017052" y="453"/>
			<point x="236.8791017052" y="453" type="curve" smooth="yes"/>
			<point x="122.8791017052" y="453"/>
			<point x="53.8791017052" y="394"/>
			<point x="53.8791017052" y="328" type="curve" smooth="yes"/>
			<point x="53.8791017052" y="293"/>
			<point x="81.8791017052" y="287"/>
			<point x="91.8791017052" y="287" type="curve" smooth="yes"/>
			<point x="110.8791017052" y="287"/>
			<point x="129.8791017052" y="302"/>
			<point x="129.8791017052" y="325" type="curve" smooth="yes"/>
			<point x="129.8791017052" y="356"/>
			<point x="101.8791017052" y="363"/>
			<point x="94.8791017052" y="364" type="curve"/>
			<point x="121.8791017052" y="409"/>
			<point x="179.8791017052" y="422"/>
			<point x="218.8791017052" y="422" type="curve" smooth="yes"/>
			<point x="298.8791017052" y="422"/>
			<point x="360.8791017052" y="380"/>
			<point x="360.8791017052" y="312" type="curve" smooth="yes"/>
			<point x="360.8791017052" y="245"/>
			<point x="297.8791017052" y="203"/>
			<point x="241.8791017052" y="164" type="curve" smooth="yes"/>
			<point x="45.8791017052" y="28" type="line"/>
			<point x="42.8791017052" y="24"/>
			<point x="42.8791017052" y="21"/>
			<point x="42.8791017052" y="16" type="curve" smooth="yes"/>
			<point x="42.8791017052" y="0"/>
			<point x="48.8791017052" y="0"/>
		</contour>
	</outline>
</glyph>
<glyph name="three" format="2">
	<unicode hex="0033"/>
	<advance width="1000"/>
	<outline>
		<contour>
			<point x="401" y="-432" type="curve" smooth="yes"/>
			<point x="651" y="-432"/>
			<point x="825" y="-250"/>
			<point x="825" y="-58" type="curve" smooth="yes"/>
			<point x="825" y="120"/>
			<point x="675" y="262"/>
			<point x="493" y="294" type="curve"/>
			<point x="639" y="340"/>
			<point x="771" y="470"/>
			<point x="771" y="636" type="curve" smooth="yes"/>
			<point x="771" y="792"/>
			<point x="601" y="906"/>
			<point x="405" y="906" type="curve" smooth="yes"/>
			<point x="199" y="906"/>
			<point x="49" y="788"/>
			<point x="49" y="644" type="curve" smooth="yes"/>
			<point x="49" y="562"/>
			<point x="113" y="542"/>
			<point x="147" y="542" type="curve" smooth="yes"/>
			<point x="191" y="542"/>
			<point x="243" y="572"/>
			<point x="243" y="640" type="curve" smooth="yes"/>
			<point x="243" y="736"/>
			<point x="153" y="736"/>
			<point x="129" y="736" type="curve"/>
			<point x="209" y="856"/>
			<point x="383" y="856"/>
			<point x="397" y="856" type="curve" smooth="yes"/>
			<point x="481" y="856"/>
			<point x="595" y="816"/>
			<point x="595" y="638" type="curve" smooth="yes"/>
			<point x="595" y="546"/>
			<point x="569" y="462"/>
			<point x="531" y="408" type="curve" smooth="yes"/>
			<point x="469" y="322"/>
			<point x="403" y="318"/>
			<point x="345" y="314" type="curve" smooth="yes"/>
			<point x="293" y="310"/>
			<point x="289" y="310"/>
			<point x="275" y="310" type="curve"/>
			<point x="261" y="308"/>
			<point x="243" y="306"/>
			<point x="243" y="286" type="curve" smooth="yes"/>
			<point x="243" y="264"/>
			<point x="255" y="264"/>
			<point x="295" y="264" type="curve" smooth="yes"/>
			<point x="381" y="264" type="line" smooth="yes"/>
			<point x="559" y="264"/>
			<point x="631" y="124"/>
			<point x="631" y="-56" type="curve" smooth="yes"/>
			<point x="631" y="-320"/>
			<point x="485" y="-376"/>
			<point x="397" y="-376" type="curve" smooth="yes"/>
			<point x="379" y="-376"/>
			<point x="177" y="-376"/>
			<point x="85" y="-224" type="curve"/>
			<point x="107" y="-224"/>
			<point x="207" y="-224"/>
			<point x="207" y="-118" type="curve" smooth="yes"/>
			<point x="207" y="-54"/>
			<point x="157" y="-14"/>
			<point x="101" y="-14" type="curve" smooth="yes"/>
			<point x="65" y="-14"/>
			<point x="-5" y="-36"/>
			<point x="-5" y="-124" type="curve" smooth="yes"/>
			<point x="-5" y="-300"/>
			<point x="179" y="-432"/>
		</contour>
	</outline>
</glyph>
<glyph name="four" format="2">
	<unicode hex="0034"/>
	<advance width="1000"/>
	<outline>
		<contour>
			<point x="403.7582034105" y="-388" type="curve" smooth="yes"/>
			<point x="443.7582034105" y="-388"/>
			<point x="483.7582034105" y="-386"/>
			<point x="525.7582034105" y="-384" type="curve" smooth="yes"/>
			<point x="563.7582034105" y="-384"/>
			<point x="601.7582034105" y="-382"/>
			<point x="639.7582034105" y="-382" type="curve" smooth="yes"/>
			<point x="669.7582034105" y="-382"/>
			<point x="725.7582034105" y="-384"/>
			<point x="777.7582034105" y="-386" type="curve" smooth="yes"/>
			<point x="815.7582034105" y="-386"/>
			<point x="853.7582034105" y="-388"/>
			<point x="875.7582034105" y="-388" type="curve" smooth="yes"/>
			<point x="899.7582034105" y="-388"/>
			<point x="907.7582034105" y="-378"/>
			<point x="907.7582034105" y="-358" type="curve" smooth="yes"/>
			<point x="907.7582034105" y="-326"/>
			<point x="895.7582034105" y="-326"/>
			<point x="857.7582034105" y="-326" type="curve" smooth="yes"/>
			<point x="857.7582034105" y="-326"/>
			<point x="857.7582034105" y="-326"/>
			<point x="857.7582034105" y="-326" type="curve" smooth="yes"/>
			<point x="713.7582034105" y="-326"/>
			<point x="713.7582034105" y="-314"/>
			<point x="713.7582034105" y="-234" type="curve" smooth="yes"/>
			<point x="713.7582034105" y="0" type="line"/>
			<point x="859.7582034105" y="0" type="line" smooth="yes"/>
			<point x="903.7582034105" y="0"/>
			<point x="915.7582034105" y="0"/>
			<point x="915.7582034105" y="32" type="curve" smooth="yes"/>
			<point x="915.7582034105" y="62"/>
			<point x="903.7582034105" y="62"/>
			<point x="859.7582034105" y="62" type="curve" smooth="yes"/>
			<point x="713.7582034105" y="62" type="line"/>
			<point x="713.7582034105" y="872" type="line" smooth="yes"/>
			<point x="713.7582034105" y="920"/>
			<point x="713.7582034105" y="928"/>
			<point x="679.7582034105" y="928" type="curve" smooth="yes"/>
			<point x="655.7582034105" y="928"/>
			<point x="653.7582034105" y="924"/>
			<point x="637.7582034105" y="902" type="curve" smooth="yes"/>
			<point x="29.7582034105" y="62" type="line"/>
			<point x="29.7582034105" y="62"/>
			<point x="29.7582034105" y="62"/>
			<point x="29.7582034105" y="62" type="curve"/>
			<point x="29.7582034105" y="2"/>
			<point x="31.7582034105" y="0"/>
			<point x="85.7582034105" y="0" type="curve" smooth="yes"/>
			<point x="565.7582034105" y="0" type="line"/>
			<point x="565.7582034105" y="-234" type="line" smooth="yes"/>
			<point x="565.7582034105" y="-314"/>
			<point x="565.7582034105" y="-326"/>
			<point x="423.7582034105" y="-326" type="curve" smooth="yes"/>
			<point x="423.7582034105" y="-326"/>
			<point x="423.7582034105" y="-326"/>
			<point x="423.7582034105" y="-326" type="curve" smooth="yes"/>
			<point x="383.7582034105" y="-326"/>
			<point x="371.7582034105" y="-326"/>
			<point x="371.7582034105" y="-358" type="curve" smooth="yes"/>
			<point x="371.7582034105" y="-378"/>
			<point x="377.7582034105" y="-388"/>
		</contour>
		<contour>
			<point x="577.7582034105" y="62" type="line"/>
			<point x="87.7582034105" y="62" type="line"/>
			<point x="577.7582034105" y="740" type="line"/>
		</contour>
	</outline>
</glyph>
<glyph name="five" format="2">
	<unicode hex="0035"/>
	<advance width="500"/>
	<outline>
		<contour>
			<point x="187.5" y="-216" type="curve" smooth="yes"/>
			<point x="304.5" y="-216"/>
			<point x="404.5" y="-121"/>
			<point x="404.5" y="1" type="curve" smooth="yes"/>
			<point x="404.5" y="116"/>
			<point x="322.5" y="214"/>
			<point x="215.5" y="214" type="curve" smooth="yes"/>
			<point x="167.5" y="214"/>
			<point x="122.5" y="198"/>
			<point x="87.5" y="164" type="curve"/>
			<point x="87.5" y="357" type="line"/>
			<point x="129.5" y="344"/>
			<point x="160.5" y="344"/>
			<point x="174.5" y="344" type="curve" smooth="yes"/>
			<point x="194.5" y="344"/>
			<point x="240.5" y="344"/>
			<point x="295.5" y="375" type="curve" smooth="yes"/>
			<point x="324.5" y="392"/>
			<point x="365.5" y="429"/>
			<point x="365.5" y="442" type="curve" smooth="yes"/>
			<point x="365.5" y="448"/>
			<point x="362.5" y="453"/>
			<point x="355.5" y="453" type="curve" smooth="yes"/>
			<point x="354.5" y="453"/>
			<point x="352.5" y="453"/>
			<point x="347.5" y="450" type="curve"/>
			<point x="324.5" y="441"/>
			<point x="278.5" y="422"/>
			<point x="210.5" y="422" type="curve" smooth="yes"/>
			<point x="148.5" y="422"/>
			<point x="103.5" y="438"/>
			<point x="76.5" y="449" type="curve" smooth="yes"/>
			<point x="69.5" y="452"/>
			<point x="67.5" y="452"/>
			<point x="65.5" y="452" type="curve" smooth="yes"/>
			<point x="56.5" y="452"/>
			<point x="56.5" y="445"/>
			<point x="56.5" y="427" type="curve" smooth="yes"/>
			<point x="56.5" y="143" type="line" smooth="yes"/>
			<point x="56.5" y="123"/>
			<point x="56.5" y="115"/>
			<point x="69.5" y="115" type="curve" smooth="yes"/>
			<point x="77.5" y="115"/>
			<point x="80.5" y="119"/>
			<point x="85.5" y="127" type="curve"/>
			<point x="122.5" y="180"/>
			<point x="177.5" y="192"/>
			<point x="214.5" y="192" type="curve" smooth="yes"/>
			<point x="259.5" y="192"/>
			<point x="287.5" y="158"/>
			<point x="300.5" y="130" type="curve" smooth="yes"/>
			<point x="315.5" y="97"/>
			<point x="320.5" y="63"/>
			<point x="320.5" y="6" type="curve" smooth="yes"/>
			<point x="320.5" y="-44"/>
			<point x="317.5" y="-90"/>
			<point x="290.5" y="-132" type="curve" smooth="yes"/>
			<point x="270.5" y="-162"/>
			<point x="233.5" y="-188"/>
			<point x="185.5" y="-188" type="curve" smooth="yes"/>
			<point x="125.5" y="-188"/>
			<point x="58.5" y="-150"/>
			<point x="37.5" y="-79" type="curve"/>
			<point x="78.5" y="-89"/>
			<point x="100.5" y="-60"/>
			<point x="100.5" y="-34" type="curve" smooth="yes"/>
			<point x="100.5" y="-15"/>
			<point x="87.5" y="13"/>
			<point x="52.5" y="13" type="curve" smooth="yes"/>
			<point x="36.5" y="13"/>
			<point x="5.5" y="5"/>
			<point x="5.5" y="-38" type="curve" smooth="yes"/>
			<point x="5.5" y="-123"/>
			<point x="77.5" y="-216"/>
		</contour>
	</outline>
</glyph>
<glyph name="six" format="2">
	<unicode hex="0036"/>
	<advance width="500"/>
	<outline>
		<contour>
			<point x="83.5" y="328" type="curve"/>
			<point x="83.5" y="406"/>
			<point x="87.5" y="474"/>
			<point x="117.5" y="538" type="curve" smooth="yes"/>
			<point x="136.5" y="576"/>
			<point x="183.5" y="641"/>
			<point x="261.5" y="641" type="curve" smooth="yes"/>
			<point x="281.5" y="641"/>
			<point x="328.5" y="638"/>
			<point x="350.5" y="601" type="curve"/>
			<point x="323.5" y="601"/>
			<point x="298.5" y="590"/>
			<point x="298.5" y="557" type="curve" smooth="yes"/>
			<point x="298.5" y="535"/>
			<point x="314.5" y="513"/>
			<point x="342.5" y="513" type="curve" smooth="yes"/>
			<point x="369.5" y="513"/>
			<point x="387.5" y="531"/>
			<point x="387.5" y="560" type="curve" smooth="yes"/>
			<point x="387.5" y="612"/>
			<point x="349.5" y="666"/>
			<point x="260.5" y="666" type="curve" smooth="yes"/>
			<point x="132.5" y="666"/>
			<point x="-2.5" y="537"/>
			<point x="-2.5" y="316" type="curve" smooth="yes"/>
			<point x="-2.5" y="51"/>
			<point x="111.5" y="-22"/>
			<point x="207.5" y="-22" type="curve" smooth="yes"/>
			<point x="286.5" y="-22"/>
			<point x="327.5" y="19"/>
			<point x="351.5" y="45" type="curve" smooth="yes"/>
			<point x="389.5" y="86"/>
			<point x="412.5" y="128"/>
			<point x="412.5" y="204" type="curve" smooth="yes"/>
			<point x="412.5" y="265"/>
			<point x="397.5" y="311"/>
			<point x="356.5" y="358" type="curve" smooth="yes"/>
			<point x="314.5" y="405"/>
			<point x="274.5" y="426"/>
			<point x="212.5" y="426" type="curve" smooth="yes"/>
			<point x="135.5" y="426"/>
			<point x="99.5" y="364"/>
		</contour>
		<contour>
			<point x="206.5" y="6" type="curve" smooth="yes"/>
			<point x="145.5" y="6"/>
			<point x="114.5" y="58"/>
			<point x="104.5" y="83" type="curve" smooth="yes"/>
			<point x="92.5" y="115"/>
			<point x="85.5" y="167"/>
			<point x="85.5" y="227" type="curve" smooth="yes"/>
			<point x="85.5" y="298"/>
			<point x="116.5" y="404"/>
			<point x="211.5" y="404" type="curve" smooth="yes"/>
			<point x="229.5" y="404"/>
			<point x="274.5" y="404"/>
			<point x="306.5" y="342" type="curve" smooth="yes"/>
			<point x="326.5" y="304"/>
			<point x="326.5" y="258"/>
			<point x="326.5" y="204" type="curve" smooth="yes"/>
			<point x="326.5" y="152"/>
			<point x="326.5" y="106"/>
			<point x="306.5" y="68" type="curve" smooth="yes"/>
			<point x="286.5" y="33"/>
			<point x="257.5" y="6"/>
		</contour>
	</outline>
</glyph>
<glyph name="seven" format="2">
	<unicode hex="0037"/>
	<advance width="500"/>
	<outline>
		<contour>
			<point x="219.8791017052" y="-216" type="curve" smooth="yes"/>
			<point x="264.8791017052" y="-216"/>
			<point x="264.8791017052" y="-174"/>
			<point x="264.8791017052" y="-159" type="curve" smooth="yes"/>
			<point x="264.8791017052" y="-116" type="line" smooth="yes"/>
			<point x="264.8791017052" y="-74"/>
			<point x="267.8791017052" y="-7"/>
			<point x="276.8791017052" y="44" type="curve" smooth="yes"/>
			<point x="293.8791017052" y="150"/>
			<point x="316.8791017052" y="180"/>
			<point x="398.8791017052" y="292" type="curve" smooth="yes"/>
			<point x="425.8791017052" y="329"/>
			<point x="453.8791017052" y="366"/>
			<point x="480.8791017052" y="403" type="curve"/>
			<point x="482.8791017052" y="407"/>
			<point x="483.8791017052" y="410"/>
			<point x="483.8791017052" y="415" type="curve" smooth="yes"/>
			<point x="483.8791017052" y="431"/>
			<point x="477.8791017052" y="431"/>
			<point x="455.8791017052" y="431" type="curve" smooth="yes"/>
			<point x="231.8791017052" y="431" type="line" smooth="yes"/>
			<point x="209.8791017052" y="431"/>
			<point x="183.8791017052" y="432"/>
			<point x="162.8791017052" y="434" type="curve" smooth="yes"/>
			<point x="115.8791017052" y="437"/>
			<point x="113.8791017052" y="443"/>
			<point x="112.8791017052" y="450" type="curve" smooth="yes"/>
			<point x="111.8791017052" y="456"/>
			<point x="110.8791017052" y="463"/>
			<point x="100.8791017052" y="463" type="curve" smooth="yes"/>
			<point x="89.8791017052" y="463"/>
			<point x="88.8791017052" y="459"/>
			<point x="85.8791017052" y="440" type="curve" smooth="yes"/>
			<point x="74.8791017052" y="384"/>
			<point x="64.8791017052" y="328"/>
			<point x="53.8791017052" y="272" type="curve"/>
			<point x="53.8791017052" y="265"/>
			<point x="58.8791017052" y="260"/>
			<point x="66.8791017052" y="260" type="curve" smooth="yes"/>
			<point x="76.8791017052" y="260"/>
			<point x="77.8791017052" y="266"/>
			<point x="81.8791017052" y="285" type="curve" smooth="yes"/>
			<point x="86.8791017052" y="309"/>
			<point x="94.8791017052" y="352"/>
			<point x="105.8791017052" y="353" type="curve"/>
			<point x="127.8791017052" y="357"/>
			<point x="165.8791017052" y="357"/>
			<point x="196.8791017052" y="357" type="curve" smooth="yes"/>
			<point x="409.8791017052" y="357" type="line"/>
			<point x="380.8791017052" y="317"/>
			<point x="350.8791017052" y="277"/>
			<point x="321.8791017052" y="236" type="curve" smooth="yes"/>
			<point x="297.8791017052" y="202"/>
			<point x="252.8791017052" y="138"/>
			<point x="218.8791017052" y="53" type="curve" smooth="yes"/>
			<point x="193.8791017052" y="-9"/>
			<point x="175.8791017052" y="-81"/>
			<point x="175.8791017052" y="-163" type="curve" smooth="yes"/>
			<point x="175.8791017052" y="-173"/>
			<point x="175.8791017052" y="-216"/>
		</contour>
	</outline>
</glyph>
<glyph name="eight" format="2">
  <advance width="500"/>
  <unicode hex="0038"/>
  <outline>
    <contour>
      <point x="247.87910170524026" y="-22.0" type="curve" smooth="yes"/>
      <point x="361.87910170524026" y="-22.0"/>
      <point x="455.87910170524026" y="61.0"/>
      <point x="455.87910170524026" y="166.0" type="curve" smooth="yes"/>
      <point x="455.87910170524026" y="264.0"/>
      <point x="381.87910170524026" y="311.0"/>
      <point x="353.87910170524026" y="330.0" type="curve" smooth="yes"/>
      <point x="337.87910170524026" y="340.0"/>
      <point x="320.87910170524026" y="351.0"/>
      <point x="304.87910170524026" y="361.0" type="curve"/>
      <point x="371.87910170524026" y="395.0"/>
      <point x="428.87910170524026" y="446.0"/>
      <point x="428.87910170524026" y="518.0" type="curve" smooth="yes"/>
      <point x="428.87910170524026" y="605.0"/>
      <point x="343.87910170524026" y="666.0"/>
      <point x="248.87910170524026" y="666.0" type="curve" smooth="yes"/>
      <point x="148.87910170524026" y="666.0"/>
      <point x="67.87910170524027" y="591.0"/>
      <point x="67.87910170524027" y="501.0" type="curve" smooth="yes"/>
      <point x="67.87910170524027" y="416.0"/>
      <point x="129.87910170524026" y="375.0"/>
      <point x="149.87910170524026" y="361.0" type="curve"/>
      <point x="153.87910170524026" y="359.0"/>
      <point x="175.87910170524026" y="344.0"/>
      <point x="188.87910170524026" y="336.0" type="curve"/>
      <point x="80.87910170524027" y="285.0"/>
      <point x="40.879101705240274" y="217.0"/>
      <point x="40.879101705240274" y="151.0" type="curve" smooth="yes"/>
      <point x="40.879101705240274" y="47.0"/>
      <point x="140.87910170524026" y="-22.0"/>
    </contour>
    <contour>
      <point x="248.87910170524026" y="6.0" type="curve" smooth="yes"/>
      <point x="164.87910170524026" y="6.0"/>
      <point x="89.87910170524027" y="66.0"/>
      <point x="89.87910170524027" y="151.0" type="curve" smooth="yes"/>
      <point x="89.87910170524027" y="196.0"/>
      <point x="110.87910170524027" y="270.0"/>
      <point x="210.87910170524026" y="321.0" type="curve"/>
      <point x="243.87910170524026" y="301.0"/>
      <point x="266.87910170524026" y="286.0"/>
      <point x="332.87910170524026" y="243.0" type="curve" smooth="yes"/>
      <point x="360.87910170524026" y="225.0"/>
      <point x="406.87910170524026" y="195.0"/>
      <point x="406.87910170524026" y="133.0" type="curve" smooth="yes"/>
      <point x="406.87910170524026" y="58.0"/>
      <point x="330.87910170524026" y="6.0"/>
    </contour>
    <contour>
      <point x="282.87910170524026" y="376.0" type="curve"/>
      <point x="247.87910170524026" y="399.0"/>
      <point x="209.20351730564028" y="420.6438115157"/>
      <point x="176.87910170524026" y="444.0" type="curve" smooth="yes"/>
      <point x="147.87910170524026" y="463.0"/>
      <point x="110.87910170524027" y="487.0"/>
      <point x="110.87910170524027" y="536.0" type="curve" smooth="yes"/>
      <point x="110.87910170524027" y="601.0"/>
      <point x="178.87910170524026" y="641.0"/>
      <point x="247.87910170524026" y="641.0" type="curve" smooth="yes"/>
      <point x="321.87910170524026" y="641.0"/>
      <point x="385.87910170524026" y="589.0"/>
      <point x="385.87910170524026" y="518.0" type="curve" smooth="yes"/>
      <point x="385.87910170524026" y="459.0"/>
      <point x="346.87910170524026" y="411.0"/>
    </contour>
  </outline>
</glyph>
<glyph name="nine" format="2">
	<unicode hex="0039"/>
	<advance width="1000"/>
	<outline>
		<contour>
			<point x="653" y="228" type="curve"/>
			<point x="653" y="116"/>
			<point x="653" y="-50"/>
			<point x="591" y="-180" type="curve" smooth="yes"/>
			<point x="547" y="-270"/>
			<point x="461" y="-376"/>
			<point x="321" y="-376" type="curve" smooth="yes"/>
			<point x="283" y="-376"/>
			<point x="177" y="-372"/>
			<point x="123" y="-306" type="curve"/>
			<point x="209" y="-306"/>
			<point x="223" y="-248"/>
			<point x="223" y="-218" type="curve" smooth="yes"/>
			<point x="223" y="-174"/>
			<point x="191" y="-130"/>
			<point x="135" y="-130" type="curve" smooth="yes"/>
			<point x="77" y="-130"/>
			<point x="45" y="-170"/>
			<point x="45" y="-222" type="curve" smooth="yes"/>
			<point x="45" y="-346"/>
			<point x="147" y="-432"/>
			<point x="323" y="-432" type="curve" smooth="yes"/>
			<point x="581" y="-432"/>
			<point x="825" y="-166"/>
			<point x="825" y="250" type="curve" smooth="yes"/>
			<point x="825" y="774"/>
			<point x="595" y="906"/>
			<point x="417" y="906" type="curve" smooth="yes"/>
			<point x="297" y="906"/>
			<point x="209" y="866"/>
			<point x="129" y="788" type="curve" smooth="yes"/>
			<point x="17" y="678"/>
			<point x="-5" y="574"/>
			<point x="-5" y="466" type="curve" smooth="yes"/>
			<point x="-5" y="300"/>
			<point x="59" y="218"/>
			<point x="115" y="160" type="curve" smooth="yes"/>
			<point x="205" y="60"/>
			<point x="295" y="34"/>
			<point x="395" y="34" type="curve" smooth="yes"/>
			<point x="501" y="34"/>
			<point x="593" y="92"/>
		</contour>
		<contour>
			<point x="397" y="78" type="curve" smooth="yes"/>
			<point x="365" y="78"/>
			<point x="269" y="78"/>
			<point x="207" y="200" type="curve" smooth="yes"/>
			<point x="167" y="276"/>
			<point x="167" y="362"/>
			<point x="167" y="466" type="curve" smooth="yes"/>
			<point x="167" y="578"/>
			<point x="167" y="662"/>
			<point x="215" y="740" type="curve" smooth="yes"/>
			<point x="267" y="824"/>
			<point x="335" y="856"/>
			<point x="417" y="856" type="curve" smooth="yes"/>
			<point x="523" y="856"/>
			<point x="585" y="772"/>
			<point x="611" y="710" type="curve" smooth="yes"/>
			<point x="649" y="616"/>
			<point x="649" y="458"/>
			<point x="649" y="426" type="curve" smooth="yes"/>
			<point x="649" y="278"/>
			<point x="581" y="78"/>
		</contour>
	</outline>
</glyph>
<glyph name="less" format="2">
	<unicode hex="003C"/>
	<advance width="777"/>
	<outline>
		<contour>
			<point x="630.5" y="498" type="line" smooth="yes"/>
			<point x="642.5" y="504"/>
			<point x="649.5" y="509"/>
			<point x="649.5" y="520" type="curve" smooth="yes"/>
			<point x="649.5" y="531"/>
			<point x="640.5" y="540"/>
			<point x="629.5" y="540" type="curve" smooth="yes"/>
			<point x="626.5" y="540"/>
			<point x="624.5" y="540"/>
			<point x="611.5" y="533" type="curve"/>
			<point x="57.5" y="272" type="line" smooth="yes"/>
			<point x="46.5" y="267"/>
			<point x="38.5" y="262"/>
			<point x="38.5" y="250" type="curve" smooth="yes"/>
			<point x="38.5" y="238"/>
			<point x="46.5" y="233"/>
			<point x="57.5" y="228" type="curve" smooth="yes"/>
			<point x="611.5" y="-33" type="line"/>
			<point x="624.5" y="-40"/>
			<point x="626.5" y="-40"/>
			<point x="629.5" y="-40" type="curve" smooth="yes"/>
			<point x="640.5" y="-40"/>
			<point x="649.5" y="-31"/>
			<point x="649.5" y="-20" type="curve" smooth="yes"/>
			<point x="649.5" y="-9"/>
			<point x="642.5" y="-4"/>
			<point x="630.5" y="2" type="curve" smooth="yes"/>
			<point x="105.5" y="250" type="line"/>
		</contour>
	</outline>
</glyph>
<glyph name="greater" format="2">
	<unicode hex="003E"/>
	<advance width="777"/>
	<outline>
		<contour>
			<point x="630.5" y="228" type="line" smooth="yes"/>
			<point x="641.5" y="233"/>
			<point x="649.5" y="238"/>
			<point x="649.5" y="250" type="curve" smooth="yes"/>
			<point x="649.5" y="262"/>
			<point x="641.5" y="267"/>
			<point x="630.5" y="272" type="curve" smooth="yes"/>
			<point x="76.5" y="533" type="line"/>
			<point x="63.5" y="540"/>
			<point x="61.5" y="540"/>
			<point x="58.5" y="540" type="curve" smooth="yes"/>
			<point x="47.5" y="540"/>
			<point x="38.5" y="531"/>
			<point x="38.5" y="520" type="curve" smooth="yes"/>
			<point x="38.5" y="511"/>
			<point x="43.5" y="505"/>
			<point x="57.5" y="498" type="curve" smooth="yes"/>
			<point x="582.5" y="250" type="line"/>
			<point x="57.5" y="2" type="line" smooth="yes"/>
			<point x="43.5" y="-5"/>
			<point x="38.5" y="-11"/>
			<point x="38.5" y="-20" type="curve" smooth="yes"/>
			<point x="38.5" y="-31"/>
			<point x="47.5" y="-40"/>
			<point x="58.5" y="-40" type="curve" smooth="yes"/>
			<point x="61.5" y="-40"/>
			<point x="63.5" y="-40"/>
			<point x="76.5" y="-33" type="curve"/>
		</contour>
	</outline>
</glyph>
<glyph name="A" format="2">
	<unicode hex="0041"/>
	<advance width="1500"/>
	<outline>
		<contour>
			<point x="1035.7582034105" y="462" type="line"/>
			<point x="1037.7582034105" y="442"/>
			<point x="1045.7582034105" y="368"/>
			<point x="1051.7582034105" y="296" type="curve" smooth="yes"/>
			<point x="1059.7582034105" y="218"/>
			<point x="1067.7582034105" y="138"/>
			<point x="1067.7582034105" y="128" type="curve" smooth="yes"/>
			<point x="1067.7582034105" y="68"/>
			<point x="963.7582034105" y="62"/>
			<point x="923.7582034105" y="62" type="curve" smooth="yes"/>
			<point x="895.7582034105" y="62"/>
			<point x="875.7582034105" y="62"/>
			<point x="875.7582034105" y="22" type="curve" smooth="yes"/>
			<point x="875.7582034105" y="0"/>
			<point x="899.7582034105" y="0"/>
			<point x="903.7582034105" y="0" type="curve" smooth="yes"/>
			<point x="985.7582034105" y="0"/>
			<point x="1071.7582034105" y="6"/>
			<point x="1153.7582034105" y="6" type="curve" smooth="yes"/>
			<point x="1203.7582034105" y="6"/>
			<point x="1329.7582034105" y="0"/>
			<point x="1379.7582034105" y="0" type="curve" smooth="yes"/>
			<point x="1391.7582034105" y="0"/>
			<point x="1415.7582034105" y="0"/>
			<point x="1415.7582034105" y="40" type="curve" smooth="yes"/>
			<point x="1415.7582034105" y="62"/>
			<point x="1395.7582034105" y="62"/>
			<point x="1369.7582034105" y="62" type="curve" smooth="yes"/>
			<point x="1245.7582034105" y="62"/>
			<point x="1245.7582034105" y="76"/>
			<point x="1239.7582034105" y="134" type="curve" smooth="yes"/>
			<point x="1117.7582034105" y="1384" type="line" smooth="yes"/>
			<point x="1113.7582034105" y="1424"/>
			<point x="1113.7582034105" y="1432"/>
			<point x="1079.7582034105" y="1432" type="curve" smooth="yes"/>
			<point x="1047.7582034105" y="1432"/>
			<point x="1039.7582034105" y="1418"/>
			<point x="1027.7582034105" y="1398" type="curve" smooth="yes"/>
			<point x="331.7582034105" y="230" type="line" smooth="yes"/>
			<point x="251.7582034105" y="96"/>
			<point x="173.7582034105" y="68"/>
			<point x="85.7582034105" y="62" type="curve" smooth="yes"/>
			<point x="61.7582034105" y="60"/>
			<point x="43.7582034105" y="60"/>
			<point x="43.7582034105" y="22" type="curve" smooth="yes"/>
			<point x="43.7582034105" y="10"/>
			<point x="53.7582034105" y="0"/>
			<point x="69.7582034105" y="0" type="curve" smooth="yes"/>
			<point x="123.7582034105" y="0"/>
			<point x="185.7582034105" y="6"/>
			<point x="241.7582034105" y="6" type="curve" smooth="yes"/>
			<point x="307.7582034105" y="6"/>
			<point x="377.7582034105" y="0"/>
			<point x="441.7582034105" y="0" type="curve" smooth="yes"/>
			<point x="453.7582034105" y="0"/>
			<point x="479.7582034105" y="0"/>
			<point x="479.7582034105" y="38" type="curve" smooth="yes"/>
			<point x="479.7582034105" y="60"/>
			<point x="461.7582034105" y="62"/>
			<point x="447.7582034105" y="62" type="curve"/>
			<point x="401.7582034105" y="66"/>
			<point x="353.7582034105" y="82"/>
			<point x="353.7582034105" y="132" type="curve" smooth="yes"/>
			<point x="353.7582034105" y="156"/>
			<point x="365.7582034105" y="178"/>
			<point x="381.7582034105" y="206" type="curve" smooth="yes"/>
			<point x="533.7582034105" y="462" type="line"/>
			<point x="533.7582034105" y="462"/>
			<point x="533.7582034105" y="462"/>
			<point x="533.7582034105" y="462" type="curve"/>
		</contour>
		<contour>
			<point x="571.7582034105" y="524" type="line"/>
			<point x="965.7582034105" y="1184" type="line"/>
			<point x="1029.7582034105" y="524" type="line"/>
		</contour>
	</outline>
</glyph>
<glyph name="B" format="2">
  <advance width="758"/>
  <unicode hex="0042"/>
  <outline>
    <contour>
      <point x="700.8791017052403" y="216.0" type="curve" smooth="yes"/>
      <point x="700.8791017052403" y="288.0"/>
      <point x="642.8791017052403" y="346.0"/>
      <point x="545.8791017052403" y="357.0" type="curve"/>
      <point x="649.8791017052403" y="376.0"/>
      <point x="754.8791017052403" y="450.0"/>
      <point x="754.8791017052403" y="545.0" type="curve" smooth="yes"/>
      <point x="754.8791017052403" y="619.0"/>
      <point x="688.8791017052403" y="683.0"/>
      <point x="568.8791017052403" y="683.0" type="curve" smooth="yes"/>
      <point x="232.87910170524026" y="683.0" type="line" smooth="yes"/>
      <point x="213.87910170524026" y="683.0"/>
      <point x="203.87910170524026" y="683.0"/>
      <point x="203.87910170524026" y="663.0" type="curve" smooth="yes"/>
      <point x="203.87910170524026" y="652.0"/>
      <point x="212.87910170524026" y="652.0"/>
      <point x="231.87910170524026" y="652.0" type="curve" smooth="yes"/>
      <point x="233.87910170524026" y="652.0"/>
      <point x="252.87910170524026" y="652.0"/>
      <point x="269.87910170524026" y="650.0" type="curve" smooth="yes"/>
      <point x="287.87910170524026" y="648.0"/>
      <point x="296.87910170524026" y="647.0"/>
      <point x="296.87910170524026" y="634.0" type="curve" smooth="yes"/>
      <point x="296.87910170524026" y="630.0"/>
      <point x="295.87910170524026" y="627.0"/>
      <point x="292.87910170524026" y="615.0" type="curve" smooth="yes"/>
      <point x="158.87910170524026" y="78.0" type="line" smooth="yes"/>
      <point x="148.87910170524026" y="39.0"/>
      <point x="146.87910170524026" y="31.0"/>
      <point x="67.87910170524027" y="31.0" type="curve" smooth="yes"/>
      <point x="50.879101705240274" y="31.0"/>
      <point x="40.879101705240274" y="31.0"/>
      <point x="40.879101705240274" y="11.0" type="curve" smooth="yes"/>
      <point x="40.879101705240274" y="0.0"/>
      <point x="49.879101705240274" y="0.0"/>
      <point x="67.87910170524027" y="0.0" type="curve" smooth="yes"/>
      <point x="424.87910170524026" y="0.0" type="line" smooth="yes"/>
      <point x="582.8791017052403" y="0.0"/>
      <point x="700.8791017052403" y="118.0"/>
    </contour>
    <contour>
      <point x="663.8791017052403" y="549.0" type="curve" smooth="yes"/>
      <point x="663.8791017052403" y="461.0"/>
      <point x="577.8791017052403" y="366.0"/>
      <point x="455.87910170524026" y="366.0" type="curve" smooth="yes"/>
      <point x="309.87910170524026" y="366.0" type="line"/>
      <point x="371.87910170524026" y="614.0" type="line" smooth="yes"/>
      <point x="380.87910170524026" y="649.0"/>
      <point x="382.87910170524026" y="652.0"/>
      <point x="425.87910170524026" y="652.0" type="curve" smooth="yes"/>
      <point x="554.8791017052403" y="652.0" type="line" smooth="yes"/>
      <point x="642.8791017052403" y="652.0"/>
      <point x="663.8791017052403" y="593.0"/>
    </contour>
    <contour>
      <point x="607.8791017052403" y="227.0" type="curve" smooth="yes"/>
      <point x="607.8791017052403" y="128.0"/>
      <point x="518.8791017052403" y="31.0"/>
      <point x="400.87910170524026" y="31.0" type="curve" smooth="yes"/>
      <point x="263.87910170524026" y="31.0" type="line" smooth="yes"/>
      <point x="221.87910170524026" y="31.0"/>
      <point x="227.87910170524026" y="36.0"/>
      <point x="234.87910170524026" y="65.0" type="curve" smooth="yes"/>
      <point x="303.87910170524026" y="344.0" type="line"/>
      <point x="492.87910170524026" y="344.0" type="line" smooth="yes"/>
      <point x="588.8791017052403" y="344.0"/>
      <point x="607.8791017052403" y="270.0"/>
    </contour>
  </outline>
</glyph>
<glyph name="C" format="2">
  <advance width="714"/>
  <unicode hex="0043"/>
  <outline>
    <contour>
      <point x="48.879101705240274" y="252.0" type="curve" smooth="yes"/>
      <point x="48.879101705240274" y="87.0"/>
      <point x="166.87910170524026" y="-22.0"/>
      <point x="319.87910170524026" y="-22.0" type="curve" smooth="yes"/>
      <point x="406.87910170524026" y="-22.0"/>
      <point x="482.87910170524026" y="18.0"/>
      <point x="535.8791017052403" y="64.0" type="curve" smooth="yes"/>
      <point x="628.8791017052403" y="146.0"/>
      <point x="645.8791017052403" y="237.0"/>
      <point x="645.8791017052403" y="240.0" type="curve" smooth="yes"/>
      <point x="645.8791017052403" y="250.0"/>
      <point x="635.8791017052403" y="250.0"/>
      <point x="633.8791017052403" y="250.0" type="curve" smooth="yes"/>
      <point x="627.8791017052403" y="250.0"/>
      <point x="622.8791017052403" y="248.0"/>
      <point x="620.8791017052403" y="240.0" type="curve"/>
      <point x="611.8791017052403" y="211.0"/>
      <point x="588.8791017052403" y="140.0"/>
      <point x="519.8791017052403" y="82.0" type="curve" smooth="yes"/>
      <point x="450.87910170524026" y="26.0"/>
      <point x="387.87910170524026" y="9.0"/>
      <point x="335.87910170524026" y="9.0" type="curve" smooth="yes"/>
      <point x="245.87910170524026" y="9.0"/>
      <point x="139.87910170524026" y="61.0"/>
      <point x="139.87910170524026" y="217.0" type="curve" smooth="yes"/>
      <point x="139.87910170524026" y="274.0"/>
      <point x="160.87910170524026" y="436.0"/>
      <point x="260.87910170524026" y="553.0" type="curve" smooth="yes"/>
      <point x="321.87910170524026" y="624.0"/>
      <point x="415.87910170524026" y="674.0"/>
      <point x="504.87910170524026" y="674.0" type="curve" smooth="yes"/>
      <point x="606.8791017052403" y="674.0"/>
      <point x="665.8791017052403" y="597.0"/>
      <point x="665.8791017052403" y="481.0" type="curve" smooth="yes"/>
      <point x="665.8791017052403" y="441.0"/>
      <point x="662.8791017052403" y="440.0"/>
      <point x="662.8791017052403" y="430.0" type="curve" smooth="yes"/>
      <point x="662.8791017052403" y="420.0"/>
      <point x="673.8791017052403" y="420.0"/>
      <point x="677.8791017052403" y="420.0" type="curve" smooth="yes"/>
      <point x="690.8791017052403" y="420.0"/>
      <point x="691.8791017052403" y="422.0"/>
      <point x="695.8791017052403" y="440.0" type="curve" smooth="yes"/>
      <point x="758.8791017052403" y="695.0" type="line"/>
      <point x="758.8791017052403" y="695.0"/>
      <point x="758.8791017052403" y="695.0"/>
      <point x="758.8791017052403" y="695.0" type="curve"/>
      <point x="758.8791017052403" y="698.0"/>
      <point x="756.8791017052403" y="705.0"/>
      <point x="747.8791017052403" y="705.0" type="curve" smooth="yes"/>
      <point x="744.8791017052403" y="705.0"/>
      <point x="743.8791017052403" y="705.0"/>
      <point x="732.8791017052403" y="693.0" type="curve" smooth="yes"/>
      <point x="662.8791017052403" y="616.0" type="line"/>
      <point x="662.8791017052403" y="616.0"/>
      <point x="662.8791017052403" y="616.0"/>
      <point x="662.8791017052403" y="616.0" type="curve"/>
      <point x="662.8791017052403" y="616.0"/>
      <point x="662.8791017052403" y="616.0"/>
      <point x="662.8791017052403" y="616.0" type="curve"/>
      <point x="653.8791017052403" y="630.0"/>
      <point x="607.8791017052403" y="705.0"/>
      <point x="496.87910170524026" y="705.0" type="curve" smooth="yes"/>
      <point x="273.87910170524026" y="705.0"/>
      <point x="48.879101705240274" y="484.0"/>
    </contour>
  </outline>
</glyph>
<glyph name="D" format="2">
  <advance width="827"/>
  <unicode hex="0044"/>
  <outline>
    <contour>
      <point x="802.8791017052403" y="430.0" type="curve" smooth="yes"/>
      <point x="802.8791017052403" y="571.0"/>
      <point x="717.8791017052403" y="683.0"/>
      <point x="567.8791017052403" y="683.0" type="curve" smooth="yes"/>
      <point x="231.87910170524026" y="683.0" type="line" smooth="yes"/>
      <point x="212.87910170524026" y="683.0"/>
      <point x="201.87910170524026" y="683.0"/>
      <point x="201.87910170524026" y="664.0" type="curve" smooth="yes"/>
      <point x="201.87910170524026" y="652.0"/>
      <point x="210.87910170524026" y="652.0"/>
      <point x="230.87910170524026" y="652.0" type="curve" smooth="yes"/>
      <point x="243.87910170524026" y="652.0"/>
      <point x="261.87910170524026" y="651.0"/>
      <point x="273.87910170524026" y="650.0" type="curve" smooth="yes"/>
      <point x="289.87910170524026" y="648.0"/>
      <point x="295.87910170524026" y="645.0"/>
      <point x="295.87910170524026" y="634.0" type="curve" smooth="yes"/>
      <point x="295.87910170524026" y="630.0"/>
      <point x="294.87910170524026" y="627.0"/>
      <point x="291.87910170524026" y="615.0" type="curve" smooth="yes"/>
      <point x="157.87910170524026" y="78.0" type="line" smooth="yes"/>
      <point x="147.87910170524026" y="39.0"/>
      <point x="145.87910170524026" y="31.0"/>
      <point x="66.87910170524027" y="31.0" type="curve" smooth="yes"/>
      <point x="49.879101705240274" y="31.0"/>
      <point x="38.879101705240274" y="31.0"/>
      <point x="38.879101705240274" y="12.0" type="curve" smooth="yes"/>
      <point x="38.879101705240274" y="0.0"/>
      <point x="47.879101705240274" y="0.0"/>
      <point x="66.87910170524027" y="0.0" type="curve" smooth="yes"/>
      <point x="397.87910170524026" y="0.0" type="line" smooth="yes"/>
      <point x="605.8791017052403" y="0.0"/>
      <point x="802.8791017052403" y="211.0"/>
    </contour>
    <contour>
      <point x="373.87910170524026" y="614.0" type="line" smooth="yes"/>
      <point x="382.87910170524026" y="649.0"/>
      <point x="384.87910170524026" y="652.0"/>
      <point x="427.87910170524026" y="652.0" type="curve" smooth="yes"/>
      <point x="534.8791017052403" y="652.0" type="line" smooth="yes"/>
      <point x="632.8791017052403" y="652.0"/>
      <point x="715.8791017052403" y="599.0"/>
      <point x="715.8791017052403" y="467.0" type="curve" smooth="yes"/>
      <point x="715.8791017052403" y="418.0"/>
      <point x="695.8791017052403" y="254.0"/>
      <point x="610.8791017052403" y="144.0" type="curve" smooth="yes"/>
      <point x="581.8791017052403" y="107.0"/>
      <point x="502.87910170524026" y="31.0"/>
      <point x="379.87910170524026" y="31.0" type="curve" smooth="yes"/>
      <point x="257.87910170524026" y="31.0" type="line" smooth="yes"/>
      <point x="224.87910170524026" y="31.0"/>
      <point x="229.87910170524026" y="39.0"/>
      <point x="236.87910170524026" y="65.0" type="curve" smooth="yes"/>
    </contour>
  </outline>
</glyph>
<glyph name="E" format="2">
	<unicode hex="0045"/>
	<advance width="738"/>
	<outline>
		<contour>
			<point x="155.8791017052" y="78" type="line" smooth="yes"/>
			<point x="145.8791017052" y="39"/>
			<point x="143.8791017052" y="31"/>
			<point x="64.8791017052" y="31" type="curve" smooth="yes"/>
			<point x="47.8791017052" y="31"/>
			<point x="36.8791017052" y="31"/>
			<point x="36.8791017052" y="12" type="curve" smooth="yes"/>
			<point x="36.8791017052" y="0"/>
			<point x="45.8791017052" y="0"/>
			<point x="64.8791017052" y="0" type="curve" smooth="yes"/>
			<point x="583.8791017052" y="0" type="line" smooth="yes"/>
			<point x="606.8791017052" y="0"/>
			<point x="607.8791017052" y="1"/>
			<point x="614.8791017052" y="17" type="curve" smooth="yes"/>
			<point x="706.8791017052" y="233" type="line" smooth="yes"/>
			<point x="708.8791017052" y="238"/>
			<point x="711.8791017052" y="245"/>
			<point x="711.8791017052" y="247" type="curve" smooth="yes"/>
			<point x="711.8791017052" y="248"/>
			<point x="711.8791017052" y="258"/>
			<point x="699.8791017052" y="258" type="curve" smooth="yes"/>
			<point x="690.8791017052" y="258"/>
			<point x="689.8791017052" y="253"/>
			<point x="686.8791017052" y="246" type="curve" smooth="yes"/>
			<point x="622.8791017052" y="98"/>
			<point x="584.8791017052" y="31"/>
			<point x="413.8791017052" y="31" type="curve" smooth="yes"/>
			<point x="257.8791017052" y="31" type="line" smooth="yes"/>
			<point x="221.8791017052" y="31"/>
			<point x="233.8791017052" y="47"/>
			<point x="237.8791017052" y="65" type="curve" smooth="yes"/>
			<point x="305.8791017052" y="338" type="line"/>
			<point x="404.8791017052" y="338" type="line" smooth="yes"/>
			<point x="489.8791017052" y="338"/>
			<point x="489.8791017052" y="317"/>
			<point x="489.8791017052" y="292" type="curve" smooth="yes"/>
			<point x="489.8791017052" y="285"/>
			<point x="489.8791017052" y="270"/>
			<point x="482.8791017052" y="243" type="curve" smooth="yes"/>
			<point x="479.8791017052" y="230"/>
			<point x="478.4791017052" y="221"/>
			<point x="492.8791017052" y="221" type="curve" smooth="yes"/>
			<point x="500.8791017052" y="221"/>
			<point x="503.8791017052" y="226"/>
			<point x="507.8791017052" y="241" type="curve" smooth="yes"/>
			<point x="564.8791017052" y="474" type="line" smooth="yes"/>
			<point x="566.8791017052" y="482"/>
			<point x="559.8791017052" y="486"/>
			<point x="552.8791017052" y="486" type="curve" smooth="yes"/>
			<point x="543.8791017052" y="486"/>
			<point x="541.8791017052" y="480"/>
			<point x="538.8791017052" y="468" type="curve" smooth="yes"/>
			<point x="517.8791017052" y="392"/>
			<point x="499.8791017052" y="369"/>
			<point x="407.8791017052" y="369" type="curve" smooth="yes"/>
			<point x="313.8791017052" y="369" type="line"/>
			<point x="333.8591017052" y="449.253"/>
			<point x="353.8391017052" y="529.506"/>
			<point x="373.8791017052" y="610" type="curve" smooth="yes"/>
			<point x="382.8791017052" y="645"/>
			<point x="383.8791017052" y="649"/>
			<point x="427.8791017052" y="649" type="curve" smooth="yes"/>
			<point x="568.8791017052" y="649" type="line" smooth="yes"/>
			<point x="690.8791017052" y="649"/>
			<point x="720.8791017052" y="620"/>
			<point x="720.8791017052" y="538" type="curve" smooth="yes"/>
			<point x="720.8791017052" y="509"/>
			<point x="715.8791017052" y="484"/>
			<point x="715.8791017052" y="467" type="curve" smooth="yes"/>
			<point x="715.8791017052" y="462"/>
			<point x="718.8791017052" y="455"/>
			<point x="727.8791017052" y="455" type="curve" smooth="yes"/>
			<point x="738.8791017052" y="455"/>
			<point x="739.8791017052" y="461"/>
			<point x="741.8791017052" y="480" type="curve" smooth="yes"/>
			<point x="748.5391017052" y="537.609"/>
			<point x="755.1991017052" y="595.218"/>
			<point x="761.8791017052" y="653" type="curve" smooth="yes"/>
			<point x="764.8791017052" y="680"/>
			<point x="759.8791017052" y="680"/>
			<point x="734.8791017052" y="680" type="curve" smooth="yes"/>
			<point x="229.8791017052" y="680" type="line" smooth="yes"/>
			<point x="209.8791017052" y="680"/>
			<point x="199.8791017052" y="680"/>
			<point x="199.8791017052" y="660" type="curve" smooth="yes"/>
			<point x="199.8791017052" y="649"/>
			<point x="208.8791017052" y="649"/>
			<point x="227.8791017052" y="649" type="curve" smooth="yes"/>
			<point x="240.4021217052" y="649"/>
			<point x="251.8791017052" y="649"/>
			<point x="261.6184975478" y="648.3020978192" type="curve" smooth="yes"/>
			<point x="285.8791017052" y="646"/>
			<point x="296.8791017052" y="643"/>
			<point x="290.8791017052" y="618" type="curve" smooth="yes"/>
		</contour>
	</outline>
</glyph>
<glyph name="F" format="2">
  <advance width="643"/>
  <unicode hex="0046"/>
  <outline>
    <contour>
      <point x="301.87910170524026" y="325.0" type="line"/>
      <point x="398.87910170524026" y="325.0" type="line" smooth="yes"/>
      <point x="473.87910170524026" y="325.0"/>
      <point x="481.87910170524026" y="309.0"/>
      <point x="481.87910170524026" y="280.0" type="curve" smooth="yes"/>
      <point x="481.87910170524026" y="249.0"/>
      <point x="471.87910170524026" y="225.0"/>
      <point x="471.87910170524026" y="220.0" type="curve" smooth="yes"/>
      <point x="471.87910170524026" y="212.0"/>
      <point x="477.87910170524026" y="208.0"/>
      <point x="483.87910170524026" y="208.0" type="curve" smooth="yes"/>
      <point x="493.87910170524026" y="208.0"/>
      <point x="493.87910170524026" y="211.0"/>
      <point x="498.87910170524026" y="229.0" type="curve" smooth="yes"/>
      <point x="555.8791017052403" y="454.0" type="line" smooth="yes"/>
      <point x="558.8791017052403" y="465.0"/>
      <point x="556.8791017052403" y="473.0"/>
      <point x="544.8791017052403" y="473.0" type="curve" smooth="yes"/>
      <point x="534.8791017052403" y="473.0"/>
      <point x="533.8791017052403" y="468.0"/>
      <point x="529.8791017052403" y="452.0" type="curve" smooth="yes"/>
      <point x="508.87910170524026" y="374.0"/>
      <point x="485.87910170524026" y="356.0"/>
      <point x="400.87910170524026" y="356.0" type="curve" smooth="yes"/>
      <point x="309.87910170524026" y="356.0" type="line"/>
      <point x="331.19110170524027" y="440.582"/>
      <point x="352.5031017052403" y="525.164"/>
      <point x="373.87910170524026" y="610.0" type="curve" smooth="yes"/>
      <point x="382.87910170524026" y="645.0"/>
      <point x="383.87910170524026" y="649.0"/>
      <point x="427.87910170524026" y="649.0" type="curve" smooth="yes"/>
      <point x="559.8791017052403" y="649.0" type="line" smooth="yes"/>
      <point x="703.8791017052403" y="649.0"/>
      <point x="713.8791017052403" y="604.0"/>
      <point x="702.8791017052403" y="485.0" type="curve" smooth="yes"/>
      <point x="701.8791017052403" y="477.0"/>
      <point x="700.8791017052403" y="470.0"/>
      <point x="700.8791017052403" y="467.0" type="curve" smooth="yes"/>
      <point x="700.8791017052403" y="462.0"/>
      <point x="703.8791017052403" y="455.0"/>
      <point x="712.8791017052403" y="455.0" type="curve" smooth="yes"/>
      <point x="723.8791017052403" y="455.0"/>
      <point x="724.8791017052403" y="461.0"/>
      <point x="726.8791017052403" y="480.0" type="curve" smooth="yes"/>
      <point x="746.8791017052403" y="653.0" type="line" smooth="yes"/>
      <point x="749.8791017052403" y="680.0"/>
      <point x="744.8791017052403" y="680.0"/>
      <point x="719.8791017052403" y="680.0" type="curve" smooth="yes"/>
      <point x="229.87910170524026" y="680.0" type="line" smooth="yes"/>
      <point x="209.87910170524026" y="680.0"/>
      <point x="199.87910170524026" y="680.0"/>
      <point x="199.87910170524026" y="660.0" type="curve" smooth="yes"/>
      <point x="199.87910170524026" y="649.0"/>
      <point x="208.87910170524026" y="649.0"/>
      <point x="227.87910170524026" y="649.0" type="curve" smooth="yes"/>
      <point x="242.11004170524026" y="649.0"/>
      <point x="255.00958880564028" y="649.0"/>
      <point x="265.49668451714024" y="647.9758393259" type="curve" smooth="yes"/>
      <point x="282.27571046204025" y="646.3372142008"/>
      <point x="292.87910170524026" y="642.07684"/>
      <point x="292.87910170524026" y="631.0" type="curve" smooth="yes"/>
      <point x="292.87910170524026" y="627.0"/>
      <point x="292.87910170524026" y="625.0"/>
      <point x="287.87910170524026" y="607.0" type="curve" smooth="yes"/>
      <point x="155.87910170524026" y="78.0" type="line" smooth="yes"/>
      <point x="145.87910170524026" y="39.0"/>
      <point x="143.87910170524026" y="31.0"/>
      <point x="64.87910170524027" y="31.0" type="curve" smooth="yes"/>
      <point x="47.879101705240274" y="31.0"/>
      <point x="36.879101705240274" y="31.0"/>
      <point x="36.879101705240274" y="12.0" type="curve" smooth="yes"/>
      <point x="36.879101705240274" y="0.0"/>
      <point x="48.879101705240274" y="0.0"/>
      <point x="51.879101705240274" y="0.0" type="curve" smooth="yes"/>
      <point x="80.87910170524027" y="0.0"/>
      <point x="154.87910170524026" y="3.0"/>
      <point x="183.87910170524026" y="3.0" type="curve" smooth="yes"/>
      <point x="216.87910170524026" y="3.0"/>
      <point x="299.87910170524026" y="0.0"/>
      <point x="332.87910170524026" y="0.0" type="curve" smooth="yes"/>
      <point x="341.87910170524026" y="0.0"/>
      <point x="353.87910170524026" y="0.0"/>
      <point x="353.87910170524026" y="19.0" type="curve" smooth="yes"/>
      <point x="353.87910170524026" y="27.0"/>
      <point x="347.87910170524026" y="29.0"/>
      <point x="347.87910170524026" y="30.0" type="curve"/>
      <point x="344.87910170524026" y="31.0"/>
      <point x="342.87910170524026" y="31.0"/>
      <point x="319.87910170524026" y="31.0" type="curve" smooth="yes"/>
      <point x="297.87910170524026" y="31.0"/>
      <point x="292.87910170524026" y="31.0"/>
      <point x="267.87910170524026" y="33.0" type="curve" smooth="yes"/>
      <point x="238.87910170524026" y="36.0"/>
      <point x="235.87910170524026" y="40.0"/>
      <point x="235.87910170524026" y="53.0" type="curve" smooth="yes"/>
      <point x="235.87910170524026" y="55.0"/>
      <point x="235.87910170524026" y="61.0"/>
      <point x="239.87910170524026" y="76.0" type="curve" smooth="yes"/>
    </contour>
  </outline>
</glyph>
<glyph name="G" format="2">
  <advance width="786"/>
  <unicode hex="0047"/>
  <outline>
    <contour>
      <point x="48.879101705240274" y="252.0" type="curve" smooth="yes"/>
      <point x="48.879101705240274" y="93.0"/>
      <point x="159.87910170524026" y="-22.0"/>
      <point x="321.87910170524026" y="-22.0" type="curve" smooth="yes"/>
      <point x="426.87910170524026" y="-22.0"/>
      <point x="504.87910170524026" y="24.0"/>
      <point x="533.8791017052403" y="63.0" type="curve"/>
      <point x="542.8791017052403" y="38.0"/>
      <point x="568.8791017052403" y="1.0"/>
      <point x="578.8791017052403" y="1.0" type="curve" smooth="yes"/>
      <point x="585.8791017052403" y="1.0"/>
      <point x="587.8791017052403" y="6.0"/>
      <point x="589.8791017052403" y="15.0" type="curve" smooth="yes"/>
      <point x="625.8791017052403" y="158.0"/>
      <point x="630.8791017052403" y="177.0"/>
      <point x="634.8791017052403" y="194.0" type="curve" smooth="yes"/>
      <point x="645.8791017052403" y="239.0"/>
      <point x="646.8791017052403" y="241.0"/>
      <point x="703.8791017052403" y="242.0" type="curve" smooth="yes"/>
      <point x="708.8791017052403" y="242.0"/>
      <point x="719.8791017052403" y="243.0"/>
      <point x="719.8791017052403" y="262.0" type="curve" smooth="yes"/>
      <point x="719.8791017052403" y="269.0"/>
      <point x="714.8791017052403" y="273.0"/>
      <point x="706.8791017052403" y="273.0" type="curve" smooth="yes"/>
      <point x="683.8791017052403" y="273.0"/>
      <point x="628.8791017052403" y="270.0"/>
      <point x="605.8791017052403" y="270.0" type="curve" smooth="yes"/>
      <point x="594.8791017052403" y="270.0"/>
      <point x="551.8791017052403" y="271.0"/>
      <point x="546.8791017052403" y="271.0" type="curve" smooth="yes"/>
      <point x="509.87910170524026" y="272.0"/>
      <point x="482.02910170524024" y="273.0"/>
      <point x="461.87910170524026" y="273.0" type="curve" smooth="yes"/>
      <point x="452.87910170524026" y="273.0"/>
      <point x="440.87910170524026" y="273.0"/>
      <point x="440.87910170524026" y="253.0" type="curve" smooth="yes"/>
      <point x="440.87910170524026" y="242.0"/>
      <point x="448.87910170524026" y="242.0"/>
      <point x="470.87910170524026" y="242.0" type="curve" smooth="yes"/>
      <point x="471.87910170524026" y="242.0"/>
      <point x="500.87910170524026" y="242.0"/>
      <point x="523.8791017052403" y="240.0" type="curve" smooth="yes"/>
      <point x="549.8791017052403" y="237.0"/>
      <point x="554.8791017052403" y="234.0"/>
      <point x="554.8791017052403" y="221.0" type="curve" smooth="yes"/>
      <point x="554.8791017052403" y="212.0"/>
      <point x="543.8791017052403" y="167.0"/>
      <point x="533.8791017052403" y="130.0" type="curve" smooth="yes"/>
      <point x="523.2883817052402" y="88.3936"/>
      <point x="498.1049809500403" y="60.9506842624"/>
      <point x="468.98917892064026" y="42.9093005317" type="curve" smooth="yes"/>
      <point x="421.12792397724024" y="13.2524404736"/>
      <point x="362.6407017052403" y="9.0"/>
      <point x="340.87910170524026" y="9.0" type="curve" smooth="yes"/>
      <point x="244.87910170524026" y="9.0"/>
      <point x="139.87910170524026" y="66.0"/>
      <point x="139.87910170524026" y="219.0" type="curve" smooth="yes"/>
      <point x="139.87910170524026" y="250.0"/>
      <point x="149.87910170524026" y="415.0"/>
      <point x="254.87910170524026" y="545.0" type="curve" smooth="yes"/>
      <point x="308.87910170524026" y="613.0"/>
      <point x="405.87910170524026" y="674.0"/>
      <point x="504.87910170524026" y="674.0" type="curve" smooth="yes"/>
      <point x="606.8791017052403" y="674.0"/>
      <point x="665.8791017052403" y="597.0"/>
      <point x="665.8791017052403" y="481.0" type="curve" smooth="yes"/>
      <point x="665.8791017052403" y="441.0"/>
      <point x="662.8791017052403" y="440.0"/>
      <point x="662.8791017052403" y="430.0" type="curve" smooth="yes"/>
      <point x="662.8791017052403" y="420.0"/>
      <point x="673.8791017052403" y="420.0"/>
      <point x="677.8791017052403" y="420.0" type="curve" smooth="yes"/>
      <point x="690.8791017052403" y="420.0"/>
      <point x="690.8791017052403" y="422.0"/>
      <point x="695.8791017052403" y="440.0" type="curve" smooth="yes"/>
      <point x="758.8791017052403" y="695.0" type="line"/>
      <point x="758.8791017052403" y="698.0"/>
      <point x="756.8791017052403" y="705.0"/>
      <point x="747.8791017052403" y="705.0" type="curve" smooth="yes"/>
      <point x="744.8791017052403" y="705.0"/>
      <point x="743.8791017052403" y="705.0"/>
      <point x="732.8791017052403" y="693.0" type="curve" smooth="yes"/>
      <point x="662.8791017052403" y="616.0" type="line"/>
      <point x="662.8791017052403" y="616.0"/>
      <point x="662.8791017052403" y="616.0"/>
      <point x="662.8791017052403" y="616.0" type="curve"/>
      <point x="653.8791017052403" y="630.0"/>
      <point x="607.8791017052403" y="705.0"/>
      <point x="496.87910170524026" y="705.0" type="curve" smooth="yes"/>
      <point x="273.87910170524026" y="705.0"/>
      <point x="48.879101705240274" y="484.0"/>
    </contour>
  </outline>
</glyph>
<glyph name="H" format="2">
	<unicode hex="0048"/>
	<advance width="1662"/>
	<outline>
		<contour>
			<point x="525" y="680" type="line"/>
			<point x="1135" y="680" type="line"/>
			<point x="1051" y="348"/>
			<point x="1005" y="158"/>
			<point x="997" y="128" type="curve" smooth="yes"/>
			<point x="977" y="64"/>
			<point x="939" y="62"/>
			<point x="815" y="62" type="curve" smooth="yes"/>
			<point x="785" y="62"/>
			<point x="767" y="62"/>
			<point x="767" y="22" type="curve" smooth="yes"/>
			<point x="767" y="0"/>
			<point x="791" y="0"/>
			<point x="795" y="0" type="curve" smooth="yes"/>
			<point x="829" y="0"/>
			<point x="897" y="2"/>
			<point x="955" y="4" type="curve" smooth="yes"/>
			<point x="1045" y="6"/>
			<point x="1113" y="4"/>
			<point x="1177" y="4" type="curve" smooth="yes"/>
			<point x="1221" y="4"/>
			<point x="1265" y="0"/>
			<point x="1307" y="0" type="curve" smooth="yes"/>
			<point x="1323" y="0"/>
			<point x="1347" y="0"/>
			<point x="1347" y="40" type="curve" smooth="yes"/>
			<point x="1347" y="62"/>
			<point x="1329" y="62"/>
			<point x="1291" y="62" type="curve" smooth="yes"/>
			<point x="1266" y="62"/>
			<point x="1243" y="62"/>
			<point x="1224" y="63" type="curve" smooth="yes"/>
			<point x="1186" y="66"/>
			<point x="1161" y="74"/>
			<point x="1161" y="98" type="curve" smooth="yes"/>
			<point x="1161" y="110"/>
			<point x="1165" y="120"/>
			<point x="1167" y="132" type="curve"/>
			<point x="1437" y="1212" type="line" smooth="yes"/>
			<point x="1455" y="1284"/>
			<point x="1459" y="1304"/>
			<point x="1605" y="1304" type="curve" smooth="yes"/>
			<point x="1657" y="1304"/>
			<point x="1673" y="1304"/>
			<point x="1673" y="1344" type="curve" smooth="yes"/>
			<point x="1673" y="1366"/>
			<point x="1651" y="1366"/>
			<point x="1645" y="1366" type="curve" smooth="yes"/>
			<point x="1615" y="1366"/>
			<point x="1561" y="1364"/>
			<point x="1508" y="1363" type="curve" smooth="yes"/>
			<point x="1417" y="1360"/>
			<point x="1369" y="1360"/>
			<point x="1282" y="1362" type="curve" smooth="yes"/>
			<point x="1225" y="1364"/>
			<point x="1164" y="1366"/>
			<point x="1131" y="1366" type="curve" smooth="yes"/>
			<point x="1115" y="1366"/>
			<point x="1093" y="1366"/>
			<point x="1093" y="1326" type="curve" smooth="yes"/>
			<point x="1093" y="1304"/>
			<point x="1111" y="1304"/>
			<point x="1149" y="1304" type="curve" smooth="yes"/>
			<point x="1153" y="1304"/>
			<point x="1191" y="1304"/>
			<point x="1225" y="1300" type="curve" smooth="yes"/>
			<point x="1261" y="1296"/>
			<point x="1279" y="1294"/>
			<point x="1279" y="1268" type="curve" smooth="yes"/>
			<point x="1279" y="1260"/>
			<point x="1277" y="1256"/>
			<point x="1271" y="1230" type="curve" smooth="yes"/>
			<point x="1151" y="742" type="line"/>
			<point x="541" y="742" type="line"/>
			<point x="659" y="1212" type="line" smooth="yes"/>
			<point x="677" y="1284"/>
			<point x="683" y="1304"/>
			<point x="827" y="1304" type="curve" smooth="yes"/>
			<point x="879" y="1304"/>
			<point x="895" y="1304"/>
			<point x="895" y="1344" type="curve" smooth="yes"/>
			<point x="895" y="1366"/>
			<point x="873" y="1366"/>
			<point x="867" y="1366" type="curve" smooth="yes"/>
			<point x="838" y="1366"/>
			<point x="786" y="1364"/>
			<point x="734" y="1363" type="curve" smooth="yes"/>
			<point x="639" y="1360"/>
			<point x="589" y="1360"/>
			<point x="499" y="1362" type="curve" smooth="yes"/>
			<point x="444" y="1364"/>
			<point x="385" y="1366"/>
			<point x="353" y="1366" type="curve" smooth="yes"/>
			<point x="337" y="1366"/>
			<point x="315" y="1366"/>
			<point x="315" y="1326" type="curve" smooth="yes"/>
			<point x="315" y="1304"/>
			<point x="333" y="1304"/>
			<point x="371" y="1304" type="curve" smooth="yes"/>
			<point x="375" y="1304"/>
			<point x="413" y="1304"/>
			<point x="447" y="1300" type="curve" smooth="yes"/>
			<point x="483" y="1296"/>
			<point x="501" y="1294"/>
			<point x="501" y="1268" type="curve" smooth="yes"/>
			<point x="501" y="1260"/>
			<point x="499" y="1254"/>
			<point x="493" y="1230" type="curve" smooth="yes"/>
			<point x="225" y="156" type="line" smooth="yes"/>
			<point x="205" y="78"/>
			<point x="201" y="62"/>
			<point x="43" y="62" type="curve" smooth="yes"/>
			<point x="7" y="62"/>
			<point x="-11" y="62"/>
			<point x="-11" y="22" type="curve" smooth="yes"/>
			<point x="-11" y="0"/>
			<point x="13" y="0"/>
			<point x="17" y="0" type="curve" smooth="yes"/>
			<point x="51" y="0"/>
			<point x="118" y="2"/>
			<point x="178" y="4" type="curve" smooth="yes"/>
			<point x="287" y="8"/>
			<point x="335" y="4"/>
			<point x="399" y="4" type="curve" smooth="yes"/>
			<point x="443" y="4"/>
			<point x="487" y="0"/>
			<point x="529" y="0" type="curve" smooth="yes"/>
			<point x="545" y="0"/>
			<point x="569" y="0"/>
			<point x="569" y="40" type="curve" smooth="yes"/>
			<point x="569" y="62"/>
			<point x="551" y="62"/>
			<point x="513" y="62" type="curve" smooth="yes"/>
			<point x="487" y="62"/>
			<point x="463" y="62"/>
			<point x="443" y="64" type="curve" smooth="yes"/>
			<point x="406" y="67"/>
			<point x="383" y="75"/>
			<point x="383" y="98" type="curve" smooth="yes"/>
			<point x="383" y="110"/>
			<point x="387" y="120"/>
			<point x="389" y="132" type="curve" smooth="yes"/>
		</contour>
	</outline>
</glyph>
<glyph name="I" format="2">
	<unicode hex="0049"/>
	<advance width="878"/>
	<outline>
		<contour>
			<point x="225" y="156" type="line" smooth="yes"/>
			<point x="207" y="82"/>
			<point x="201" y="62"/>
			<point x="43" y="62" type="curve" smooth="yes"/>
			<point x="-3" y="62"/>
			<point x="-21" y="62"/>
			<point x="-21" y="22" type="curve" smooth="yes"/>
			<point x="-21" y="0"/>
			<point x="3" y="0"/>
			<point x="9" y="0" type="curve" smooth="yes"/>
			<point x="41" y="0"/>
			<point x="101" y="2"/>
			<point x="157" y="4" type="curve" smooth="yes"/>
			<point x="259" y="6"/>
			<point x="316" y="6"/>
			<point x="417" y="2" type="curve" smooth="yes"/>
			<point x="465" y="2"/>
			<point x="511" y="0"/>
			<point x="539" y="0" type="curve" smooth="yes"/>
			<point x="555" y="0"/>
			<point x="579" y="0"/>
			<point x="579" y="38" type="curve" smooth="yes"/>
			<point x="579" y="62"/>
			<point x="563" y="62"/>
			<point x="519" y="62" type="curve" smooth="yes"/>
			<point x="483" y="62"/>
			<point x="473" y="62"/>
			<point x="433" y="66" type="curve" smooth="yes"/>
			<point x="391" y="70"/>
			<point x="383" y="78"/>
			<point x="383" y="100" type="curve" smooth="yes"/>
			<point x="383" y="116"/>
			<point x="387" y="132"/>
			<point x="391" y="146" type="curve" smooth="yes"/>
			<point x="659" y="1212" type="line" smooth="yes"/>
			<point x="677" y="1284"/>
			<point x="683" y="1304"/>
			<point x="841" y="1304" type="curve" smooth="yes"/>
			<point x="889" y="1304"/>
			<point x="905" y="1304"/>
			<point x="905" y="1342" type="curve" smooth="yes"/>
			<point x="905" y="1366"/>
			<point x="883" y="1366"/>
			<point x="875" y="1366" type="curve" smooth="yes"/>
			<point x="847" y="1366"/>
			<point x="801" y="1364"/>
			<point x="753" y="1364" type="curve" smooth="yes"/>
			<point x="649" y="1360"/>
			<point x="593" y="1360"/>
			<point x="501" y="1362" type="curve" smooth="yes"/>
			<point x="441" y="1364"/>
			<point x="379" y="1366"/>
			<point x="345" y="1366" type="curve" smooth="yes"/>
			<point x="331" y="1366"/>
			<point x="305" y="1366"/>
			<point x="305" y="1326" type="curve" smooth="yes"/>
			<point x="305" y="1304"/>
			<point x="323" y="1304"/>
			<point x="361" y="1304" type="curve" smooth="yes"/>
			<point x="387" y="1304"/>
			<point x="411" y="1304"/>
			<point x="431" y="1302" type="curve" smooth="yes"/>
			<point x="473" y="1300"/>
			<point x="499" y="1292"/>
			<point x="499" y="1266" type="curve" smooth="yes"/>
			<point x="499" y="1256"/>
			<point x="499" y="1252"/>
			<point x="495" y="1234" type="curve" smooth="yes"/>
		</contour>
	</outline>
</glyph>
<glyph name="J" format="2">
	<unicode hex="004A"/>
	<advance width="554"/>
	<outline>
		<contour>
			<point x="158.5" y="-22" type="curve" smooth="yes"/>
			<point x="250.5" y="-22"/>
			<point x="354.5" y="44"/>
			<point x="379.5" y="143" type="curve" smooth="yes"/>
			<point x="496.5" y="610" type="line" smooth="yes"/>
			<point x="504.5" y="643"/>
			<point x="506.5" y="652"/>
			<point x="561.5" y="652" type="curve" smooth="yes"/>
			<point x="577.5" y="652"/>
			<point x="588.5" y="652"/>
			<point x="588.5" y="671" type="curve" smooth="yes"/>
			<point x="588.5" y="680"/>
			<point x="582.5" y="683"/>
			<point x="574.5" y="683" type="curve" smooth="yes"/>
			<point x="561.66225" y="683"/>
			<point x="539.5" y="682"/>
			<point x="517.257387541" y="681.4392197951" type="curve" smooth="yes"/>
			<point x="472.5" y="680"/>
			<point x="449.274" y="679.96561"/>
			<point x="405.6302752953" y="681.091367794" type="curve" smooth="yes"/>
			<point x="372.3746201088" y="681.9491762432"/>
			<point x="336.03072" y="683"/>
			<point x="316.5" y="683" type="curve" smooth="yes"/>
			<point x="307.5" y="683"/>
			<point x="295.5" y="683"/>
			<point x="295.5" y="663" type="curve" smooth="yes"/>
			<point x="295.5" y="652"/>
			<point x="303.5" y="652"/>
			<point x="329.5" y="652" type="curve" smooth="yes"/>
			<point x="352.5" y="652"/>
			<point x="362.5" y="652"/>
			<point x="387.5" y="650" type="curve" smooth="yes"/>
			<point x="411.5" y="647"/>
			<point x="418.5" y="644"/>
			<point x="418.5" y="630" type="curve" smooth="yes"/>
			<point x="418.5" y="624"/>
			<point x="416.5" y="617"/>
			<point x="414.5" y="609" type="curve" smooth="yes"/>
			<point x="376.205" y="456.153"/>
			<point x="337.91" y="303.306"/>
			<point x="299.5" y="150" type="curve" smooth="yes"/>
			<point x="275.5" y="53"/>
			<point x="207.5" y="0"/>
			<point x="155.5" y="0" type="curve" smooth="yes"/>
			<point x="129.5" y="0"/>
			<point x="76.5" y="10"/>
			<point x="60.5" y="62" type="curve"/>
			<point x="105.5" y="54"/>
			<point x="137.5" y="92"/>
			<point x="137.5" y="125" type="curve" smooth="yes"/>
			<point x="137.5" y="157"/>
			<point x="110.5" y="167"/>
			<point x="93.5" y="167" type="curve" smooth="yes"/>
			<point x="75.5" y="167"/>
			<point x="26.5" y="155"/>
			<point x="26.5" y="87" type="curve" smooth="yes"/>
			<point x="26.5" y="25"/>
			<point x="79.5" y="-22"/>
		</contour>
	</outline>
</glyph>
<glyph name="K" format="2">
	<unicode hex="004B"/>
	<advance width="1698"/>
	<outline>
		<contour>
			<point x="561.7582034105" y="570" type="line"/>
			<point x="721.7582034105" y="1212" type="line" smooth="yes"/>
			<point x="739.7582034105" y="1284"/>
			<point x="743.7582034105" y="1304"/>
			<point x="889.7582034105" y="1304" type="curve" smooth="yes"/>
			<point x="939.7582034105" y="1304"/>
			<point x="957.7582034105" y="1304"/>
			<point x="957.7582034105" y="1344" type="curve" smooth="yes"/>
			<point x="957.7582034105" y="1362"/>
			<point x="941.7582034105" y="1366"/>
			<point x="929.7582034105" y="1366" type="curve" smooth="yes"/>
			<point x="903.7582034105" y="1366"/>
			<point x="857.7582034105" y="1364"/>
			<point x="811.7582034105" y="1364" type="curve" smooth="yes"/>
			<point x="713.7582034105" y="1360"/>
			<point x="657.7582034105" y="1360"/>
			<point x="563.7582034105" y="1362" type="curve" smooth="yes"/>
			<point x="507.7582034105" y="1364"/>
			<point x="447.7582034105" y="1366"/>
			<point x="415.7582034105" y="1366" type="curve" smooth="yes"/>
			<point x="401.7582034105" y="1366"/>
			<point x="375.7582034105" y="1366"/>
			<point x="375.7582034105" y="1328" type="curve" smooth="yes"/>
			<point x="375.7582034105" y="1304"/>
			<point x="393.7582034105" y="1304"/>
			<point x="433.7582034105" y="1304" type="curve" smooth="yes"/>
			<point x="459.7582034105" y="1304"/>
			<point x="495.7582034105" y="1302"/>
			<point x="519.7582034105" y="1300" type="curve" smooth="yes"/>
			<point x="551.7582034105" y="1296"/>
			<point x="563.7582034105" y="1290"/>
			<point x="563.7582034105" y="1268" type="curve" smooth="yes"/>
			<point x="563.7582034105" y="1260"/>
			<point x="561.7582034105" y="1254"/>
			<point x="555.7582034105" y="1230" type="curve" smooth="yes"/>
			<point x="287.7582034105" y="156" type="line" smooth="yes"/>
			<point x="267.7582034105" y="78"/>
			<point x="263.7582034105" y="62"/>
			<point x="105.7582034105" y="62" type="curve" smooth="yes"/>
			<point x="71.7582034105" y="62"/>
			<point x="49.7582034105" y="62"/>
			<point x="49.7582034105" y="24" type="curve" smooth="yes"/>
			<point x="49.7582034105" y="0"/>
			<point x="73.7582034105" y="0"/>
			<point x="79.7582034105" y="0" type="curve" smooth="yes"/>
			<point x="135.7582034105" y="0"/>
			<point x="257.7582034105" y="6"/>
			<point x="313.7582034105" y="6" type="curve" smooth="yes"/>
			<point x="355.7582034105" y="6"/>
			<point x="403.7582034105" y="4"/>
			<point x="445.7582034105" y="4" type="curve" smooth="yes"/>
			<point x="489.7582034105" y="4"/>
			<point x="549.7582034105" y="0"/>
			<point x="591.7582034105" y="0" type="curve" smooth="yes"/>
			<point x="605.7582034105" y="0"/>
			<point x="631.7582034105" y="0"/>
			<point x="631.7582034105" y="40" type="curve" smooth="yes"/>
			<point x="631.7582034105" y="62"/>
			<point x="613.7582034105" y="62"/>
			<point x="575.7582034105" y="62" type="curve" smooth="yes"/>
			<point x="549.7582034105" y="62"/>
			<point x="525.7582034105" y="62"/>
			<point x="505.7582034105" y="64" type="curve" smooth="yes"/>
			<point x="469.7582034105" y="66"/>
			<point x="445.7582034105" y="74"/>
			<point x="445.7582034105" y="98" type="curve" smooth="yes"/>
			<point x="445.7582034105" y="112"/>
			<point x="455.7582034105" y="156"/>
			<point x="463.7582034105" y="186" type="curve" smooth="yes"/>
			<point x="490.7582034105" y="291"/>
			<point x="516.7582034105" y="395"/>
			<point x="543.7582034105" y="500" type="curve"/>
			<point x="543.7582034105" y="500"/>
			<point x="543.7582034105" y="500"/>
			<point x="543.7582034105" y="500" type="curve"/>
			<point x="841.7582034105" y="732" type="line"/>
			<point x="841.7582034105" y="732"/>
			<point x="841.7582034105" y="732"/>
			<point x="841.7582034105" y="732" type="curve"/>
			<point x="918.7582034105" y="553"/>
			<point x="996.7582034105" y="374"/>
			<point x="1073.7582034105" y="194" type="curve"/>
			<point x="1097.7582034105" y="140"/>
			<point x="1097.7582034105" y="136"/>
			<point x="1097.7582034105" y="124" type="curve" smooth="yes"/>
			<point x="1097.7582034105" y="64"/>
			<point x="1011.7582034105" y="62"/>
			<point x="993.7582034105" y="62" type="curve" smooth="yes"/>
			<point x="971.7582034105" y="62"/>
			<point x="949.7582034105" y="62"/>
			<point x="949.7582034105" y="22" type="curve" smooth="yes"/>
			<point x="949.7582034105" y="0"/>
			<point x="973.7582034105" y="0"/>
			<point x="977.7582034105" y="0" type="curve" smooth="yes"/>
			<point x="1027.7582034105" y="0"/>
			<point x="1079.7582034105" y="2"/>
			<point x="1129.7582034105" y="4" type="curve" smooth="yes"/>
			<point x="1161.7582034105" y="6"/>
			<point x="1209.7582034105" y="6"/>
			<point x="1241.7582034105" y="6" type="curve" smooth="yes"/>
			<point x="1265.7582034105" y="6"/>
			<point x="1373.7582034105" y="0"/>
			<point x="1417.7582034105" y="0" type="curve" smooth="yes"/>
			<point x="1427.7582034105" y="0"/>
			<point x="1453.7582034105" y="0"/>
			<point x="1453.7582034105" y="40" type="curve" smooth="yes"/>
			<point x="1453.7582034105" y="62"/>
			<point x="1431.7582034105" y="62"/>
			<point x="1413.7582034105" y="62" type="curve" smooth="yes"/>
			<point x="1331.7582034105" y="64"/>
			<point x="1305.7582034105" y="82"/>
			<point x="1275.7582034105" y="152" type="curve" smooth="yes"/>
			<point x="991.7582034105" y="808" type="line" smooth="yes"/>
			<point x="989.7582034105" y="814"/>
			<point x="981.7582034105" y="830"/>
			<point x="981.7582034105" y="836" type="curve" smooth="yes"/>
			<point x="981.7582034105" y="838"/>
			<point x="1017.7582034105" y="866"/>
			<point x="1039.7582034105" y="882" type="curve" smooth="yes"/>
			<point x="1156.7582034105" y="972"/>
			<point x="1272.7582034105" y="1062"/>
			<point x="1389.7582034105" y="1152" type="curve" smooth="yes"/>
			<point x="1577.7582034105" y="1290"/>
			<point x="1655.7582034105" y="1298"/>
			<point x="1715.7582034105" y="1304" type="curve" smooth="yes"/>
			<point x="1731.7582034105" y="1306"/>
			<point x="1751.7582034105" y="1308"/>
			<point x="1751.7582034105" y="1344" type="curve" smooth="yes"/>
			<point x="1751.7582034105" y="1352"/>
			<point x="1745.7582034105" y="1366"/>
			<point x="1729.7582034105" y="1366" type="curve" smooth="yes"/>
			<point x="1685.7582034105" y="1366"/>
			<point x="1635.7582034105" y="1360"/>
			<point x="1587.7582034105" y="1360" type="curve" smooth="yes"/>
			<point x="1557.7582034105" y="1360"/>
			<point x="1527.7582034105" y="1360"/>
			<point x="1497.7582034105" y="1362" type="curve" smooth="yes"/>
			<point x="1453.7582034105" y="1364"/>
			<point x="1407.7582034105" y="1366"/>
			<point x="1365.7582034105" y="1366" type="curve" smooth="yes"/>
			<point x="1351.7582034105" y="1366"/>
			<point x="1327.7582034105" y="1366"/>
			<point x="1327.7582034105" y="1326" type="curve" smooth="yes"/>
			<point x="1327.7582034105" y="1312"/>
			<point x="1337.7582034105" y="1306"/>
			<point x="1351.7582034105" y="1304" type="curve" smooth="yes"/>
			<point x="1395.7582034105" y="1300"/>
			<point x="1413.7582034105" y="1290"/>
			<point x="1413.7582034105" y="1262" type="curve" smooth="yes"/>
			<point x="1413.7582034105" y="1226"/>
			<point x="1353.7582034105" y="1180"/>
			<point x="1341.7582034105" y="1170" type="curve" smooth="yes"/>
		</contour>
	</outline>
</glyph>
<glyph name="L" format="2">
	<unicode hex="004C"/>
	<advance width="680"/>
	<outline>
		<contour>
			<point x="112.5" y="78" type="line" smooth="yes"/>
			<point x="102.5" y="39"/>
			<point x="100.5" y="31"/>
			<point x="21.5" y="31" type="curve" smooth="yes"/>
			<point x="4.5" y="31"/>
			<point x="-5.5" y="31"/>
			<point x="-5.5" y="11" type="curve" smooth="yes"/>
			<point x="-5.5" y="0"/>
			<point x="3.5" y="0"/>
			<point x="21.5" y="0" type="curve" smooth="yes"/>
			<point x="484.5" y="0" type="line" smooth="yes"/>
			<point x="508.5" y="0"/>
			<point x="509.5" y="0"/>
			<point x="515.5" y="17" type="curve" smooth="yes"/>
			<point x="594.5" y="233" type="line" smooth="yes"/>
			<point x="598.5" y="244"/>
			<point x="598.5" y="246"/>
			<point x="598.5" y="247" type="curve" smooth="yes"/>
			<point x="598.5" y="251"/>
			<point x="595.5" y="258"/>
			<point x="586.5" y="258" type="curve" smooth="yes"/>
			<point x="577.5" y="258"/>
			<point x="575.5" y="253"/>
			<point x="569.5" y="237" type="curve" smooth="yes"/>
			<point x="535.5" y="145"/>
			<point x="491.5" y="31"/>
			<point x="318.5" y="31" type="curve" smooth="yes"/>
			<point x="224.5" y="31" type="line" smooth="yes"/>
			<point x="205.5" y="31"/>
			<point x="189.5" y="29.15794"/>
			<point x="189.5" y="42" type="curve" smooth="yes"/>
			<point x="189.5" y="45"/>
			<point x="189.5" y="47"/>
			<point x="194.5" y="65" type="curve" smooth="yes"/>
			<point x="329.5" y="605" type="line" smooth="yes"/>
			<point x="338.5" y="641"/>
			<point x="341.5" y="652"/>
			<point x="435.5" y="652" type="curve" smooth="yes"/>
			<point x="465.5" y="652"/>
			<point x="473.5" y="652"/>
			<point x="473.5" y="671" type="curve" smooth="yes"/>
			<point x="473.5" y="683"/>
			<point x="462.5" y="683"/>
			<point x="457.5" y="683" type="curve" smooth="yes"/>
			<point x="436.31763" y="683"/>
			<point x="394.5" y="682"/>
			<point x="359.3039256253" y="680.8786348342" type="curve" smooth="yes"/>
			<point x="318.5" y="680"/>
			<point x="301.5" y="680"/>
			<point x="262.0030622004" y="680.9531863581" type="curve" smooth="yes"/>
			<point x="230.5" y="682"/>
			<point x="195.2218" y="683"/>
			<point x="176.5" y="683" type="curve" smooth="yes"/>
			<point x="169.5" y="683"/>
			<point x="157.5" y="683"/>
			<point x="157.5" y="663" type="curve" smooth="yes"/>
			<point x="157.5" y="652"/>
			<point x="166.5" y="652"/>
			<point x="185.5" y="652" type="curve" smooth="yes"/>
			<point x="187.5" y="652"/>
			<point x="206.5" y="652"/>
			<point x="223.5" y="650" type="curve" smooth="yes"/>
			<point x="241.5" y="648"/>
			<point x="250.5" y="647"/>
			<point x="250.5" y="634" type="curve" smooth="yes"/>
			<point x="250.5" y="630"/>
			<point x="249.5" y="627"/>
			<point x="246.5" y="615" type="curve" smooth="yes"/>
		</contour>
	</outline>
</glyph>
<glyph name="M" format="2">
  <advance width="970"/>
  <unicode hex="004D"/>
  <outline>
    <contour>
      <point x="166.87910170524026" y="106.0" type="line" smooth="yes"/>
      <point x="156.87910170524026" y="66.0"/>
      <point x="139.87910170524026" y="34.0"/>
      <point x="58.879101705240274" y="31.0" type="curve"/>
      <point x="53.879101705240274" y="31.0"/>
      <point x="40.879101705240274" y="30.0"/>
      <point x="40.879101705240274" y="12.0" type="curve" smooth="yes"/>
      <point x="40.879101705240274" y="3.0"/>
      <point x="46.879101705240274" y="0.0"/>
      <point x="54.879101705240274" y="0.0" type="curve" smooth="yes"/>
      <point x="86.87910170524027" y="0.0"/>
      <point x="121.87910170524027" y="3.0"/>
      <point x="154.87910170524026" y="3.0" type="curve" smooth="yes"/>
      <point x="188.87910170524026" y="3.0"/>
      <point x="224.87910170524026" y="0.0"/>
      <point x="257.87910170524026" y="0.0" type="curve" smooth="yes"/>
      <point x="262.87910170524026" y="0.0"/>
      <point x="275.87910170524026" y="0.0"/>
      <point x="275.87910170524026" y="20.0" type="curve" smooth="yes"/>
      <point x="275.87910170524026" y="31.0"/>
      <point x="264.87910170524026" y="31.0"/>
      <point x="257.87910170524026" y="31.0" type="curve" smooth="yes"/>
      <point x="200.87910170524026" y="32.0"/>
      <point x="189.87910170524026" y="52.0"/>
      <point x="189.87910170524026" y="75.0" type="curve" smooth="yes"/>
      <point x="189.87910170524026" y="82.0"/>
      <point x="190.87910170524026" y="87.0"/>
      <point x="193.87910170524026" y="98.0" type="curve" smooth="yes"/>
      <point x="329.87910170524026" y="643.0" type="line"/>
      <point x="330.87910170524026" y="643.0" type="line"/>
      <point x="416.87910170524026" y="23.0" type="line" smooth="yes"/>
      <point x="418.87910170524026" y="11.0"/>
      <point x="419.87910170524026" y="0.0"/>
      <point x="431.87910170524026" y="0.0" type="curve" smooth="yes"/>
      <point x="442.87910170524026" y="0.0"/>
      <point x="448.87910170524026" y="11.0"/>
      <point x="453.87910170524026" y="18.0" type="curve" smooth="yes"/>
      <point x="857.8791017052403" y="651.0" type="line"/>
      <point x="858.8791017052403" y="651.0" type="line"/>
      <point x="715.8791017052403" y="78.0" type="line" smooth="yes"/>
      <point x="705.8791017052403" y="39.0"/>
      <point x="703.8791017052403" y="31.0"/>
      <point x="624.8791017052403" y="31.0" type="curve" smooth="yes"/>
      <point x="607.8791017052403" y="31.0"/>
      <point x="596.8791017052403" y="31.0"/>
      <point x="596.8791017052403" y="12.0" type="curve" smooth="yes"/>
      <point x="596.8791017052403" y="0.0"/>
      <point x="608.8791017052403" y="0.0"/>
      <point x="611.8791017052403" y="0.0" type="curve" smooth="yes"/>
      <point x="627.8791017052403" y="0.0"/>
      <point x="655.8791017052403" y="1.0"/>
      <point x="682.8791017052403" y="2.0" type="curve" smooth="yes"/>
      <point x="733.8791017052403" y="3.0"/>
      <point x="770.8791017052403" y="3.0"/>
      <point x="807.8791017052403" y="1.0" type="curve" smooth="yes"/>
      <point x="825.8791017052403" y="0.0"/>
      <point x="843.8791017052403" y="0.0"/>
      <point x="860.8791017052403" y="0.0" type="curve" smooth="yes"/>
      <point x="866.8791017052403" y="0.0"/>
      <point x="879.8791017052403" y="0.0"/>
      <point x="879.8791017052403" y="20.0" type="curve" smooth="yes"/>
      <point x="879.8791017052403" y="31.0"/>
      <point x="870.8791017052403" y="31.0"/>
      <point x="851.8791017052403" y="31.0" type="curve" smooth="yes"/>
      <point x="837.8791017052403" y="31.0"/>
      <point x="825.8791017052403" y="31.0"/>
      <point x="815.8791017052403" y="32.0" type="curve" smooth="yes"/>
      <point x="797.8791017052403" y="33.0"/>
      <point x="786.8791017052403" y="38.0"/>
      <point x="786.8791017052403" y="49.0" type="curve" smooth="yes"/>
      <point x="786.8791017052403" y="53.0"/>
      <point x="786.8791017052403" y="55.0"/>
      <point x="791.8791017052403" y="73.0" type="curve" smooth="yes"/>
      <point x="924.8791017052403" y="606.0" type="line" smooth="yes"/>
      <point x="933.8791017052403" y="642.0"/>
      <point x="935.8791017052403" y="652.0"/>
      <point x="1010.8791017052403" y="652.0" type="curve" smooth="yes"/>
      <point x="1033.8791017052401" y="652.0"/>
      <point x="1042.8791017052401" y="652.0"/>
      <point x="1042.8791017052401" y="672.0" type="curve" smooth="yes"/>
      <point x="1042.8791017052401" y="683.0"/>
      <point x="1032.8791017052401" y="683.0"/>
      <point x="1015.8791017052403" y="683.0" type="curve" smooth="yes"/>
      <point x="883.8791017052403" y="683.0" type="line" smooth="yes"/>
      <point x="857.8791017052403" y="683.0"/>
      <point x="856.8791017052403" y="683.0"/>
      <point x="844.8791017052403" y="664.0" type="curve" smooth="yes"/>
      <point x="479.87910170524026" y="94.0" type="line"/>
      <point x="401.87910170524026" y="660.0" type="line" smooth="yes"/>
      <point x="398.87910170524026" y="683.0"/>
      <point x="396.87910170524026" y="683.0"/>
      <point x="370.87910170524026" y="683.0" type="curve" smooth="yes"/>
      <point x="233.87910170524026" y="683.0" type="line" smooth="yes"/>
      <point x="214.87910170524026" y="683.0"/>
      <point x="203.87910170524026" y="683.0"/>
      <point x="203.87910170524026" y="664.0" type="curve" smooth="yes"/>
      <point x="203.87910170524026" y="652.0"/>
      <point x="212.87910170524026" y="652.0"/>
      <point x="232.87910170524026" y="652.0" type="curve" smooth="yes"/>
      <point x="245.87910170524026" y="652.0"/>
      <point x="263.87910170524026" y="651.0"/>
      <point x="275.87910170524026" y="650.0" type="curve" smooth="yes"/>
      <point x="291.87910170524026" y="648.0"/>
      <point x="297.87910170524026" y="645.0"/>
      <point x="297.87910170524026" y="634.0" type="curve" smooth="yes"/>
      <point x="297.87910170524026" y="630.0"/>
      <point x="296.87910170524026" y="627.0"/>
      <point x="293.87910170524026" y="615.0" type="curve" smooth="yes"/>
    </contour>
  </outline>
</glyph>
<glyph name="N" format="2">
	<unicode hex="004E"/>
	<advance width="803"/>
	<outline>
		<contour>
			<point x="119.5" y="106" type="line" smooth="yes"/>
			<point x="109.5" y="66"/>
			<point x="92.5" y="34"/>
			<point x="11.5" y="31" type="curve"/>
			<point x="5.5" y="31"/>
			<point x="-5.5" y="30"/>
			<point x="-5.5" y="11" type="curve" smooth="yes"/>
			<point x="-5.5" y="4"/>
			<point x="-0.5" y="0"/>
			<point x="7.5" y="0" type="curve" smooth="yes"/>
			<point x="39.5" y="0"/>
			<point x="74.5" y="3"/>
			<point x="107.5" y="3" type="curve" smooth="yes"/>
			<point x="141.5" y="3"/>
			<point x="177.5" y="0"/>
			<point x="210.5" y="0" type="curve" smooth="yes"/>
			<point x="215.5" y="0"/>
			<point x="228.5" y="0"/>
			<point x="228.5" y="20" type="curve" smooth="yes"/>
			<point x="228.5" y="30"/>
			<point x="219.5" y="31"/>
			<point x="208.5" y="31" type="curve" smooth="yes"/>
			<point x="150.5" y="33"/>
			<point x="142.5" y="55"/>
			<point x="142.5" y="75" type="curve" smooth="yes"/>
			<point x="142.5" y="82"/>
			<point x="143.5" y="87"/>
			<point x="146.5" y="98" type="curve" smooth="yes"/>
			<point x="278.5" y="626" type="line"/>
			<point x="282.5" y="620"/>
			<point x="282.5" y="618"/>
			<point x="287.5" y="608" type="curve"/>
			<point x="536.5" y="19" type="line" smooth="yes"/>
			<point x="543.5" y="2"/>
			<point x="546.5" y="0"/>
			<point x="555.5" y="0" type="curve" smooth="yes"/>
			<point x="566.5" y="0"/>
			<point x="566.5" y="3"/>
			<point x="571.5" y="21" type="curve" smooth="yes"/>
			<point x="711.5" y="578" type="line" smooth="yes"/>
			<point x="721.5" y="618"/>
			<point x="739.5" y="649"/>
			<point x="819.5" y="652" type="curve" smooth="yes"/>
			<point x="824.5" y="652"/>
			<point x="836.5" y="653"/>
			<point x="836.5" y="672" type="curve" smooth="yes"/>
			<point x="836.5" y="673"/>
			<point x="836.5" y="683"/>
			<point x="823.5" y="683" type="curve" smooth="yes"/>
			<point x="790.5" y="683"/>
			<point x="755.5" y="680"/>
			<point x="722.5" y="680" type="curve" smooth="yes"/>
			<point x="688.5" y="680"/>
			<point x="653.5" y="683"/>
			<point x="620.5" y="683" type="curve" smooth="yes"/>
			<point x="614.5" y="683"/>
			<point x="602.5" y="683"/>
			<point x="602.5" y="663" type="curve" smooth="yes"/>
			<point x="602.5" y="652"/>
			<point x="612.5" y="652"/>
			<point x="620.5" y="652" type="curve" smooth="yes"/>
			<point x="677.5" y="651"/>
			<point x="688.5" y="630"/>
			<point x="688.5" y="608" type="curve" smooth="yes"/>
			<point x="688.5" y="605"/>
			<point x="686.5" y="590"/>
			<point x="685.5" y="587" type="curve"/>
			<point x="573.5" y="142" type="line"/>
			<point x="352.5" y="664" type="line" smooth="yes"/>
			<point x="344.5" y="682"/>
			<point x="343.5" y="683"/>
			<point x="320.5" y="683" type="curve" smooth="yes"/>
			<point x="186.5" y="683" type="line" smooth="yes"/>
			<point x="166.5" y="683"/>
			<point x="157.5" y="683"/>
			<point x="157.5" y="663" type="curve" smooth="yes"/>
			<point x="157.5" y="652"/>
			<point x="166.5" y="652"/>
			<point x="185.5" y="652" type="curve" smooth="yes"/>
			<point x="190.5" y="652"/>
			<point x="253.5" y="652"/>
			<point x="253.5" y="643" type="curve"/>
			<point x="253.5" y="643"/>
			<point x="253.5" y="643"/>
			<point x="253.5" y="643" type="curve"/>
		</contour>
	</outline>
</glyph>
<glyph name="O" format="2">
	<unicode hex="004F"/>
	<advance width="1524"/>
	<outline>
		<contour>
			<point x="1391" y="872" type="curve" smooth="yes"/>
			<point x="1391" y="1194"/>
			<point x="1179" y="1410"/>
			<point x="881" y="1410" type="curve" smooth="yes"/>
			<point x="449" y="1410"/>
			<point x="9" y="956"/>
			<point x="9" y="490" type="curve" smooth="yes"/>
			<point x="9" y="158"/>
			<point x="233" y="-44"/>
			<point x="521" y="-44" type="curve" smooth="yes"/>
			<point x="945" y="-44"/>
			<point x="1391" y="394"/>
		</contour>
		<contour>
			<point x="533" y="8" type="curve" smooth="yes"/>
			<point x="335" y="8"/>
			<point x="195" y="170"/>
			<point x="195" y="434" type="curve" smooth="yes"/>
			<point x="195" y="522"/>
			<point x="223" y="814"/>
			<point x="377" y="1048" type="curve" smooth="yes"/>
			<point x="515" y="1256"/>
			<point x="711" y="1360"/>
			<point x="869" y="1360" type="curve" smooth="yes"/>
			<point x="1033" y="1360"/>
			<point x="1213" y="1248"/>
			<point x="1213" y="950" type="curve" smooth="yes"/>
			<point x="1213" y="806"/>
			<point x="1159" y="494"/>
			<point x="961" y="248" type="curve" smooth="yes"/>
			<point x="865" y="126"/>
			<point x="701" y="8"/>
		</contour>
	</outline>
</glyph>
<glyph name="P" format="2">
	<unicode hex="0050"/>
	<advance width="1284"/>
	<outline>
		<contour>
			<point x="229" y="156" type="line" smooth="yes"/>
			<point x="209" y="78"/>
			<point x="205" y="62"/>
			<point x="47" y="62" type="curve" smooth="yes"/>
			<point x="13" y="62"/>
			<point x="-9" y="62"/>
			<point x="-9" y="24" type="curve" smooth="yes"/>
			<point x="-9" y="0"/>
			<point x="15" y="0"/>
			<point x="21" y="0" type="curve" smooth="yes"/>
			<point x="77" y="0"/>
			<point x="219" y="6"/>
			<point x="275" y="6" type="curve" smooth="yes"/>
			<point x="317" y="6"/>
			<point x="361" y="4"/>
			<point x="403" y="4" type="curve" smooth="yes"/>
			<point x="447" y="4"/>
			<point x="491" y="0"/>
			<point x="533" y="0" type="curve" smooth="yes"/>
			<point x="547" y="0"/>
			<point x="573" y="0"/>
			<point x="573" y="40" type="curve" smooth="yes"/>
			<point x="573" y="62"/>
			<point x="555" y="62"/>
			<point x="517" y="62" type="curve" smooth="yes"/>
			<point x="489" y="62"/>
			<point x="463" y="62"/>
			<point x="442" y="64" type="curve" smooth="yes"/>
			<point x="408" y="67"/>
			<point x="387" y="76"/>
			<point x="387" y="98" type="curve" smooth="yes"/>
			<point x="387" y="110"/>
			<point x="391" y="120"/>
			<point x="393" y="132" type="curve" smooth="yes"/>
			<point x="517" y="632" type="line"/>
			<point x="857" y="632" type="line" smooth="yes"/>
			<point x="1141" y="632"/>
			<point x="1419" y="840"/>
			<point x="1419" y="1064" type="curve" smooth="yes"/>
			<point x="1419" y="1218"/>
			<point x="1287" y="1366"/>
			<point x="1025" y="1366" type="curve" smooth="yes"/>
			<point x="377" y="1366" type="line" smooth="yes"/>
			<point x="339" y="1366"/>
			<point x="317" y="1366"/>
			<point x="317" y="1328" type="curve" smooth="yes"/>
			<point x="317" y="1304"/>
			<point x="335" y="1304"/>
			<point x="375" y="1304" type="curve" smooth="yes"/>
			<point x="401" y="1304"/>
			<point x="437" y="1302"/>
			<point x="461" y="1300" type="curve" smooth="yes"/>
			<point x="493" y="1296"/>
			<point x="505" y="1290"/>
			<point x="505" y="1268" type="curve" smooth="yes"/>
			<point x="505" y="1260"/>
			<point x="503" y="1254"/>
			<point x="497" y="1230" type="curve" smooth="yes"/>
		</contour>
		<contour>
			<point x="525" y="684" type="line"/>
			<point x="661" y="1228" type="line" smooth="yes"/>
			<point x="679" y="1298"/>
			<point x="683" y="1304"/>
			<point x="769" y="1304" type="curve" smooth="yes"/>
			<point x="961" y="1304" type="line" smooth="yes"/>
			<point x="1127" y="1304"/>
			<point x="1233" y="1250"/>
			<point x="1233" y="1112" type="curve" smooth="yes"/>
			<point x="1233" y="1034"/>
			<point x="1193" y="862"/>
			<point x="1115" y="790" type="curve" smooth="yes"/>
			<point x="1015" y="700"/>
			<point x="895" y="684"/>
			<point x="807" y="684" type="curve" smooth="yes"/>
		</contour>
	</outline>
</glyph>
<glyph name="Q" format="2">
	<unicode hex="0051"/>
	<advance width="790"/>
	<outline>
		<contour>
			<point x="4.5" y="245" type="curve" smooth="yes"/>
			<point x="4.5" y="79"/>
			<point x="116.5" y="-22"/>
			<point x="260.5" y="-22" type="curve" smooth="yes"/>
			<point x="285.5" y="-22"/>
			<point x="319.5" y="-18"/>
			<point x="358.5" y="-7" type="curve"/>
			<point x="354.5" y="-69"/>
			<point x="354.5" y="-71"/>
			<point x="354.5" y="-84" type="curve" smooth="yes"/>
			<point x="354.5" y="-116"/>
			<point x="354.5" y="-194"/>
			<point x="437.5" y="-194" type="curve" smooth="yes"/>
			<point x="556.5" y="-194"/>
			<point x="604.5" y="-11"/>
			<point x="604.5" y="0" type="curve" smooth="yes"/>
			<point x="604.5" y="7"/>
			<point x="597.5" y="10"/>
			<point x="593.5" y="10" type="curve" smooth="yes"/>
			<point x="585.5" y="10"/>
			<point x="583.5" y="5"/>
			<point x="581.5" y="-1" type="curve" smooth="yes"/>
			<point x="557.5" y="-72"/>
			<point x="499.5" y="-97"/>
			<point x="464.5" y="-97" type="curve" smooth="yes"/>
			<point x="418.5" y="-97"/>
			<point x="403.5" y="-70"/>
			<point x="393.5" y="6" type="curve"/>
			<point x="548.5" y="65"/>
			<point x="695.5" y="243"/>
			<point x="695.5" y="436" type="curve" smooth="yes"/>
			<point x="695.5" y="597"/>
			<point x="589.5" y="705"/>
			<point x="440.5" y="705" type="curve" smooth="yes"/>
			<point x="224.5" y="705"/>
			<point x="4.5" y="478"/>
		</contour>
		<contour>
			<point x="92.5" y="213" type="curve" smooth="yes"/>
			<point x="92.5" y="282"/>
			<point x="118.5" y="424"/>
			<point x="194.5" y="532" type="curve" smooth="yes"/>
			<point x="267.5" y="634"/>
			<point x="361.5" y="680"/>
			<point x="434.5" y="680" type="curve" smooth="yes"/>
			<point x="534.5" y="680"/>
			<point x="607.5" y="602"/>
			<point x="607.5" y="468" type="curve" smooth="yes"/>
			<point x="607.5" y="368"/>
			<point x="556.5" y="134"/>
			<point x="388.5" y="40" type="curve"/>
			<point x="383.5" y="75"/>
			<point x="373.5" y="148"/>
			<point x="300.5" y="148" type="curve" smooth="yes"/>
			<point x="247.5" y="148"/>
			<point x="198.5" y="98"/>
			<point x="198.5" y="46" type="curve" smooth="yes"/>
			<point x="198.5" y="26"/>
			<point x="204.5" y="15"/>
			<point x="204.5" y="14" type="curve"/>
			<point x="126.5" y="45"/>
			<point x="92.5" y="123"/>
		</contour>
		<contour>
			<point x="220.5" y="46" type="curve" smooth="yes"/>
			<point x="220.5" y="86"/>
			<point x="258.5" y="126"/>
			<point x="300.5" y="126" type="curve" smooth="yes"/>
			<point x="343.5" y="126"/>
			<point x="365.5" y="101"/>
			<point x="360.5" y="26" type="curve"/>
			<point x="334.5" y="13"/>
			<point x="301.5" y="3"/>
			<point x="266.5" y="3" type="curve" smooth="yes"/>
			<point x="252.5" y="3"/>
			<point x="220.5" y="3"/>
		</contour>
	</outline>
</glyph>
<glyph name="R" format="2">
  <advance width="759"/>
  <unicode hex="0052"/>
  <outline>
    <contour>
      <point x="308.87910170524026" y="353.0" type="line"/>
      <point x="373.87910170524026" y="614.0" type="line" smooth="yes"/>
      <point x="379.87910170524026" y="638.0"/>
      <point x="382.87910170524026" y="648.0"/>
      <point x="401.87910170524026" y="651.0" type="curve" smooth="yes"/>
      <point x="410.87910170524026" y="652.0"/>
      <point x="442.87910170524026" y="652.0"/>
      <point x="462.87910170524026" y="652.0" type="curve" smooth="yes"/>
      <point x="533.8791017052403" y="652.0"/>
      <point x="644.8791017052403" y="652.0"/>
      <point x="644.8791017052403" y="553.0" type="curve" smooth="yes"/>
      <point x="644.8791017052403" y="519.0"/>
      <point x="628.8791017052403" y="450.0"/>
      <point x="589.8791017052403" y="411.0" type="curve" smooth="yes"/>
      <point x="563.8791017052403" y="385.0"/>
      <point x="510.87910170524026" y="353.0"/>
      <point x="420.87910170524026" y="353.0" type="curve" smooth="yes"/>
    </contour>
    <contour>
      <point x="737.8791017052403" y="533.0" type="curve" smooth="yes"/>
      <point x="737.8791017052403" y="619.0"/>
      <point x="647.8791017052403" y="683.0"/>
      <point x="516.8791017052403" y="683.0" type="curve" smooth="yes"/>
      <point x="231.87910170524026" y="683.0" type="line" smooth="yes"/>
      <point x="211.87910170524026" y="683.0"/>
      <point x="202.87910170524026" y="683.0"/>
      <point x="202.87910170524026" y="663.0" type="curve" smooth="yes"/>
      <point x="202.87910170524026" y="652.0"/>
      <point x="211.87910170524026" y="652.0"/>
      <point x="230.87910170524026" y="652.0" type="curve" smooth="yes"/>
      <point x="232.87910170524026" y="652.0"/>
      <point x="251.87910170524026" y="652.0"/>
      <point x="268.87910170524026" y="650.0" type="curve" smooth="yes"/>
      <point x="286.87910170524026" y="648.0"/>
      <point x="295.87910170524026" y="647.0"/>
      <point x="295.87910170524026" y="634.0" type="curve" smooth="yes"/>
      <point x="295.87910170524026" y="630.0"/>
      <point x="294.87910170524026" y="627.0"/>
      <point x="291.87910170524026" y="615.0" type="curve" smooth="yes"/>
      <point x="157.87910170524026" y="78.0" type="line" smooth="yes"/>
      <point x="147.87910170524026" y="39.0"/>
      <point x="145.87910170524026" y="31.0"/>
      <point x="66.87910170524027" y="31.0" type="curve" smooth="yes"/>
      <point x="48.879101705240274" y="31.0"/>
      <point x="39.879101705240274" y="31.0"/>
      <point x="39.879101705240274" y="11.0" type="curve" smooth="yes"/>
      <point x="39.879101705240274" y="0.0"/>
      <point x="51.879101705240274" y="0.0"/>
      <point x="53.879101705240274" y="0.0" type="curve" smooth="yes"/>
      <point x="72.10122170524028" y="0.0"/>
      <point x="108.11150191744028" y="1.2705828723"/>
      <point x="138.75722877284028" y="2.157983362" type="curve" smooth="yes"/>
      <point x="174.87910170524026" y="3.0"/>
      <point x="192.97757170524028" y="3.00369"/>
      <point x="229.99627713364026" y="1.903020319" type="curve" smooth="yes"/>
      <point x="258.81208169774027" y="1.0462479075"/>
      <point x="290.3437017052403" y="0.0"/>
      <point x="306.87910170524026" y="0.0" type="curve" smooth="yes"/>
      <point x="314.87910170524026" y="0.0"/>
      <point x="326.87910170524026" y="0.0"/>
      <point x="326.87910170524026" y="20.0" type="curve" smooth="yes"/>
      <point x="326.87910170524026" y="31.0"/>
      <point x="317.87910170524026" y="31.0"/>
      <point x="298.87910170524026" y="31.0" type="curve" smooth="yes"/>
      <point x="284.6481617052402" y="31.0"/>
      <point x="271.7486146048403" y="31.0"/>
      <point x="261.2615188934403" y="32.0241606741" type="curve" smooth="yes"/>
      <point x="244.48249294844027" y="33.6627857992"/>
      <point x="233.87910170524026" y="37.92316"/>
      <point x="233.87910170524026" y="49.0" type="curve" smooth="yes"/>
      <point x="233.87910170524026" y="55.0"/>
      <point x="234.87910170524026" y="58.0"/>
      <point x="236.87910170524026" y="66.0" type="curve" smooth="yes"/>
      <point x="302.87910170524026" y="331.0" type="line"/>
      <point x="421.87910170524026" y="331.0" type="line" smooth="yes"/>
      <point x="512.8791017052403" y="331.0"/>
      <point x="530.8791017052403" y="275.0"/>
      <point x="530.8791017052403" y="240.0" type="curve" smooth="yes"/>
      <point x="530.8791017052403" y="225.0"/>
      <point x="522.8791017052403" y="194.0"/>
      <point x="516.8791017052403" y="171.0" type="curve" smooth="yes"/>
      <point x="509.87910170524026" y="143.0"/>
      <point x="500.87910170524026" y="106.0"/>
      <point x="500.87910170524026" y="86.0" type="curve" smooth="yes"/>
      <point x="500.87910170524026" y="-22.0"/>
      <point x="620.8791017052403" y="-22.0"/>
      <point x="633.8791017052403" y="-22.0" type="curve" smooth="yes"/>
      <point x="718.8791017052403" y="-22.0"/>
      <point x="753.8791017052403" y="79.0"/>
      <point x="753.8791017052403" y="93.0" type="curve" smooth="yes"/>
      <point x="753.8791017052403" y="105.0"/>
      <point x="742.8791017052403" y="105.0"/>
      <point x="741.8791017052403" y="105.0" type="curve" smooth="yes"/>
      <point x="732.8791017052403" y="105.0"/>
      <point x="730.8791017052403" y="98.0"/>
      <point x="728.8791017052403" y="91.0" type="curve" smooth="yes"/>
      <point x="703.8791017052403" y="17.0"/>
      <point x="660.8791017052403" y="0.0"/>
      <point x="637.8791017052403" y="0.0" type="curve" smooth="yes"/>
      <point x="604.8791017052403" y="0.0"/>
      <point x="597.8791017052403" y="22.0"/>
      <point x="597.8791017052403" y="61.0" type="curve" smooth="yes"/>
      <point x="597.8791017052403" y="92.0"/>
      <point x="603.8791017052403" y="143.0"/>
      <point x="607.8791017052403" y="175.0" type="curve" smooth="yes"/>
      <point x="609.8791017052403" y="189.0"/>
      <point x="611.8791017052403" y="208.0"/>
      <point x="611.8791017052403" y="222.0" type="curve" smooth="yes"/>
      <point x="611.8791017052403" y="299.0"/>
      <point x="544.8791017052403" y="330.0"/>
      <point x="517.8791017052403" y="340.0" type="curve"/>
      <point x="618.8791017052403" y="362.0"/>
      <point x="737.8791017052403" y="432.0"/>
    </contour>
  </outline>
</glyph>
<glyph name="S" format="2">
	<unicode hex="0053"/>
	<advance width="1226"/>
	<outline>
		<contour>
			<point x="329.7582034105" y="938" type="curve" smooth="yes"/>
			<point x="329.7582034105" y="859"/>
			<point x="354.7582034105" y="795"/>
			<point x="392.7582034105" y="748" type="curve" smooth="yes"/>
			<point x="432.7582034105" y="699"/>
			<point x="485.7582034105" y="667"/>
			<point x="537.7582034105" y="654" type="curve" smooth="yes"/>
			<point x="608.7582034105" y="635"/>
			<point x="680.7582034105" y="617"/>
			<point x="751.7582034105" y="598" type="curve" smooth="yes"/>
			<point x="825.7582034105" y="578"/>
			<point x="935.7582034105" y="550"/>
			<point x="935.7582034105" y="386" type="curve" smooth="yes"/>
			<point x="935.7582034105" y="206"/>
			<point x="771.7582034105" y="18"/>
			<point x="575.7582034105" y="18" type="curve" smooth="yes"/>
			<point x="447.7582034105" y="18"/>
			<point x="225.7582034105" y="62"/>
			<point x="225.7582034105" y="310" type="curve" smooth="yes"/>
			<point x="225.7582034105" y="380"/>
			<point x="241.7582034105" y="424"/>
			<point x="241.7582034105" y="434" type="curve" smooth="yes"/>
			<point x="241.7582034105" y="452"/>
			<point x="227.7582034105" y="454"/>
			<point x="217.7582034105" y="454" type="curve" smooth="yes"/>
			<point x="207.7582034105" y="454"/>
			<point x="203.7582034105" y="452"/>
			<point x="197.7582034105" y="446" type="curve" smooth="yes"/>
			<point x="189.7582034105" y="438"/>
			<point x="77.7582034105" y="-18"/>
			<point x="77.7582034105" y="-24" type="curve" smooth="yes"/>
			<point x="77.7582034105" y="-36"/>
			<point x="87.7582034105" y="-44"/>
			<point x="99.7582034105" y="-44" type="curve" smooth="yes"/>
			<point x="109.7582034105" y="-44"/>
			<point x="111.7582034105" y="-42"/>
			<point x="135.7582034105" y="-14" type="curve" smooth="yes"/>
			<point x="168.7582034105" y="24"/>
			<point x="200.7582034105" y="62"/>
			<point x="233.7582034105" y="100" type="curve"/>
			<point x="319.7582034105" y="-16"/>
			<point x="455.7582034105" y="-44"/>
			<point x="571.7582034105" y="-44" type="curve" smooth="yes"/>
			<point x="843.7582034105" y="-44"/>
			<point x="1079.7582034105" y="222"/>
			<point x="1079.7582034105" y="470" type="curve" smooth="yes"/>
			<point x="1079.7582034105" y="608"/>
			<point x="1011.7582034105" y="676"/>
			<point x="981.7582034105" y="704" type="curve" smooth="yes"/>
			<point x="935.7582034105" y="750"/>
			<point x="905.7582034105" y="758"/>
			<point x="727.7582034105" y="804" type="curve" smooth="yes"/>
			<point x="683.7582034105" y="816"/>
			<point x="611.7582034105" y="834"/>
			<point x="593.7582034105" y="840" type="curve" smooth="yes"/>
			<point x="539.7582034105" y="856"/>
			<point x="471.7582034105" y="916"/>
			<point x="471.7582034105" y="1022" type="curve" smooth="yes"/>
			<point x="471.7582034105" y="1184"/>
			<point x="631.7582034105" y="1354"/>
			<point x="821.7582034105" y="1354" type="curve" smooth="yes"/>
			<point x="987.7582034105" y="1354"/>
			<point x="1109.7582034105" y="1268"/>
			<point x="1109.7582034105" y="1044" type="curve" smooth="yes"/>
			<point x="1109.7582034105" y="980"/>
			<point x="1101.7582034105" y="944"/>
			<point x="1101.7582034105" y="932" type="curve" smooth="yes"/>
			<point x="1101.7582034105" y="930"/>
			<point x="1101.7582034105" y="912"/>
			<point x="1125.7582034105" y="912" type="curve" smooth="yes"/>
			<point x="1145.7582034105" y="912"/>
			<point x="1147.7582034105" y="918"/>
			<point x="1155.7582034105" y="952" type="curve" smooth="yes"/>
			<point x="1263.7582034105" y="1390" type="line"/>
			<point x="1263.7582034105" y="1396"/>
			<point x="1259.7582034105" y="1410"/>
			<point x="1241.7582034105" y="1410" type="curve" smooth="yes"/>
			<point x="1231.7582034105" y="1410"/>
			<point x="1229.7582034105" y="1408"/>
			<point x="1205.7582034105" y="1380" type="curve" smooth="yes"/>
			<point x="1173.7582034105" y="1342"/>
			<point x="1141.7582034105" y="1304"/>
			<point x="1109.7582034105" y="1266" type="curve"/>
			<point x="1057.7582034105" y="1360"/>
			<point x="953.7582034105" y="1410"/>
			<point x="823.7582034105" y="1410" type="curve" smooth="yes"/>
			<point x="569.7582034105" y="1410"/>
			<point x="329.7582034105" y="1180"/>
		</contour>
	</outline>
</glyph>
<glyph name="T" format="2">
  <advance width="584"/>
  <unicode hex="0054"/>
  <outline>
    <contour>
      <point x="208.87910170524026" y="79.0" type="line" smooth="yes"/>
      <point x="202.07240170524028" y="51.0169"/>
      <point x="198.69763984524027" y="37.90553194"/>
      <point x="151.16927784514027" y="33.1769587818" type="curve" smooth="yes"/>
      <point x="135.85437394524027" y="31.65328659"/>
      <point x="115.95500170524028" y="31.0"/>
      <point x="89.87910170524027" y="31.0" type="curve" smooth="yes"/>
      <point x="53.879101705240274" y="31.0"/>
      <point x="47.879101705240274" y="31.0"/>
      <point x="47.879101705240274" y="12.0" type="curve" smooth="yes"/>
      <point x="47.879101705240274" y="0.0"/>
      <point x="58.879101705240274" y="0.0"/>
      <point x="64.87910170524027" y="0.0" type="curve" smooth="yes"/>
      <point x="91.87910170524027" y="0.0"/>
      <point x="119.87910170524027" y="2.0"/>
      <point x="146.87910170524026" y="2.0" type="curve" smooth="yes"/>
      <point x="202.87910170524026" y="3.0"/>
      <point x="260.87910170524026" y="3.0"/>
      <point x="314.87910170524026" y="2.0" type="curve" smooth="yes"/>
      <point x="343.87910170524026" y="1.0"/>
      <point x="373.87910170524026" y="0.0"/>
      <point x="401.87910170524026" y="0.0" type="curve" smooth="yes"/>
      <point x="411.87910170524026" y="0.0"/>
      <point x="423.87910170524026" y="0.0"/>
      <point x="423.87910170524026" y="20.0" type="curve" smooth="yes"/>
      <point x="423.87910170524026" y="31.0"/>
      <point x="415.87910170524026" y="31.0"/>
      <point x="389.87910170524026" y="31.0" type="curve" smooth="yes"/>
      <point x="364.87910170524026" y="31.0"/>
      <point x="351.87910170524026" y="31.0"/>
      <point x="325.87910170524026" y="33.0" type="curve" smooth="yes"/>
      <point x="294.87910170524026" y="35.0"/>
      <point x="282.87910170524026" y="38.0"/>
      <point x="292.87910170524026" y="76.0" type="curve" smooth="yes"/>
      <point x="425.87910170524026" y="607.0" type="line" smooth="yes"/>
      <point x="432.87910170524026" y="635.0"/>
      <point x="436.87910170524026" y="641.0"/>
      <point x="448.87910170524026" y="644.0" type="curve" smooth="yes"/>
      <point x="457.87910170524026" y="646.0"/>
      <point x="490.87910170524026" y="646.0"/>
      <point x="511.87910170524026" y="646.0" type="curve" smooth="yes"/>
      <point x="612.8791017052403" y="646.0"/>
      <point x="657.8791017052403" y="642.0"/>
      <point x="657.8791017052403" y="564.0" type="curve" smooth="yes"/>
      <point x="657.8791017052403" y="549.0"/>
      <point x="653.8791017052403" y="505.0"/>
      <point x="647.8791017052403" y="473.0" type="curve" smooth="yes"/>
      <point x="645.8791017052403" y="462.0"/>
      <point x="646.8791017052403" y="452.0"/>
      <point x="658.8791017052403" y="452.0" type="curve" smooth="yes"/>
      <point x="669.8791017052403" y="452.0"/>
      <point x="671.8791017052403" y="460.0"/>
      <point x="673.8791017052403" y="475.0" type="curve" smooth="yes"/>
      <point x="702.8791017052403" y="662.0" type="line" smooth="yes"/>
      <point x="704.8791017052403" y="675.0"/>
      <point x="697.8791017052403" y="677.0"/>
      <point x="678.8791017052403" y="677.0" type="curve" smooth="yes"/>
      <point x="120.87910170524027" y="677.0" type="line" smooth="yes"/>
      <point x="96.87910170524027" y="677.0"/>
      <point x="95.87910170524027" y="676.0"/>
      <point x="88.87910170524027" y="657.0" type="curve" smooth="yes"/>
      <point x="28.879101705240274" y="481.0" type="line" smooth="yes"/>
      <point x="27.879101705240274" y="479.0"/>
      <point x="22.879101705240274" y="465.0"/>
      <point x="22.879101705240274" y="463.0" type="curve" smooth="yes"/>
      <point x="22.879101705240274" y="457.0"/>
      <point x="27.879101705240274" y="452.0"/>
      <point x="34.879101705240274" y="452.0" type="curve" smooth="yes"/>
      <point x="44.879101705240274" y="452.0"/>
      <point x="45.879101705240274" y="457.0"/>
      <point x="51.879101705240274" y="473.0" type="curve" smooth="yes"/>
      <point x="105.87910170524027" y="628.0"/>
      <point x="131.87910170524026" y="646.0"/>
      <point x="279.87910170524026" y="646.0" type="curve" smooth="yes"/>
      <point x="318.87910170524026" y="646.0" type="line" smooth="yes"/>
      <point x="346.87910170524026" y="646.0"/>
      <point x="346.87910170524026" y="642.0"/>
      <point x="346.87910170524026" y="634.0" type="curve" smooth="yes"/>
      <point x="346.87910170524026" y="629.0"/>
      <point x="343.87910170524026" y="617.0"/>
      <point x="342.87910170524026" y="613.0" type="curve" smooth="yes"/>
    </contour>
  </outline>
</glyph>
<glyph name="U" format="2">
	<unicode hex="0055"/>
	<advance width="682"/>
	<outline>
		<contour>
			<point x="218.5" y="-22" type="curve" smooth="yes"/>
			<point x="344.5" y="-22"/>
			<point x="468.5" y="91"/>
			<point x="501.5" y="223" type="curve" smooth="yes"/>
			<point x="531.137" y="341.215"/>
			<point x="560.774" y="459.43"/>
			<point x="590.5" y="578" type="curve" smooth="yes"/>
			<point x="600.5" y="619"/>
			<point x="618.5" y="649"/>
			<point x="698.5" y="652" type="curve" smooth="yes"/>
			<point x="703.5" y="652"/>
			<point x="715.5" y="653"/>
			<point x="715.5" y="672" type="curve" smooth="yes"/>
			<point x="715.5" y="673"/>
			<point x="715.5" y="683"/>
			<point x="702.5" y="683" type="curve" smooth="yes"/>
			<point x="684.38234" y="683"/>
			<point x="665.6618340792" y="682.0957311188"/>
			<point x="646.8349439388" y="681.2801167587" type="curve" smooth="yes"/>
			<point x="617.5" y="680"/>
			<point x="588.1543" y="679.85035"/>
			<point x="558.300507506" y="681.0726583381" type="curve" smooth="yes"/>
			<point x="537.26747929" y="681.9338155325"/>
			<point x="516.17295" y="683"/>
			<point x="496.5" y="683" type="curve" smooth="yes"/>
			<point x="490.5" y="683"/>
			<point x="478.5" y="683"/>
			<point x="478.5" y="663" type="curve" smooth="yes"/>
			<point x="478.5" y="652"/>
			<point x="488.5" y="652"/>
			<point x="496.5" y="652" type="curve" smooth="yes"/>
			<point x="553.5" y="651"/>
			<point x="564.5" y="630"/>
			<point x="564.5" y="608" type="curve" smooth="yes"/>
			<point x="564.5" y="605"/>
			<point x="562.5" y="590"/>
			<point x="561.5" y="587" type="curve"/>
			<point x="531.53" y="468.119"/>
			<point x="501.56" y="349.238"/>
			<point x="471.5" y="230" type="curve" smooth="yes"/>
			<point x="437.5" y="96"/>
			<point x="322.5" y="9"/>
			<point x="222.5" y="9" type="curve" smooth="yes"/>
			<point x="154.5" y="9"/>
			<point x="100.5" y="53"/>
			<point x="100.5" y="139" type="curve" smooth="yes"/>
			<point x="100.5" y="141"/>
			<point x="100.5" y="173"/>
			<point x="111.5" y="217" type="curve" smooth="yes"/>
			<point x="208.5" y="606" type="line" smooth="yes"/>
			<point x="217.5" y="642"/>
			<point x="219.5" y="652"/>
			<point x="292.5" y="652" type="curve" smooth="yes"/>
			<point x="318.5" y="652"/>
			<point x="326.5" y="652"/>
			<point x="326.5" y="672" type="curve" smooth="yes"/>
			<point x="326.5" y="683"/>
			<point x="315.5" y="683"/>
			<point x="312.5" y="683" type="curve" smooth="yes"/>
			<point x="298.5" y="683"/>
			<point x="273.5" y="682.25"/>
			<point x="248.5" y="681.5" type="curve" smooth="yes"/>
			<point x="200.5" y="680"/>
			<point x="174.32938" y="679.8816"/>
			<point x="128.7044916234" y="681.2395491698" type="curve" smooth="yes"/>
			<point x="100.9559709032" y="682.0654392212"/>
			<point x="71.68606" y="683"/>
			<point x="55.5" y="683" type="curve" smooth="yes"/>
			<point x="47.5" y="683"/>
			<point x="36.5" y="683"/>
			<point x="36.5" y="663" type="curve" smooth="yes"/>
			<point x="36.5" y="652"/>
			<point x="45.5" y="652"/>
			<point x="64.5" y="652" type="curve" smooth="yes"/>
			<point x="66.5" y="652"/>
			<point x="85.5" y="652"/>
			<point x="102.5" y="650" type="curve" smooth="yes"/>
			<point x="120.5" y="648"/>
			<point x="129.5" y="647"/>
			<point x="129.5" y="634" type="curve" smooth="yes"/>
			<point x="129.5" y="628"/>
			<point x="118.5" y="586"/>
			<point x="112.5" y="563" type="curve" smooth="yes"/>
			<point x="80.5" y="436"/>
			<point x="33.5" y="247"/>
			<point x="29.5" y="228" type="curve" smooth="yes"/>
			<point x="22.5" y="200"/>
			<point x="22.5" y="185"/>
			<point x="22.5" y="170" type="curve" smooth="yes"/>
			<point x="22.5" y="48"/>
			<point x="113.5" y="-22"/>
		</contour>
	</outline>
</glyph>
<glyph name="V" format="2">
	<unicode hex="0056"/>
	<advance width="1166"/>
	<outline>
		<contour>
			<point x="391" y="-44" type="curve" smooth="yes"/>
			<point x="423" y="-44"/>
			<point x="431" y="-34"/>
			<point x="447" y="-8" type="curve" smooth="yes"/>
			<point x="1167" y="1138" type="line" smooth="yes"/>
			<point x="1265" y="1294"/>
			<point x="1349" y="1300"/>
			<point x="1423" y="1304" type="curve" smooth="yes"/>
			<point x="1447" y="1306"/>
			<point x="1449" y="1340"/>
			<point x="1449" y="1342" type="curve" smooth="yes"/>
			<point x="1449" y="1358"/>
			<point x="1439" y="1366"/>
			<point x="1423" y="1366" type="curve" smooth="yes"/>
			<point x="1347" y="1366"/>
			<point x="1337" y="1360"/>
			<point x="1253" y="1360" type="curve" smooth="yes"/>
			<point x="1165" y="1360"/>
			<point x="1121" y="1366"/>
			<point x="1061" y="1366" type="curve" smooth="yes"/>
			<point x="1049" y="1366"/>
			<point x="1023" y="1366"/>
			<point x="1023" y="1328" type="curve" smooth="yes"/>
			<point x="1023" y="1306"/>
			<point x="1041" y="1304"/>
			<point x="1055" y="1304" type="curve" smooth="yes"/>
			<point x="1109" y="1304"/>
			<point x="1147" y="1280"/>
			<point x="1147" y="1238" type="curve" smooth="yes"/>
			<point x="1147" y="1208"/>
			<point x="1123" y="1172"/>
			<point x="1117" y="1162" type="curve" smooth="yes"/>
			<point x="503" y="186" type="line"/>
			<point x="369" y="1228" type="line" smooth="yes"/>
			<point x="367" y="1244"/>
			<point x="367" y="1248"/>
			<point x="367" y="1250" type="curve" smooth="yes"/>
			<point x="367" y="1282"/>
			<point x="417" y="1304"/>
			<point x="505" y="1304" type="curve" smooth="yes"/>
			<point x="533" y="1304"/>
			<point x="555" y="1304"/>
			<point x="555" y="1344" type="curve" smooth="yes"/>
			<point x="555" y="1362"/>
			<point x="539" y="1366"/>
			<point x="527" y="1366" type="curve" smooth="yes"/>
			<point x="481" y="1366"/>
			<point x="435" y="1364"/>
			<point x="387" y="1362" type="curve" smooth="yes"/>
			<point x="315" y="1360"/>
			<point x="241" y="1360"/>
			<point x="169" y="1362" type="curve" smooth="yes"/>
			<point x="133" y="1362"/>
			<point x="95" y="1366"/>
			<point x="61" y="1366" type="curve" smooth="yes"/>
			<point x="47" y="1366"/>
			<point x="23" y="1366"/>
			<point x="23" y="1328" type="curve" smooth="yes"/>
			<point x="23" y="1304"/>
			<point x="41" y="1304"/>
			<point x="73" y="1304" type="curve" smooth="yes"/>
			<point x="185" y="1304"/>
			<point x="187" y="1286"/>
			<point x="193" y="1236" type="curve" smooth="yes"/>
			<point x="351" y="2" type="line" smooth="yes"/>
			<point x="357" y="-38"/>
			<point x="365" y="-44"/>
		</contour>
	</outline>
</glyph>
<glyph name="W" format="2">
	<unicode hex="0057"/>
	<advance width="1888"/>
	<outline>
		<contour>
			<point x="997.7582034105" y="1018" type="line"/>
			<point x="1071.7582034105" y="8" type="line" smooth="yes"/>
			<point x="1075.7582034105" y="-34"/>
			<point x="1079.7582034105" y="-44"/>
			<point x="1103.7582034105" y="-44" type="curve" smooth="yes"/>
			<point x="1129.7582034105" y="-44"/>
			<point x="1141.7582034105" y="-24"/>
			<point x="1151.7582034105" y="-6" type="curve" smooth="yes"/>
			<point x="1807.7582034105" y="1134" type="line" smooth="yes"/>
			<point x="1857.7582034105" y="1222"/>
			<point x="1905.7582034105" y="1294"/>
			<point x="2031.7582034105" y="1304" type="curve" smooth="yes"/>
			<point x="2049.7582034105" y="1306"/>
			<point x="2069.7582034105" y="1306"/>
			<point x="2069.7582034105" y="1344" type="curve" smooth="yes"/>
			<point x="2069.7582034105" y="1352"/>
			<point x="2061.7582034105" y="1366"/>
			<point x="2045.7582034105" y="1366" type="curve" smooth="yes"/>
			<point x="1997.7582034105" y="1366"/>
			<point x="1941.7582034105" y="1360"/>
			<point x="1891.7582034105" y="1360" type="curve" smooth="yes"/>
			<point x="1823.7582034105" y="1360"/>
			<point x="1749.7582034105" y="1366"/>
			<point x="1683.7582034105" y="1366" type="curve" smooth="yes"/>
			<point x="1671.7582034105" y="1366"/>
			<point x="1645.7582034105" y="1366"/>
			<point x="1645.7582034105" y="1328" type="curve" smooth="yes"/>
			<point x="1645.7582034105" y="1306"/>
			<point x="1663.7582034105" y="1304"/>
			<point x="1675.7582034105" y="1304" type="curve" smooth="yes"/>
			<point x="1723.7582034105" y="1302"/>
			<point x="1793.7582034105" y="1286"/>
			<point x="1793.7582034105" y="1226" type="curve" smooth="yes"/>
			<point x="1793.7582034105" y="1204"/>
			<point x="1783.7582034105" y="1188"/>
			<point x="1767.7582034105" y="1160" type="curve" smooth="yes"/>
			<point x="1227.7582034105" y="218" type="line"/>
			<point x="1153.7582034105" y="1210" type="line" smooth="yes"/>
			<point x="1151.7582034105" y="1250"/>
			<point x="1147.7582034105" y="1302"/>
			<point x="1293.7582034105" y="1304" type="curve" smooth="yes"/>
			<point x="1327.7582034105" y="1304"/>
			<point x="1347.7582034105" y="1304"/>
			<point x="1347.7582034105" y="1344" type="curve" smooth="yes"/>
			<point x="1347.7582034105" y="1364"/>
			<point x="1325.7582034105" y="1366"/>
			<point x="1317.7582034105" y="1366" type="curve" smooth="yes"/>
			<point x="1275.7582034105" y="1366"/>
			<point x="1232.7582034105" y="1364"/>
			<point x="1189.7582034105" y="1363" type="curve" smooth="yes"/>
			<point x="1131.7582034105" y="1360"/>
			<point x="1090.7582034105" y="1359"/>
			<point x="990.7582034105" y="1362" type="curve" smooth="yes"/>
			<point x="942.7582034105" y="1364"/>
			<point x="890.7582034105" y="1366"/>
			<point x="863.7582034105" y="1366" type="curve" smooth="yes"/>
			<point x="851.7582034105" y="1366"/>
			<point x="825.7582034105" y="1366"/>
			<point x="825.7582034105" y="1326" type="curve" smooth="yes"/>
			<point x="825.7582034105" y="1304"/>
			<point x="845.7582034105" y="1304"/>
			<point x="873.7582034105" y="1304" type="curve" smooth="yes"/>
			<point x="961.7582034105" y="1304"/>
			<point x="977.7582034105" y="1292"/>
			<point x="979.7582034105" y="1254" type="curve" smooth="yes"/>
			<point x="983.7582034105" y="1203"/>
			<point x="987.7582034105" y="1151"/>
			<point x="991.7582034105" y="1100" type="curve"/>
			<point x="991.7582034105" y="1100"/>
			<point x="991.7582034105" y="1100"/>
			<point x="991.7582034105" y="1100" type="curve"/>
			<point x="485.7582034105" y="218" type="line"/>
			<point x="409.7582034105" y="1232" type="line" smooth="yes"/>
			<point x="407.7582034105" y="1256"/>
			<point x="409.7582034105" y="1302"/>
			<point x="561.7582034105" y="1304" type="curve" smooth="yes"/>
			<point x="581.7582034105" y="1304"/>
			<point x="603.7582034105" y="1304"/>
			<point x="603.7582034105" y="1344" type="curve" smooth="yes"/>
			<point x="603.7582034105" y="1366"/>
			<point x="579.7582034105" y="1366"/>
			<point x="575.7582034105" y="1366" type="curve" smooth="yes"/>
			<point x="527.7582034105" y="1366"/>
			<point x="479.7582034105" y="1364"/>
			<point x="429.7582034105" y="1362" type="curve" smooth="yes"/>
			<point x="365.7582034105" y="1360"/>
			<point x="305.7582034105" y="1360"/>
			<point x="237.7582034105" y="1362" type="curve" smooth="yes"/>
			<point x="197.7582034105" y="1364"/>
			<point x="157.7582034105" y="1366"/>
			<point x="119.7582034105" y="1366" type="curve" smooth="yes"/>
			<point x="109.7582034105" y="1366"/>
			<point x="83.7582034105" y="1366"/>
			<point x="83.7582034105" y="1328" type="curve" smooth="yes"/>
			<point x="83.7582034105" y="1304"/>
			<point x="101.7582034105" y="1304"/>
			<point x="133.7582034105" y="1304" type="curve" smooth="yes"/>
			<point x="233.7582034105" y="1304"/>
			<point x="235.7582034105" y="1286"/>
			<point x="239.7582034105" y="1230" type="curve" smooth="yes"/>
			<point x="329.7582034105" y="8" type="line" smooth="yes"/>
			<point x="331.7582034105" y="-28"/>
			<point x="333.7582034105" y="-44"/>
			<point x="361.7582034105" y="-44" type="curve" smooth="yes"/>
			<point x="385.7582034105" y="-44"/>
			<point x="391.7582034105" y="-32"/>
			<point x="409.7582034105" y="-2" type="curve" smooth="yes"/>
		</contour>
	</outline>
</glyph>
<glyph name="X" format="2">
	<unicode hex="0058"/>
	<advance width="828"/>
	<outline>
		<contour>
			<point x="452.5" y="384" type="curve"/>
			<point x="520.5" y="454"/>
			<point x="625.5" y="573"/>
			<point x="657.5" y="601" type="curve" smooth="yes"/>
			<point x="686.5" y="625"/>
			<point x="724.5" y="649"/>
			<point x="784.5" y="652" type="curve" smooth="yes"/>
			<point x="797.5" y="653"/>
			<point x="806.5" y="653"/>
			<point x="806.5" y="672" type="curve" smooth="yes"/>
			<point x="806.5" y="673"/>
			<point x="806.5" y="683"/>
			<point x="793.5" y="683" type="curve" smooth="yes"/>
			<point x="763.5" y="683"/>
			<point x="730.5" y="680"/>
			<point x="699.5" y="680" type="curve" smooth="yes"/>
			<point x="662.5" y="680"/>
			<point x="624.5" y="683"/>
			<point x="588.5" y="683" type="curve" smooth="yes"/>
			<point x="582.5" y="683"/>
			<point x="569.5" y="683"/>
			<point x="569.5" y="663" type="curve" smooth="yes"/>
			<point x="569.5" y="656"/>
			<point x="574.5" y="653"/>
			<point x="581.5" y="652" type="curve" smooth="yes"/>
			<point x="590.5" y="651"/>
			<point x="621.5" y="649"/>
			<point x="621.5" y="621" type="curve" smooth="yes"/>
			<point x="621.5" y="607"/>
			<point x="610.5" y="594"/>
			<point x="602.5" y="585" type="curve" smooth="yes"/>
			<point x="440.5" y="411" type="line"/>
			<point x="356.5" y="610" type="line" smooth="yes"/>
			<point x="354.5" y="615"/>
			<point x="352.5" y="620"/>
			<point x="351.5" y="623" type="curve" smooth="yes"/>
			<point x="347.5" y="635"/>
			<point x="358.5" y="649"/>
			<point x="410.5" y="652" type="curve" smooth="yes"/>
			<point x="420.5" y="653"/>
			<point x="430.5" y="654"/>
			<point x="430.5" y="671" type="curve" smooth="yes"/>
			<point x="430.5" y="683"/>
			<point x="418.5" y="683"/>
			<point x="415.5" y="683" type="curve" smooth="yes"/>
			<point x="394.67446" y="683"/>
			<point x="373.5" y="683"/>
			<point x="351.8685119363" y="681.4642730034" type="curve" smooth="yes"/>
			<point x="321.5" y="680"/>
			<point x="299.404" y="679.27996"/>
			<point x="247.3907605173" y="681.0252491472" type="curve" smooth="yes"/>
			<point x="221.4959022452" y="681.8941430612"/>
			<point x="192.6785" y="683"/>
			<point x="177.5" y="683" type="curve" smooth="yes"/>
			<point x="171.5" y="683"/>
			<point x="159.5" y="683"/>
			<point x="159.5" y="663" type="curve" smooth="yes"/>
			<point x="159.5" y="652"/>
			<point x="169.5" y="652"/>
			<point x="182.5" y="652" type="curve" smooth="yes"/>
			<point x="242.5" y="652"/>
			<point x="248.5" y="642"/>
			<point x="257.5" y="620" type="curve" smooth="yes"/>
			<point x="296.794" y="527.093"/>
			<point x="336.088" y="434.186"/>
			<point x="375.5" y="341" type="curve"/>
			<point x="300.908" y="261.746"/>
			<point x="226.316" y="182.492"/>
			<point x="151.5" y="103" type="curve" smooth="yes"/>
			<point x="102.5" y="50"/>
			<point x="55.5" y="34"/>
			<point x="4.5" y="31" type="curve" smooth="yes"/>
			<point x="-8.5" y="30"/>
			<point x="-17.5" y="30"/>
			<point x="-17.5" y="11" type="curve" smooth="yes"/>
			<point x="-17.5" y="10"/>
			<point x="-17.5" y="0"/>
			<point x="-4.5" y="0" type="curve" smooth="yes"/>
			<point x="25.5" y="0"/>
			<point x="58.5" y="3"/>
			<point x="89.5" y="3" type="curve" smooth="yes"/>
			<point x="126.5" y="3"/>
			<point x="165.5" y="0"/>
			<point x="201.5" y="0" type="curve" smooth="yes"/>
			<point x="207.5" y="0"/>
			<point x="219.5" y="0"/>
			<point x="219.5" y="20" type="curve" smooth="yes"/>
			<point x="219.5" y="30"/>
			<point x="209.5" y="31"/>
			<point x="207.5" y="31" type="curve" smooth="yes"/>
			<point x="198.5" y="31"/>
			<point x="167.5" y="34"/>
			<point x="167.5" y="62" type="curve" smooth="yes"/>
			<point x="167.5" y="78"/>
			<point x="182.5" y="94"/>
			<point x="194.5" y="107" type="curve" smooth="yes"/>
			<point x="258.436" y="175.598"/>
			<point x="322.372" y="244.196"/>
			<point x="386.5" y="313" type="curve"/>
			<point x="487.5" y="74" type="line" smooth="yes"/>
			<point x="491.5" y="65"/>
			<point x="492.5" y="62"/>
			<point x="492.5" y="59" type="curve" smooth="yes"/>
			<point x="492.5" y="50"/>
			<point x="473.5" y="35"/>
			<point x="434.5" y="31" type="curve" smooth="yes"/>
			<point x="423.5" y="30"/>
			<point x="414.5" y="29"/>
			<point x="414.5" y="12" type="curve" smooth="yes"/>
			<point x="414.5" y="0"/>
			<point x="425.5" y="0"/>
			<point x="429.5" y="0" type="curve" smooth="yes"/>
			<point x="445.5" y="0"/>
			<point x="476.5" y="1"/>
			<point x="503.5" y="2" type="curve" smooth="yes"/>
			<point x="545.5" y="3"/>
			<point x="555.5" y="3"/>
			<point x="599.5" y="2" type="curve" smooth="yes"/>
			<point x="621.5" y="1"/>
			<point x="653.5" y="0"/>
			<point x="666.5" y="0" type="curve" smooth="yes"/>
			<point x="673.5" y="0"/>
			<point x="685.5" y="0"/>
			<point x="685.5" y="19" type="curve" smooth="yes"/>
			<point x="685.5" y="31"/>
			<point x="675.5" y="31"/>
			<point x="667.5" y="31" type="curve" smooth="yes"/>
			<point x="600.5" y="32"/>
			<point x="598.5" y="35"/>
			<point x="581.5" y="75" type="curve" smooth="yes"/>
			<point x="542.5" y="168"/>
			<point x="475.5" y="324"/>
		</contour>
	</outline>
</glyph>
<glyph name="Y" format="2">
  <advance width="580"/>
  <unicode hex="0059"/>
  <outline>
    <contour>
      <point x="338.87910170524026" y="314.0" type="line"/>
      <point x="228.87910170524026" y="611.0" type="line" smooth="yes"/>
      <point x="223.87910170524026" y="623.0"/>
      <point x="222.87910170524026" y="629.0"/>
      <point x="222.87910170524026" y="630.0" type="curve" smooth="yes"/>
      <point x="222.87910170524026" y="654.0"/>
      <point x="271.87910170524026" y="652.0"/>
      <point x="281.87910170524026" y="652.0" type="curve" smooth="yes"/>
      <point x="295.87910170524026" y="652.0"/>
      <point x="305.87910170524026" y="652.0"/>
      <point x="305.87910170524026" y="672.0" type="curve" smooth="yes"/>
      <point x="305.87910170524026" y="683.0"/>
      <point x="293.87910170524026" y="683.0"/>
      <point x="290.87910170524026" y="683.0" type="curve" smooth="yes"/>
      <point x="274.2123817052403" y="683.0"/>
      <point x="242.66461408604027" y="681.9370680272"/>
      <point x="213.95138841734027" y="681.0766033366" type="curve" smooth="yes"/>
      <point x="174.87910170524026" y="680.0"/>
      <point x="155.87910170524026" y="680.0"/>
      <point x="115.85861051994027" y="681.2598573934" type="curve" smooth="yes"/>
      <point x="91.87910170524027" y="682.0"/>
      <point x="66.71835170524028" y="683.0"/>
      <point x="52.879101705240274" y="683.0" type="curve" smooth="yes"/>
      <point x="46.879101705240274" y="683.0"/>
      <point x="33.879101705240274" y="683.0"/>
      <point x="33.879101705240274" y="663.0" type="curve" smooth="yes"/>
      <point x="33.879101705240274" y="652.0"/>
      <point x="43.879101705240274" y="652.0"/>
      <point x="56.879101705240274" y="652.0" type="curve" smooth="yes"/>
      <point x="116.87910170524027" y="652.0"/>
      <point x="120.87910170524027" y="643.0"/>
      <point x="129.87910170524026" y="618.0" type="curve" smooth="yes"/>
      <point x="252.87910170524026" y="289.0" type="line" smooth="yes"/>
      <point x="253.87910170524026" y="286.0"/>
      <point x="256.87910170524026" y="275.0"/>
      <point x="256.87910170524026" y="272.0" type="curve" smooth="yes"/>
      <point x="256.87910170524026" y="269.0"/>
      <point x="216.87910170524026" y="108.0"/>
      <point x="211.87910170524026" y="90.0" type="curve" smooth="yes"/>
      <point x="198.87910170524026" y="35.0"/>
      <point x="197.87910170524026" y="32.0"/>
      <point x="117.87910170524027" y="31.0" type="curve" smooth="yes"/>
      <point x="98.87910170524027" y="31.0"/>
      <point x="90.87910170524027" y="31.0"/>
      <point x="90.87910170524027" y="11.0" type="curve" smooth="yes"/>
      <point x="90.87910170524027" y="0.0"/>
      <point x="102.87910170524027" y="0.0"/>
      <point x="104.87910170524027" y="0.0" type="curve" smooth="yes"/>
      <point x="121.76786170524028" y="0.0"/>
      <point x="153.87910170524026" y="1.0"/>
      <point x="182.95284739714026" y="1.9576761208" type="curve" smooth="yes"/>
      <point x="226.87910170524026" y="3.0"/>
      <point x="251.61886170524028" y="2.79707"/>
      <point x="297.22176633404024" y="1.4297328662" type="curve" smooth="yes"/>
      <point x="321.4303663916403" y="0.7038719532"/>
      <point x="345.3164617052403" y="0.0"/>
      <point x="358.87910170524026" y="0.0" type="curve" smooth="yes"/>
      <point x="365.87910170524026" y="0.0"/>
      <point x="377.87910170524026" y="0.0"/>
      <point x="377.87910170524026" y="20.0" type="curve" smooth="yes"/>
      <point x="377.87910170524026" y="31.0"/>
      <point x="368.87910170524026" y="31.0"/>
      <point x="349.87910170524026" y="31.0" type="curve" smooth="yes"/>
      <point x="347.87910170524026" y="31.0"/>
      <point x="328.87910170524026" y="31.0"/>
      <point x="311.87910170524026" y="33.0" type="curve" smooth="yes"/>
      <point x="290.87910170524026" y="35.0"/>
      <point x="284.87910170524026" y="37.0"/>
      <point x="284.87910170524026" y="49.0" type="curve" smooth="yes"/>
      <point x="284.87910170524026" y="56.0"/>
      <point x="293.87910170524026" y="91.0"/>
      <point x="298.87910170524026" y="112.0" type="curve" smooth="yes"/>
      <point x="310.53410170524023" y="158.953"/>
      <point x="322.1891017052403" y="205.906"/>
      <point x="333.87910170524026" y="253.0" type="curve" smooth="yes"/>
      <point x="338.87910170524026" y="272.0"/>
      <point x="339.87910170524026" y="275.0"/>
      <point x="347.87910170524026" y="284.0" type="curve" smooth="yes"/>
      <point x="595.8791017052403" y="569.0" type="line" smooth="yes"/>
      <point x="600.8791017052403" y="574.0"/>
      <point x="605.8791017052403" y="579.0"/>
      <point x="610.8791017052403" y="584.0" type="curve" smooth="yes"/>
      <point x="640.8791017052403" y="614.0"/>
      <point x="672.8791017052403" y="647.0"/>
      <point x="740.8791017052403" y="652.0" type="curve" smooth="yes"/>
      <point x="751.8791017052403" y="653.0"/>
      <point x="760.8791017052403" y="653.0"/>
      <point x="760.8791017052403" y="671.0" type="curve" smooth="yes"/>
      <point x="760.8791017052403" y="679.0"/>
      <point x="755.8791017052403" y="683.0"/>
      <point x="747.8791017052403" y="683.0" type="curve" smooth="yes"/>
      <point x="721.8791017052403" y="683.0"/>
      <point x="692.8791017052403" y="680.0"/>
      <point x="665.8791017052403" y="680.0" type="curve" smooth="yes"/>
      <point x="632.8791017052403" y="680.0"/>
      <point x="597.8791017052403" y="683.0"/>
      <point x="565.8791017052403" y="683.0" type="curve" smooth="yes"/>
      <point x="559.8791017052403" y="683.0"/>
      <point x="546.8791017052403" y="683.0"/>
      <point x="546.8791017052403" y="664.0" type="curve" smooth="yes"/>
      <point x="546.8791017052403" y="653.0"/>
      <point x="556.8791017052403" y="652.0"/>
      <point x="561.8791017052403" y="652.0" type="curve" smooth="yes"/>
      <point x="568.8791017052403" y="652.0"/>
      <point x="597.8791017052403" y="650.0"/>
      <point x="597.8791017052403" y="629.0" type="curve" smooth="yes"/>
      <point x="597.8791017052403" y="612.0"/>
      <point x="574.8791017052403" y="586.0"/>
      <point x="570.8791017052403" y="581.0" type="curve" smooth="yes"/>
    </contour>
  </outline>
</glyph>
<glyph name="Z" format="2">
	<unicode hex="005A"/>
	<advance width="682"/>
	<outline>
		<contour>
			<point x="619.8791017052" y="652" type="line"/>
			<point x="60.8791017052" y="27" type="line"/>
			<point x="60.8791017052" y="26"/>
			<point x="56.8791017052" y="12"/>
			<point x="56.8791017052" y="9" type="curve" smooth="yes"/>
			<point x="56.8791017052" y="0"/>
			<point x="63.8791017052" y="0"/>
			<point x="81.8791017052" y="0" type="curve" smooth="yes"/>
			<point x="516.8791017052" y="0" type="line" smooth="yes"/>
			<point x="540.8791017052" y="0"/>
			<point x="541.8791017052" y="1"/>
			<point x="547.8791017052" y="20" type="curve" smooth="yes"/>
			<point x="618.8791017052" y="241" type="line"/>
			<point x="619.8791017052" y="245"/>
			<point x="622.8791017052" y="252"/>
			<point x="622.8791017052" y="256" type="curve" smooth="yes"/>
			<point x="622.8791017052" y="261"/>
			<point x="618.8791017052" y="267"/>
			<point x="609.8791017052" y="267" type="curve" smooth="yes"/>
			<point x="600.8791017052" y="267"/>
			<point x="599.8791017052" y="263"/>
			<point x="592.8791017052" y="242" type="curve" smooth="yes"/>
			<point x="548.8791017052" y="106"/>
			<point x="500.8791017052" y="34"/>
			<point x="330.8791017052" y="34" type="curve" smooth="yes"/>
			<point x="159.8791017052" y="34" type="line"/>
			<point x="718.8791017052" y="659" type="line"/>
			<point x="719.8791017052" y="663"/>
			<point x="721.8791017052" y="668"/>
			<point x="721.8791017052" y="674" type="curve" smooth="yes"/>
			<point x="721.8791017052" y="683"/>
			<point x="716.8791017052" y="683"/>
			<point x="696.8791017052" y="683" type="curve" smooth="yes"/>
			<point x="274.8791017052" y="683" type="line" smooth="yes"/>
			<point x="250.8791017052" y="683"/>
			<point x="249.8791017052" y="682"/>
			<point x="243.8791017052" y="663" type="curve" smooth="yes"/>
			<point x="188.8791017052" y="483" type="line"/>
			<point x="186.8791017052" y="478"/>
			<point x="185.8791017052" y="471"/>
			<point x="185.8791017052" y="469" type="curve" smooth="yes"/>
			<point x="185.8791017052" y="468"/>
			<point x="185.8791017052" y="458"/>
			<point x="197.8791017052" y="458" type="curve" smooth="yes"/>
			<point x="206.8791017052" y="458"/>
			<point x="208.8791017052" y="465"/>
			<point x="210.8791017052" y="468" type="curve"/>
			<point x="248.8791017052" y="586"/>
			<point x="300.8791017052" y="652"/>
			<point x="456.8791017052" y="652" type="curve" smooth="yes"/>
		</contour>
	</outline>
</glyph>
<glyph name="a" format="2">
	<unicode hex="0061"/>
	<advance width="528"/>
	<outline>
		<contour>
			<point x="-4.5" y="149" type="curve" smooth="yes"/>
			<point x="-4.5" y="55"/>
			<point x="50.5" y="-11"/>
			<point x="128.5" y="-11" type="curve" smooth="yes"/>
			<point x="148.5" y="-11"/>
			<point x="198.5" y="-7"/>
			<point x="258.5" y="64" type="curve"/>
			<point x="266.5" y="22"/>
			<point x="301.5" y="-11"/>
			<point x="349.5" y="-11" type="curve" smooth="yes"/>
			<point x="384.5" y="-11"/>
			<point x="407.5" y="12"/>
			<point x="423.5" y="44" type="curve" smooth="yes"/>
			<point x="440.5" y="80"/>
			<point x="453.5" y="141"/>
			<point x="453.5" y="143" type="curve" smooth="yes"/>
			<point x="453.5" y="153"/>
			<point x="444.5" y="153"/>
			<point x="441.5" y="153" type="curve" smooth="yes"/>
			<point x="431.5" y="153"/>
			<point x="430.5" y="149"/>
			<point x="427.5" y="135" type="curve" smooth="yes"/>
			<point x="410.5" y="70"/>
			<point x="392.5" y="11"/>
			<point x="351.5" y="11" type="curve" smooth="yes"/>
			<point x="324.5" y="11"/>
			<point x="321.5" y="37"/>
			<point x="321.5" y="57" type="curve" smooth="yes"/>
			<point x="321.5" y="74"/>
			<point x="323.5" y="87"/>
			<point x="334.5" y="131" type="curve" smooth="yes"/>
			<point x="345.5" y="173"/>
			<point x="373.5" y="285"/>
			<point x="392.5" y="361" type="curve" smooth="yes"/>
			<point x="399.5" y="389"/>
			<point x="399.5" y="391"/>
			<point x="399.5" y="395" type="curve" smooth="yes"/>
			<point x="399.5" y="412"/>
			<point x="387.5" y="422"/>
			<point x="370.5" y="422" type="curve" smooth="yes"/>
			<point x="346.5" y="422"/>
			<point x="331.5" y="400"/>
			<point x="328.5" y="378" type="curve"/>
			<point x="310.5" y="415"/>
			<point x="281.5" y="442"/>
			<point x="236.5" y="442" type="curve" smooth="yes"/>
			<point x="119.5" y="442"/>
			<point x="-4.5" y="295"/>
		</contour>
		<contour>
			<point x="66.5" y="105" type="curve" smooth="yes"/>
			<point x="66.5" y="155"/>
			<point x="98.5" y="278"/>
			<point x="121.5" y="324" type="curve" smooth="yes"/>
			<point x="152.5" y="383"/>
			<point x="197.5" y="420"/>
			<point x="237.5" y="420" type="curve" smooth="yes"/>
			<point x="302.5" y="420"/>
			<point x="316.5" y="338"/>
			<point x="316.5" y="332" type="curve" smooth="yes"/>
			<point x="316.5" y="326"/>
			<point x="314.5" y="320"/>
			<point x="313.5" y="315" type="curve"/>
			<point x="296.85" y="249.732"/>
			<point x="280.2" y="184.464"/>
			<point x="263.5" y="119" type="curve" smooth="yes"/>
			<point x="258.5" y="101"/>
			<point x="258.5" y="99"/>
			<point x="243.5" y="82" type="curve" smooth="yes"/>
			<point x="199.5" y="27"/>
			<point x="158.5" y="11"/>
			<point x="130.5" y="11" type="curve" smooth="yes"/>
			<point x="80.5" y="11"/>
			<point x="66.5" y="66"/>
		</contour>
	</outline>
</glyph>
<glyph name="b" format="2">
	<unicode hex="0062"/>
	<advance width="858"/>
	<outline>
		<contour>
			<point x="259" y="-22" type="curve" smooth="yes"/>
			<point x="495" y="-22"/>
			<point x="741" y="276"/>
			<point x="741" y="564" type="curve" smooth="yes"/>
			<point x="741" y="746"/>
			<point x="635" y="884"/>
			<point x="475" y="884" type="curve" smooth="yes"/>
			<point x="383" y="884"/>
			<point x="301" y="826"/>
			<point x="241" y="764" type="curve"/>
			<point x="389" y="1366" type="line"/>
			<point x="389" y="1366"/>
			<point x="389" y="1366"/>
			<point x="389" y="1366" type="curve"/>
			<point x="389" y="1368"/>
			<point x="389" y="1388"/>
			<point x="363" y="1388" type="curve" smooth="yes"/>
			<point x="317" y="1388"/>
			<point x="171" y="1372"/>
			<point x="119" y="1368" type="curve" smooth="yes"/>
			<point x="103" y="1366"/>
			<point x="81" y="1364"/>
			<point x="81" y="1328" type="curve" smooth="yes"/>
			<point x="81" y="1304"/>
			<point x="99" y="1304"/>
			<point x="129" y="1304" type="curve" smooth="yes"/>
			<point x="225" y="1304"/>
			<point x="229" y="1290"/>
			<point x="229" y="1270" type="curve" smooth="yes"/>
			<point x="229" y="1256"/>
			<point x="211" y="1188"/>
			<point x="201" y="1146" type="curve" smooth="yes"/>
			<point x="146" y="929"/>
			<point x="92" y="712"/>
			<point x="37" y="494" type="curve" smooth="yes"/>
			<point x="13" y="394"/>
			<point x="5" y="362"/>
			<point x="5" y="292" type="curve" smooth="yes"/>
			<point x="5" y="102"/>
			<point x="111" y="-22"/>
		</contour>
		<contour>
			<point x="259" y="22" type="curve" smooth="yes"/>
			<point x="191" y="22"/>
			<point x="125" y="76"/>
			<point x="125" y="224" type="curve" smooth="yes"/>
			<point x="125" y="262"/>
			<point x="125" y="300"/>
			<point x="157" y="426" type="curve" smooth="yes"/>
			<point x="172" y="487"/>
			<point x="186" y="549"/>
			<point x="201" y="610" type="curve" smooth="yes"/>
			<point x="213" y="654"/>
			<point x="213" y="658"/>
			<point x="231" y="680" type="curve" smooth="yes"/>
			<point x="329" y="810"/>
			<point x="419" y="840"/>
			<point x="471" y="840" type="curve" smooth="yes"/>
			<point x="543" y="840"/>
			<point x="597" y="780"/>
			<point x="597" y="652" type="curve" smooth="yes"/>
			<point x="597" y="534"/>
			<point x="531" y="304"/>
			<point x="495" y="228" type="curve" smooth="yes"/>
			<point x="429" y="94"/>
			<point x="337" y="22"/>
		</contour>
	</outline>
</glyph>
<glyph name="c" format="2">
	<unicode hex="0063"/>
	<advance width="864"/>
	<outline>
		<contour>
			<point x="-7" y="316" type="curve" smooth="yes"/>
			<point x="-7" y="136"/>
			<point x="109" y="-22"/>
			<point x="317" y="-22" type="curve" smooth="yes"/>
			<point x="428" y="-22"/>
			<point x="521" y="10"/>
			<point x="594" y="50" type="curve" smooth="yes"/>
			<point x="708" y="114"/>
			<point x="771" y="199"/>
			<point x="771" y="214" type="curve" smooth="yes"/>
			<point x="771" y="226"/>
			<point x="759" y="240"/>
			<point x="747" y="240" type="curve" smooth="yes"/>
			<point x="737" y="240"/>
			<point x="733" y="236"/>
			<point x="721" y="220" type="curve" smooth="yes"/>
			<point x="563" y="22"/>
			<point x="345" y="22"/>
			<point x="321" y="22" type="curve" smooth="yes"/>
			<point x="195" y="22"/>
			<point x="141" y="120"/>
			<point x="141" y="240" type="curve" smooth="yes"/>
			<point x="141" y="322"/>
			<point x="181" y="516"/>
			<point x="249" y="640" type="curve" smooth="yes"/>
			<point x="311" y="754"/>
			<point x="421" y="840"/>
			<point x="531" y="840" type="curve" smooth="yes"/>
			<point x="599" y="840"/>
			<point x="675" y="814"/>
			<point x="703" y="760" type="curve"/>
			<point x="671" y="760"/>
			<point x="643" y="760"/>
			<point x="615" y="732" type="curve" smooth="yes"/>
			<point x="583" y="702"/>
			<point x="579" y="668"/>
			<point x="579" y="654" type="curve" smooth="yes"/>
			<point x="579" y="606"/>
			<point x="615" y="584"/>
			<point x="653" y="584" type="curve" smooth="yes"/>
			<point x="711" y="584"/>
			<point x="765" y="632"/>
			<point x="765" y="712" type="curve" smooth="yes"/>
			<point x="765" y="810"/>
			<point x="671" y="884"/>
			<point x="529" y="884" type="curve" smooth="yes"/>
			<point x="259" y="884"/>
			<point x="-7" y="598"/>
		</contour>
	</outline>
</glyph>
<glyph name="d" format="2">
  <advance width="520"/>
  <unicode hex="0064"/>
  <outline>
    <contour>
      <point x="171.87910170524026" y="-11.0" type="curve" smooth="yes"/>
      <point x="191.87910170524026" y="-11.0"/>
      <point x="241.87910170524026" y="-7.0"/>
      <point x="301.87910170524026" y="64.0" type="curve"/>
      <point x="309.87910170524026" y="22.0"/>
      <point x="344.87910170524026" y="-11.0"/>
      <point x="392.87910170524026" y="-11.0" type="curve" smooth="yes"/>
      <point x="427.87910170524026" y="-11.0"/>
      <point x="450.87910170524026" y="12.0"/>
      <point x="466.87910170524026" y="44.0" type="curve" smooth="yes"/>
      <point x="483.87910170524026" y="80.0"/>
      <point x="496.87910170524026" y="141.0"/>
      <point x="496.87910170524026" y="143.0" type="curve" smooth="yes"/>
      <point x="496.87910170524026" y="153.0"/>
      <point x="487.87910170524026" y="153.0"/>
      <point x="484.87910170524026" y="153.0" type="curve" smooth="yes"/>
      <point x="474.87910170524026" y="153.0"/>
      <point x="473.87910170524026" y="149.0"/>
      <point x="470.87910170524026" y="135.0" type="curve" smooth="yes"/>
      <point x="453.87910170524026" y="70.0"/>
      <point x="435.87910170524026" y="11.0"/>
      <point x="394.87910170524026" y="11.0" type="curve" smooth="yes"/>
      <point x="367.87910170524026" y="11.0"/>
      <point x="364.87910170524026" y="37.0"/>
      <point x="364.87910170524026" y="57.0" type="curve" smooth="yes"/>
      <point x="364.87910170524026" y="81.0"/>
      <point x="366.87910170524026" y="88.0"/>
      <point x="370.87910170524026" y="105.0" type="curve" smooth="yes"/>
      <point x="514.8791017052403" y="683.0" type="line"/>
      <point x="514.8791017052403" y="683.0"/>
      <point x="514.8791017052403" y="683.0"/>
      <point x="514.8791017052403" y="683.0" type="curve"/>
      <point x="514.8791017052403" y="684.0"/>
      <point x="514.8791017052403" y="694.0"/>
      <point x="501.87910170524026" y="694.0" type="curve" smooth="yes"/>
      <point x="486.87910170524026" y="694.0"/>
      <point x="391.87910170524026" y="685.0"/>
      <point x="374.87910170524026" y="683.0" type="curve" smooth="yes"/>
      <point x="366.87910170524026" y="682.0"/>
      <point x="360.87910170524026" y="677.0"/>
      <point x="360.87910170524026" y="664.0" type="curve" smooth="yes"/>
      <point x="360.87910170524026" y="652.0"/>
      <point x="369.87910170524026" y="652.0"/>
      <point x="384.87910170524026" y="652.0" type="curve" smooth="yes"/>
      <point x="432.87910170524026" y="652.0"/>
      <point x="434.87910170524026" y="645.0"/>
      <point x="434.87910170524026" y="635.0" type="curve"/>
      <point x="433.88010170524024" y="628.34"/>
      <point x="432.8811017052403" y="621.68"/>
      <point x="431.87910170524026" y="615.0" type="curve"/>
      <point x="411.89910170524024" y="536.079"/>
      <point x="391.9191017052402" y="457.158"/>
      <point x="371.87910170524026" y="378.0" type="curve"/>
      <point x="353.87910170524026" y="415.0"/>
      <point x="324.87910170524026" y="442.0"/>
      <point x="279.87910170524026" y="442.0" type="curve" smooth="yes"/>
      <point x="162.87910170524026" y="442.0"/>
      <point x="38.879101705240274" y="295.0"/>
      <point x="38.879101705240274" y="149.0" type="curve" smooth="yes"/>
      <point x="38.879101705240274" y="55.0"/>
      <point x="93.87910170524027" y="-11.0"/>
    </contour>
    <contour>
      <point x="173.87910170524026" y="11.0" type="curve" smooth="yes"/>
      <point x="123.87910170524027" y="11.0"/>
      <point x="109.87910170524027" y="66.0"/>
      <point x="109.87910170524027" y="105.0" type="curve" smooth="yes"/>
      <point x="109.87910170524027" y="155.0"/>
      <point x="141.87910170524026" y="278.0"/>
      <point x="164.87910170524026" y="324.0" type="curve" smooth="yes"/>
      <point x="195.87910170524026" y="383.0"/>
      <point x="240.87910170524026" y="420.0"/>
      <point x="280.87910170524026" y="420.0" type="curve" smooth="yes"/>
      <point x="345.87910170524026" y="420.0"/>
      <point x="359.87910170524026" y="338.0"/>
      <point x="359.87910170524026" y="332.0" type="curve" smooth="yes"/>
      <point x="359.87910170524026" y="326.0"/>
      <point x="357.87910170524026" y="320.0"/>
      <point x="356.87910170524026" y="315.0" type="curve"/>
      <point x="340.2291017052403" y="249.732"/>
      <point x="323.5791017052403" y="184.464"/>
      <point x="306.87910170524026" y="119.0" type="curve" smooth="yes"/>
      <point x="301.87910170524026" y="101.0"/>
      <point x="301.87910170524026" y="99.0"/>
      <point x="286.87910170524026" y="82.0" type="curve" smooth="yes"/>
      <point x="242.87910170524026" y="27.0"/>
      <point x="201.87910170524026" y="11.0"/>
    </contour>
  </outline>
</glyph>
<glyph name="e" format="2">
	<unicode hex="0065"/>
	<advance width="465"/>
	<outline>
		<contour>
			<point x="1.5" y="170" type="curve" smooth="yes"/>
			<point x="1.5" y="68"/>
			<point x="60.5" y="-11"/>
			<point x="158.5" y="-11" type="curve" smooth="yes"/>
			<point x="213.30618" y="-11"/>
			<point x="259.4459545716" y="4.5701521256"/>
			<point x="295.5119141621" y="24.4511799548" type="curve" smooth="yes"/>
			<point x="353.5490688816" y="56.4436266056"/>
			<point x="385.5" y="99.59912"/>
			<point x="385.5" y="107" type="curve" smooth="yes"/>
			<point x="385.5" y="113"/>
			<point x="379.5" y="120"/>
			<point x="373.5" y="120" type="curve" smooth="yes"/>
			<point x="368.5" y="120"/>
			<point x="366.5" y="118"/>
			<point x="360.5" y="110" type="curve" smooth="yes"/>
			<point x="281.5" y="11"/>
			<point x="172.5" y="11"/>
			<point x="160.5" y="11" type="curve" smooth="yes"/>
			<point x="82.5" y="11"/>
			<point x="73.5" y="95"/>
			<point x="73.5" y="127" type="curve" smooth="yes"/>
			<point x="73.5" y="139"/>
			<point x="74.5" y="170"/>
			<point x="89.5" y="231" type="curve"/>
			<point x="107.149" y="231"/>
			<point x="124.798" y="231"/>
			<point x="142.5" y="231" type="curve" smooth="yes"/>
			<point x="171.5" y="231"/>
			<point x="245.5" y="233"/>
			<point x="295.5" y="254" type="curve" smooth="yes"/>
			<point x="365.5" y="284"/>
			<point x="370.5" y="343"/>
			<point x="370.5" y="357" type="curve" smooth="yes"/>
			<point x="370.5" y="401"/>
			<point x="332.5" y="442"/>
			<point x="263.5" y="442" type="curve" smooth="yes"/>
			<point x="152.5" y="442"/>
			<point x="1.5" y="345"/>
		</contour>
		<contour>
			<point x="95.5" y="253" type="curve"/>
			<point x="134.5" y="405"/>
			<point x="237.5" y="420"/>
			<point x="263.5" y="420" type="curve" smooth="yes"/>
			<point x="310.5" y="420"/>
			<point x="337.5" y="391"/>
			<point x="337.5" y="357" type="curve" smooth="yes"/>
			<point x="337.5" y="253"/>
			<point x="177.5" y="253"/>
			<point x="136.5" y="253" type="curve" smooth="yes"/>
			<point x="122.847" y="253"/>
			<point x="109.194" y="253"/>
		</contour>
	</outline>
</glyph>
<glyph name="f" format="2">
	<unicode hex="0066"/>
	<advance width="489"/>
	<outline>
		<contour>
			<point x="365.8791017052" y="400" type="curve"/>
			<point x="451.8791017052" y="400" type="line" smooth="yes"/>
			<point x="471.8791017052" y="400"/>
			<point x="481.8791017052" y="400"/>
			<point x="481.8791017052" y="420" type="curve" smooth="yes"/>
			<point x="481.8791017052" y="431"/>
			<point x="471.8791017052" y="431"/>
			<point x="454.8791017052" y="431" type="curve" smooth="yes"/>
			<point x="371.8791017052" y="431" type="line"/>
			<point x="378.8721017052" y="468.962"/>
			<point x="385.8651017052" y="506.924"/>
			<point x="392.8791017052" y="545" type="curve" smooth="yes"/>
			<point x="396.8791017052" y="566"/>
			<point x="410.8791017052" y="637"/>
			<point x="416.8791017052" y="649" type="curve" smooth="yes"/>
			<point x="425.8791017052" y="668"/>
			<point x="442.8791017052" y="683"/>
			<point x="463.8791017052" y="683" type="curve" smooth="yes"/>
			<point x="467.8791017052" y="683"/>
			<point x="493.8791017052" y="683"/>
			<point x="512.8791017052" y="665" type="curve"/>
			<point x="468.8791017052" y="661"/>
			<point x="458.8791017052" y="626"/>
			<point x="458.8791017052" y="611" type="curve" smooth="yes"/>
			<point x="458.8791017052" y="588"/>
			<point x="476.8791017052" y="576"/>
			<point x="495.8791017052" y="576" type="curve" smooth="yes"/>
			<point x="521.8791017052" y="576"/>
			<point x="550.8791017052" y="598"/>
			<point x="550.8791017052" y="636" type="curve" smooth="yes"/>
			<point x="550.8791017052" y="682"/>
			<point x="504.8791017052" y="705"/>
			<point x="463.8791017052" y="705" type="curve" smooth="yes"/>
			<point x="429.8791017052" y="705"/>
			<point x="366.8791017052" y="687"/>
			<point x="336.8791017052" y="588" type="curve" smooth="yes"/>
			<point x="330.8791017052" y="567"/>
			<point x="327.8791017052" y="557"/>
			<point x="303.8791017052" y="431" type="curve"/>
			<point x="234.8791017052" y="431" type="line" smooth="yes"/>
			<point x="215.8791017052" y="431"/>
			<point x="204.8791017052" y="431"/>
			<point x="204.8791017052" y="412" type="curve" smooth="yes"/>
			<point x="204.8791017052" y="400"/>
			<point x="213.8791017052" y="400"/>
			<point x="232.8791017052" y="400" type="curve" smooth="yes"/>
			<point x="298.8791017052" y="400" type="line"/>
			<point x="287.8901017052" y="342.058"/>
			<point x="276.9011017052" y="284.116"/>
			<point x="265.8791017052" y="226" type="curve"/>
			<point x="251.8931017052" y="152.407"/>
			<point x="237.9071017052" y="78.814"/>
			<point x="223.8791017052" y="5" type="curve" smooth="yes"/>
			<point x="205.8791017052" y="-92"/>
			<point x="188.8791017052" y="-183"/>
			<point x="136.8791017052" y="-183" type="curve" smooth="yes"/>
			<point x="132.8791017052" y="-183"/>
			<point x="107.8791017052" y="-183"/>
			<point x="88.8791017052" y="-165" type="curve"/>
			<point x="134.8791017052" y="-162"/>
			<point x="143.8791017052" y="-126"/>
			<point x="143.8791017052" y="-111" type="curve" smooth="yes"/>
			<point x="143.8791017052" y="-88"/>
			<point x="125.8791017052" y="-76"/>
			<point x="106.8791017052" y="-76" type="curve" smooth="yes"/>
			<point x="80.8791017052" y="-76"/>
			<point x="51.8791017052" y="-98"/>
			<point x="51.8791017052" y="-136" type="curve" smooth="yes"/>
			<point x="51.8791017052" y="-181"/>
			<point x="95.8791017052" y="-205"/>
			<point x="136.8791017052" y="-205" type="curve" smooth="yes"/>
			<point x="191.8791017052" y="-205"/>
			<point x="231.8791017052" y="-146"/>
			<point x="249.8791017052" y="-108" type="curve" smooth="yes"/>
			<point x="281.8791017052" y="-45"/>
			<point x="304.8791017052" y="76"/>
			<point x="305.8791017052" y="83" type="curve" smooth="yes"/>
			<point x="325.8591017052" y="188.561"/>
			<point x="345.8391017052" y="294.122"/>
		</contour>
	</outline>
</glyph>
<glyph name="g" format="2">
  <advance width="476"/>
  <unicode hex="0067"/>
  <outline>
    <contour>
      <point x="71.87910170524027" y="158.0" type="curve" smooth="yes"/>
      <point x="71.87910170524027" y="59.0"/>
      <point x="132.87910170524026" y="0.0"/>
      <point x="204.87910170524026" y="0.0" type="curve" smooth="yes"/>
      <point x="263.87910170524026" y="0.0"/>
      <point x="310.87910170524026" y="47.0"/>
      <point x="320.87910170524026" y="58.0" type="curve"/>
      <point x="321.87910170524026" y="57.0" type="line"/>
      <point x="302.87910170524026" y="-22.0"/>
      <point x="294.87910170524026" y="-54.0"/>
      <point x="290.87910170524026" y="-68.0" type="curve" smooth="yes"/>
      <point x="289.1941817052402" y="-74.73968"/>
      <point x="276.7843190588403" y="-110.1843535536"/>
      <point x="247.44879354324027" y="-139.9643142826" type="curve" smooth="yes"/>
      <point x="224.55241692284028" y="-163.2075725712"/>
      <point x="191.34526170524026" y="-183.0"/>
      <point x="144.87910170524026" y="-183.0" type="curve" smooth="yes"/>
      <point x="125.87910170524027" y="-183.0"/>
      <point x="92.87910170524027" y="-182.0"/>
      <point x="64.87910170524027" y="-173.0" type="curve"/>
      <point x="94.87910170524027" y="-164.0"/>
      <point x="105.87910170524027" y="-138.0"/>
      <point x="105.87910170524027" y="-121.0" type="curve" smooth="yes"/>
      <point x="105.87910170524027" y="-105.0"/>
      <point x="94.87910170524027" y="-86.0"/>
      <point x="67.87910170524027" y="-86.0" type="curve" smooth="yes"/>
      <point x="45.879101705240274" y="-86.0"/>
      <point x="13.879101705240274" y="-104.0"/>
      <point x="13.879101705240274" y="-144.0" type="curve" smooth="yes"/>
      <point x="13.879101705240274" y="-185.0"/>
      <point x="50.879101705240274" y="-205.0"/>
      <point x="146.87910170524026" y="-205.0" type="curve" smooth="yes"/>
      <point x="271.87910170524026" y="-205.0"/>
      <point x="343.87910170524026" y="-127.0"/>
      <point x="358.87910170524026" y="-67.0" type="curve" smooth="yes"/>
      <point x="469.87910170524026" y="377.0" type="line" smooth="yes"/>
      <point x="470.87910170524026" y="382.0"/>
      <point x="472.87910170524026" y="388.0"/>
      <point x="472.87910170524026" y="395.0" type="curve" smooth="yes"/>
      <point x="472.87910170524026" y="412.0"/>
      <point x="460.87910170524026" y="422.0"/>
      <point x="443.87910170524026" y="422.0" type="curve" smooth="yes"/>
      <point x="433.87910170524026" y="422.0"/>
      <point x="406.87910170524026" y="415.0"/>
      <point x="402.87910170524026" y="379.0" type="curve"/>
      <point x="384.87910170524026" y="416.0"/>
      <point x="349.87910170524026" y="442.0"/>
      <point x="309.87910170524026" y="442.0" type="curve" smooth="yes"/>
      <point x="195.87910170524026" y="442.0"/>
      <point x="71.87910170524027" y="302.0"/>
    </contour>
    <contour>
      <point x="339.87910170524026" y="128.0" type="line" smooth="yes"/>
      <point x="333.87910170524026" y="102.0"/>
      <point x="310.87910170524026" y="77.0"/>
      <point x="288.87910170524026" y="58.0" type="curve" smooth="yes"/>
      <point x="267.87910170524026" y="40.0"/>
      <point x="236.87910170524026" y="22.0"/>
      <point x="207.87910170524026" y="22.0" type="curve" smooth="yes"/>
      <point x="157.87910170524026" y="22.0"/>
      <point x="142.87910170524026" y="74.0"/>
      <point x="142.87910170524026" y="114.0" type="curve" smooth="yes"/>
      <point x="142.87910170524026" y="162.0"/>
      <point x="171.87910170524026" y="280.0"/>
      <point x="198.87910170524026" y="331.0" type="curve" smooth="yes"/>
      <point x="225.87910170524026" y="380.0"/>
      <point x="268.87910170524026" y="420.0"/>
      <point x="310.87910170524026" y="420.0" type="curve" smooth="yes"/>
      <point x="376.87910170524026" y="420.0"/>
      <point x="390.87910170524026" y="339.0"/>
      <point x="390.87910170524026" y="334.0" type="curve" smooth="yes"/>
      <point x="390.87910170524026" y="329.0"/>
      <point x="388.87910170524026" y="323.0"/>
      <point x="387.87910170524026" y="319.0" type="curve" smooth="yes"/>
    </contour>
  </outline>
</glyph>
<glyph name="h" format="2">
	<unicode hex="0068"/>
	<advance width="576"/>
	<outline>
		<contour>
			<point x="312.5" y="442" type="curve" smooth="yes"/>
			<point x="249.5" y="442"/>
			<point x="201.5" y="411"/>
			<point x="164.5" y="365" type="curve"/>
			<point x="242.5" y="683" type="line"/>
			<point x="242.5" y="683"/>
			<point x="242.5" y="683"/>
			<point x="242.5" y="683" type="curve"/>
			<point x="242.5" y="684"/>
			<point x="242.5" y="694"/>
			<point x="229.5" y="694" type="curve" smooth="yes"/>
			<point x="206.5" y="694"/>
			<point x="133.5" y="686"/>
			<point x="107.5" y="684" type="curve" smooth="yes"/>
			<point x="99.5" y="683"/>
			<point x="88.5" y="682"/>
			<point x="88.5" y="664" type="curve" smooth="yes"/>
			<point x="88.5" y="652"/>
			<point x="97.5" y="652"/>
			<point x="112.5" y="652" type="curve" smooth="yes"/>
			<point x="160.5" y="652"/>
			<point x="162.5" y="645"/>
			<point x="162.5" y="635" type="curve"/>
			<point x="161.501" y="628.34"/>
			<point x="160.502" y="621.68"/>
			<point x="159.5" y="615" type="curve"/>
			<point x="14.5" y="39" type="line" smooth="yes"/>
			<point x="10.5" y="25"/>
			<point x="10.5" y="23"/>
			<point x="10.5" y="17" type="curve" smooth="yes"/>
			<point x="10.5" y="-6"/>
			<point x="30.5" y="-11"/>
			<point x="39.5" y="-11" type="curve" smooth="yes"/>
			<point x="55.5" y="-11"/>
			<point x="71.5" y="1"/>
			<point x="76.5" y="15" type="curve"/>
			<point x="82.827" y="40.308"/>
			<point x="89.154" y="65.616"/>
			<point x="95.5" y="91" type="curve" smooth="yes"/>
			<point x="123.5" y="203"/>
			<point x="129.5" y="225"/>
			<point x="134.5" y="248" type="curve"/>
			<point x="136.5" y="254"/>
			<point x="144.5" y="287"/>
			<point x="145.5" y="293" type="curve"/>
			<point x="154.5" y="310"/>
			<point x="203.5" y="420"/>
			<point x="309.5" y="420" type="curve" smooth="yes"/>
			<point x="352.5" y="420"/>
			<point x="363.5" y="386"/>
			<point x="363.5" y="350" type="curve" smooth="yes"/>
			<point x="363.5" y="296"/>
			<point x="325.5" y="187"/>
			<point x="301.5" y="126" type="curve" smooth="yes"/>
			<point x="293.5" y="103"/>
			<point x="288.5" y="91"/>
			<point x="288.5" y="71" type="curve" smooth="yes"/>
			<point x="288.5" y="24"/>
			<point x="323.5" y="-11"/>
			<point x="370.5" y="-11" type="curve" smooth="yes"/>
			<point x="464.5" y="-11"/>
			<point x="501.5" y="135"/>
			<point x="501.5" y="143" type="curve" smooth="yes"/>
			<point x="501.5" y="153"/>
			<point x="492.5" y="153"/>
			<point x="489.5" y="153" type="curve" smooth="yes"/>
			<point x="479.5" y="153"/>
			<point x="479.5" y="150"/>
			<point x="474.5" y="135" type="curve" smooth="yes"/>
			<point x="459.5" y="82"/>
			<point x="427.5" y="11"/>
			<point x="372.5" y="11" type="curve" smooth="yes"/>
			<point x="355.5" y="11"/>
			<point x="348.5" y="21"/>
			<point x="348.5" y="44" type="curve" smooth="yes"/>
			<point x="348.5" y="69"/>
			<point x="357.5" y="93"/>
			<point x="366.5" y="115" type="curve" smooth="yes"/>
			<point x="382.5" y="158"/>
			<point x="427.5" y="277"/>
			<point x="427.5" y="335" type="curve" smooth="yes"/>
			<point x="427.5" y="400"/>
			<point x="387.5" y="442"/>
		</contour>
	</outline>
</glyph>
<glyph name="i" format="2">
	<unicode hex="0069"/>
	<advance width="344"/>
	<outline>
		<contour>
			<point x="282.8791017052" y="625" type="curve" smooth="yes"/>
			<point x="282.8791017052" y="645"/>
			<point x="268.8791017052" y="661"/>
			<point x="245.8791017052" y="661" type="curve" smooth="yes"/>
			<point x="218.8791017052" y="661"/>
			<point x="191.8791017052" y="635"/>
			<point x="191.8791017052" y="608" type="curve" smooth="yes"/>
			<point x="191.8791017052" y="589"/>
			<point x="205.8791017052" y="572"/>
			<point x="229.8791017052" y="572" type="curve" smooth="yes"/>
			<point x="252.8791017052" y="572"/>
			<point x="282.8791017052" y="595"/>
		</contour>
		<contour>
			<point x="78.8791017052" y="71" type="curve" smooth="yes"/>
			<point x="78.8791017052" y="24"/>
			<point x="112.8791017052" y="-11"/>
			<point x="160.8791017052" y="-11" type="curve" smooth="yes"/>
			<point x="254.8791017052" y="-11"/>
			<point x="291.8791017052" y="134"/>
			<point x="291.8791017052" y="143" type="curve" smooth="yes"/>
			<point x="291.8791017052" y="153"/>
			<point x="282.8791017052" y="153"/>
			<point x="279.8791017052" y="153" type="curve" smooth="yes"/>
			<point x="269.8791017052" y="153"/>
			<point x="269.8791017052" y="150"/>
			<point x="264.8791017052" y="135" type="curve" smooth="yes"/>
			<point x="246.8791017052" y="72"/>
			<point x="213.8791017052" y="11"/>
			<point x="162.8791017052" y="11" type="curve" smooth="yes"/>
			<point x="145.8791017052" y="11"/>
			<point x="138.8791017052" y="21"/>
			<point x="138.8791017052" y="44" type="curve" smooth="yes"/>
			<point x="138.8791017052" y="69"/>
			<point x="144.8791017052" y="83"/>
			<point x="167.8791017052" y="144" type="curve" smooth="yes"/>
			<point x="217.8791017052" y="277"/>
			<point x="218.8791017052" y="280"/>
			<point x="228.8791017052" y="307" type="curve" smooth="yes"/>
			<point x="236.8791017052" y="327"/>
			<point x="241.8791017052" y="341"/>
			<point x="241.8791017052" y="360" type="curve" smooth="yes"/>
			<point x="241.8791017052" y="405"/>
			<point x="209.8791017052" y="442"/>
			<point x="159.8791017052" y="442" type="curve" smooth="yes"/>
			<point x="65.8791017052" y="442"/>
			<point x="27.8791017052" y="297"/>
			<point x="27.8791017052" y="288" type="curve" smooth="yes"/>
			<point x="27.8791017052" y="278"/>
			<point x="37.8791017052" y="278"/>
			<point x="39.8791017052" y="278" type="curve" smooth="yes"/>
			<point x="49.8791017052" y="278"/>
			<point x="50.8791017052" y="280"/>
			<point x="55.8791017052" y="296" type="curve" smooth="yes"/>
			<point x="82.8791017052" y="390"/>
			<point x="122.8791017052" y="420"/>
			<point x="156.8791017052" y="420" type="curve" smooth="yes"/>
			<point x="164.8791017052" y="420"/>
			<point x="181.8791017052" y="420"/>
			<point x="181.8791017052" y="388" type="curve" smooth="yes"/>
			<point x="181.8791017052" y="367"/>
			<point x="174.8791017052" y="346"/>
			<point x="170.8791017052" y="336" type="curve"/>
			<point x="162.8791017052" y="310"/>
			<point x="117.8791017052" y="194"/>
			<point x="101.8791017052" y="151" type="curve" smooth="yes"/>
			<point x="91.8791017052" y="125"/>
			<point x="78.8791017052" y="92"/>
		</contour>
	</outline>
</glyph>
<glyph name="j" format="2">
	<unicode hex="006A"/>
	<advance width="411"/>
	<outline>
		<contour>
			<point x="395.8791017052" y="625" type="curve" smooth="yes"/>
			<point x="395.8791017052" y="644"/>
			<point x="381.8791017052" y="661"/>
			<point x="357.8791017052" y="661" type="curve" smooth="yes"/>
			<point x="334.8791017052" y="661"/>
			<point x="304.8791017052" y="638"/>
			<point x="304.8791017052" y="608" type="curve" smooth="yes"/>
			<point x="304.8791017052" y="588"/>
			<point x="318.8791017052" y="572"/>
			<point x="341.8791017052" y="572" type="curve" smooth="yes"/>
			<point x="368.8791017052" y="572"/>
			<point x="395.8791017052" y="598"/>
		</contour>
		<contour>
			<point x="194.8791017052" y="-50" type="line" smooth="yes"/>
			<point x="175.8791017052" y="-126"/>
			<point x="127.8791017052" y="-183"/>
			<point x="71.8791017052" y="-183" type="curve" smooth="yes"/>
			<point x="65.8791017052" y="-183"/>
			<point x="50.8791017052" y="-183"/>
			<point x="32.8791017052" y="-174" type="curve"/>
			<point x="62.8791017052" y="-167"/>
			<point x="77.8791017052" y="-141"/>
			<point x="77.8791017052" y="-121" type="curve" smooth="yes"/>
			<point x="77.8791017052" y="-105"/>
			<point x="66.8791017052" y="-86"/>
			<point x="39.8791017052" y="-86" type="curve" smooth="yes"/>
			<point x="14.8791017052" y="-86"/>
			<point x="-14.1208982948" y="-107"/>
			<point x="-14.1208982948" y="-143" type="curve" smooth="yes"/>
			<point x="-14.1208982948" y="-183"/>
			<point x="25.8791017052" y="-205"/>
			<point x="73.8791017052" y="-205" type="curve" smooth="yes"/>
			<point x="143.8791017052" y="-205"/>
			<point x="236.8791017052" y="-152"/>
			<point x="261.8791017052" y="-53" type="curve" smooth="yes"/>
			<point x="353.8791017052" y="313" type="line" smooth="yes"/>
			<point x="358.8791017052" y="333"/>
			<point x="358.8791017052" y="347"/>
			<point x="358.8791017052" y="350" type="curve" smooth="yes"/>
			<point x="358.8791017052" y="407"/>
			<point x="316.8791017052" y="442"/>
			<point x="266.8791017052" y="442" type="curve" smooth="yes"/>
			<point x="164.8791017052" y="442"/>
			<point x="107.8791017052" y="297"/>
			<point x="107.8791017052" y="288" type="curve" smooth="yes"/>
			<point x="107.8791017052" y="278"/>
			<point x="117.8791017052" y="278"/>
			<point x="119.8791017052" y="278" type="curve" smooth="yes"/>
			<point x="128.8791017052" y="278"/>
			<point x="129.8791017052" y="279"/>
			<point x="137.8791017052" y="298" type="curve" smooth="yes"/>
			<point x="162.8791017052" y="359"/>
			<point x="208.8791017052" y="420"/>
			<point x="263.8791017052" y="420" type="curve" smooth="yes"/>
			<point x="277.8791017052" y="420"/>
			<point x="295.8791017052" y="416"/>
			<point x="295.8791017052" y="374" type="curve" smooth="yes"/>
			<point x="295.8791017052" y="351"/>
			<point x="292.8791017052" y="340"/>
			<point x="288.8791017052" y="323" type="curve" smooth="yes"/>
		</contour>
	</outline>
</glyph>
<glyph name="k" format="2">
	<unicode hex="006B"/>
	<advance width="1040"/>
	<outline>
		<contour>
			<point x="661" y="-22" type="curve" smooth="yes"/>
			<point x="721" y="-22"/>
			<point x="775" y="10"/>
			<point x="819" y="84" type="curve" smooth="yes"/>
			<point x="869" y="172"/>
			<point x="891" y="282"/>
			<point x="891" y="286" type="curve" smooth="yes"/>
			<point x="891" y="306"/>
			<point x="873" y="306"/>
			<point x="867" y="306" type="curve" smooth="yes"/>
			<point x="847" y="306"/>
			<point x="845" y="298"/>
			<point x="839" y="270" type="curve"/>
			<point x="799" y="124"/>
			<point x="753" y="22"/>
			<point x="665" y="22" type="curve" smooth="yes"/>
			<point x="627" y="22"/>
			<point x="601" y="44"/>
			<point x="601" y="116" type="curve" smooth="yes"/>
			<point x="601" y="150"/>
			<point x="609" y="196"/>
			<point x="617" y="228" type="curve" smooth="yes"/>
			<point x="625" y="262"/>
			<point x="625" y="270"/>
			<point x="625" y="290" type="curve" smooth="yes"/>
			<point x="625" y="420"/>
			<point x="499" y="478"/>
			<point x="329" y="500" type="curve"/>
			<point x="391" y="536"/>
			<point x="455" y="600"/>
			<point x="501" y="648" type="curve" smooth="yes"/>
			<point x="597" y="754"/>
			<point x="689" y="840"/>
			<point x="787" y="840" type="curve" smooth="yes"/>
			<point x="823" y="840"/>
			<point x="841" y="830"/>
			<point x="855" y="814" type="curve"/>
			<point x="759" y="808"/>
			<point x="741" y="730"/>
			<point x="741" y="706" type="curve" smooth="yes"/>
			<point x="741" y="674"/>
			<point x="763" y="636"/>
			<point x="817" y="636" type="curve" smooth="yes"/>
			<point x="869" y="636"/>
			<point x="927" y="680"/>
			<point x="927" y="758" type="curve" smooth="yes"/>
			<point x="927" y="818"/>
			<point x="881" y="884"/>
			<point x="791" y="884" type="curve" smooth="yes"/>
			<point x="735" y="884"/>
			<point x="643" y="868"/>
			<point x="499" y="708" type="curve" smooth="yes"/>
			<point x="431" y="632"/>
			<point x="353" y="552"/>
			<point x="277" y="522" type="curve"/>
			<point x="485" y="1366" type="line"/>
			<point x="485" y="1366"/>
			<point x="485" y="1366"/>
			<point x="485" y="1366" type="curve"/>
			<point x="485" y="1368"/>
			<point x="485" y="1388"/>
			<point x="459" y="1388" type="curve" smooth="yes"/>
			<point x="413" y="1388"/>
			<point x="267" y="1372"/>
			<point x="215" y="1368" type="curve" smooth="yes"/>
			<point x="199" y="1366"/>
			<point x="177" y="1364"/>
			<point x="177" y="1328" type="curve" smooth="yes"/>
			<point x="177" y="1304"/>
			<point x="195" y="1304"/>
			<point x="225" y="1304" type="curve" smooth="yes"/>
			<point x="321" y="1304"/>
			<point x="325" y="1290"/>
			<point x="325" y="1270" type="curve"/>
			<point x="323" y="1257"/>
			<point x="321" y="1243"/>
			<point x="319" y="1230" type="curve"/>
			<point x="29" y="78" type="line" smooth="yes"/>
			<point x="21" y="50"/>
			<point x="21" y="46"/>
			<point x="21" y="34" type="curve" smooth="yes"/>
			<point x="21" y="-12"/>
			<point x="61" y="-22"/>
			<point x="79" y="-22" type="curve" smooth="yes"/>
			<point x="105" y="-22"/>
			<point x="135" y="-4"/>
			<point x="147" y="20" type="curve" smooth="yes"/>
			<point x="157" y="38"/>
			<point x="247" y="408"/>
			<point x="259" y="458" type="curve"/>
			<point x="327" y="452"/>
			<point x="491" y="420"/>
			<point x="491" y="288" type="curve" smooth="yes"/>
			<point x="491" y="274"/>
			<point x="491" y="266"/>
			<point x="485" y="246" type="curve"/>
			<point x="481" y="222"/>
			<point x="477" y="198"/>
			<point x="477" y="176" type="curve" smooth="yes"/>
			<point x="477" y="58"/>
			<point x="557" y="-22"/>
		</contour>
	</outline>
</glyph>
<glyph name="l" format="2">
  <advance width="298"/>
  <unicode hex="006C"/>
  <outline>
    <contour>
      <point x="112.87910170524027" y="105.0" type="curve" smooth="yes"/>
      <point x="256.87910170524026" y="683.0" type="line"/>
      <point x="256.87910170524026" y="683.0"/>
      <point x="256.87910170524026" y="683.0"/>
      <point x="256.87910170524026" y="683.0" type="curve"/>
      <point x="256.87910170524026" y="684.0"/>
      <point x="256.87910170524026" y="694.0"/>
      <point x="243.87910170524026" y="694.0" type="curve" smooth="yes"/>
      <point x="220.87910170524026" y="694.0"/>
      <point x="147.87910170524026" y="686.0"/>
      <point x="121.87910170524027" y="684.0" type="curve" smooth="yes"/>
      <point x="113.87910170524027" y="683.0"/>
      <point x="102.87910170524027" y="682.0"/>
      <point x="102.87910170524027" y="663.0" type="curve" smooth="yes"/>
      <point x="102.87910170524027" y="652.0"/>
      <point x="112.87910170524027" y="652.0"/>
      <point x="127.87910170524027" y="652.0" type="curve" smooth="yes"/>
      <point x="175.87910170524026" y="652.0"/>
      <point x="176.87910170524026" y="643.0"/>
      <point x="176.87910170524026" y="635.0" type="curve"/>
      <point x="175.88010170524026" y="628.34"/>
      <point x="174.88110170524027" y="621.68"/>
      <point x="173.87910170524026" y="615.0" type="curve"/>
      <point x="47.879101705240274" y="115.0" type="line" smooth="yes"/>
      <point x="44.879101705240274" y="104.0"/>
      <point x="42.879101705240274" y="97.0"/>
      <point x="42.879101705240274" y="81.0" type="curve" smooth="yes"/>
      <point x="42.879101705240274" y="24.0"/>
      <point x="86.87910170524027" y="-11.0"/>
      <point x="133.87910170524026" y="-11.0" type="curve" smooth="yes"/>
      <point x="166.87910170524026" y="-11.0"/>
      <point x="191.87910170524026" y="9.0"/>
      <point x="208.87910170524026" y="45.0" type="curve" smooth="yes"/>
      <point x="226.87910170524026" y="83.0"/>
      <point x="238.87910170524026" y="141.0"/>
      <point x="238.87910170524026" y="143.0" type="curve" smooth="yes"/>
      <point x="238.87910170524026" y="153.0"/>
      <point x="229.87910170524026" y="153.0"/>
      <point x="226.87910170524026" y="153.0" type="curve" smooth="yes"/>
      <point x="216.87910170524026" y="153.0"/>
      <point x="215.87910170524026" y="149.0"/>
      <point x="212.87910170524026" y="135.0" type="curve" smooth="yes"/>
      <point x="195.87910170524026" y="70.0"/>
      <point x="176.87910170524026" y="11.0"/>
      <point x="136.87910170524026" y="11.0" type="curve" smooth="yes"/>
      <point x="106.87910170524027" y="11.0"/>
      <point x="106.87910170524027" y="43.0"/>
      <point x="106.87910170524027" y="57.0" type="curve" smooth="yes"/>
      <point x="106.87910170524027" y="81.0"/>
      <point x="107.87910170524027" y="86.0"/>
    </contour>
  </outline>
</glyph>
<glyph name="m" format="2">
	<unicode hex="006D"/>
	<advance width="878"/>
	<outline>
		<contour>
			<point x="106.8791017052" y="-11" type="curve" smooth="yes"/>
			<point x="118.8791017052" y="-11"/>
			<point x="136.8791017052" y="-3"/>
			<point x="143.8791017052" y="17" type="curve"/>
			<point x="144.8791017052" y="19"/>
			<point x="156.8791017052" y="66"/>
			<point x="162.8791017052" y="91" type="curve" smooth="yes"/>
			<point x="200.8791017052" y="244"/>
			<point x="210.8791017052" y="285"/>
			<point x="214.8791017052" y="298" type="curve"/>
			<point x="223.3454017052" y="315.49702"/>
			<point x="243.9173592884" y="352.108236184"/>
			<point x="277.3142034289" y="380.6827547831" type="curve" smooth="yes"/>
			<point x="303.087559034" y="402.7345757876"/>
			<point x="336.4990017052" y="420"/>
			<point x="377.8791017052" y="420" type="curve" smooth="yes"/>
			<point x="422.8791017052" y="420"/>
			<point x="431.8791017052" y="383"/>
			<point x="431.8791017052" y="350" type="curve" smooth="yes"/>
			<point x="431.8791017052" y="325"/>
			<point x="424.8791017052" y="297"/>
			<point x="416.8791017052" y="267" type="curve" smooth="yes"/>
			<point x="400.8951017052" y="203.064"/>
			<point x="384.9111017052" y="139.128"/>
			<point x="368.8791017052" y="75" type="curve"/>
			<point x="364.8791017052" y="55"/>
			<point x="355.8791017052" y="21"/>
			<point x="355.8791017052" y="16" type="curve" smooth="yes"/>
			<point x="355.8791017052" y="-2"/>
			<point x="369.8791017052" y="-11"/>
			<point x="384.8791017052" y="-11" type="curve" smooth="yes"/>
			<point x="403.3791017052" y="-11"/>
			<point x="415.8791017052" y="-2"/>
			<point x="420.8791017052" y="15" type="curve" smooth="yes"/>
			<point x="425.8791017052" y="32"/>
			<point x="432.3791017052" y="56.5"/>
			<point x="440.8791017052" y="89" type="curve" smooth="yes"/>
			<point x="457.8791017052" y="156"/>
			<point x="482.8791017052" y="256"/>
			<point x="489.8791017052" y="287" type="curve" smooth="yes"/>
			<point x="491.7336417052" y="295.03634"/>
			<point x="512.6955073252" y="343.9623568268"/>
			<point x="554.1821105515" y="380.1526303354" type="curve" smooth="yes"/>
			<point x="579.8063863996" y="402.505618512"/>
			<point x="613.2607217052" y="420"/>
			<point x="654.8791017052" y="420" type="curve" smooth="yes"/>
			<point x="697.8791017052" y="420"/>
			<point x="708.8791017052" y="386"/>
			<point x="708.8791017052" y="350" type="curve" smooth="yes"/>
			<point x="708.8791017052" y="293"/>
			<point x="666.8791017052" y="179"/>
			<point x="646.8791017052" y="126" type="curve" smooth="yes"/>
			<point x="637.8791017052" y="102"/>
			<point x="633.8791017052" y="91"/>
			<point x="633.8791017052" y="71" type="curve" smooth="yes"/>
			<point x="633.8791017052" y="24"/>
			<point x="668.8791017052" y="-11"/>
			<point x="715.8791017052" y="-11" type="curve" smooth="yes"/>
			<point x="809.8791017052" y="-11"/>
			<point x="846.8791017052" y="135"/>
			<point x="846.8791017052" y="143" type="curve" smooth="yes"/>
			<point x="846.8791017052" y="153"/>
			<point x="837.8791017052" y="153"/>
			<point x="834.8791017052" y="153" type="curve" smooth="yes"/>
			<point x="824.8791017052" y="153"/>
			<point x="824.8791017052" y="150"/>
			<point x="819.8791017052" y="135" type="curve" smooth="yes"/>
			<point x="804.8791017052" y="82"/>
			<point x="772.8791017052" y="11"/>
			<point x="717.8791017052" y="11" type="curve" smooth="yes"/>
			<point x="700.8791017052" y="11"/>
			<point x="693.8791017052" y="21"/>
			<point x="693.8791017052" y="44" type="curve" smooth="yes"/>
			<point x="693.8791017052" y="69"/>
			<point x="702.8791017052" y="93"/>
			<point x="711.8791017052" y="115" type="curve" smooth="yes"/>
			<point x="730.8791017052" y="167"/>
			<point x="772.8791017052" y="278"/>
			<point x="772.8791017052" y="335" type="curve" smooth="yes"/>
			<point x="772.8791017052" y="400"/>
			<point x="732.8791017052" y="442"/>
			<point x="657.8791017052" y="442" type="curve" smooth="yes"/>
			<point x="582.8791017052" y="442"/>
			<point x="531.8791017052" y="398"/>
			<point x="494.8791017052" y="345" type="curve"/>
			<point x="490.8791017052" y="414"/>
			<point x="439.8791017052" y="442"/>
			<point x="380.8791017052" y="442" type="curve" smooth="yes"/>
			<point x="290.8791017052" y="442"/>
			<point x="241.8791017052" y="378"/>
			<point x="224.8791017052" y="355" type="curve"/>
			<point x="219.8791017052" y="412"/>
			<point x="177.8791017052" y="442"/>
			<point x="132.8791017052" y="442" type="curve" smooth="yes"/>
			<point x="86.8791017052" y="442"/>
			<point x="67.8791017052" y="403"/>
			<point x="58.8791017052" y="385" type="curve" smooth="yes"/>
			<point x="40.8791017052" y="350"/>
			<point x="27.8791017052" y="291"/>
			<point x="27.8791017052" y="288" type="curve" smooth="yes"/>
			<point x="27.8791017052" y="278"/>
			<point x="37.8791017052" y="278"/>
			<point x="39.8791017052" y="278" type="curve" smooth="yes"/>
			<point x="49.8791017052" y="278"/>
			<point x="50.8791017052" y="279"/>
			<point x="56.8791017052" y="301" type="curve" smooth="yes"/>
			<point x="73.8791017052" y="372"/>
			<point x="93.8791017052" y="420"/>
			<point x="129.8791017052" y="420" type="curve" smooth="yes"/>
			<point x="145.8791017052" y="420"/>
			<point x="160.8791017052" y="412"/>
			<point x="160.8791017052" y="374" type="curve" smooth="yes"/>
			<point x="160.8791017052" y="353"/>
			<point x="157.8791017052" y="342"/>
			<point x="144.8791017052" y="290" type="curve" smooth="yes"/>
			<point x="125.5651017052" y="213.077"/>
			<point x="106.2511017052" y="136.154"/>
			<point x="86.8791017052" y="59" type="curve" smooth="yes"/>
			<point x="83.8791017052" y="44"/>
			<point x="77.8791017052" y="21"/>
			<point x="77.8791017052" y="16" type="curve" smooth="yes"/>
			<point x="77.8791017052" y="-2"/>
			<point x="91.8791017052" y="-11"/>
		</contour>
	</outline>
</glyph>
<glyph name="n" format="2">
	<unicode hex="006E"/>
	<advance width="600"/>
	<outline>
		<contour>
			<point x="63.5" y="-11" type="curve" smooth="yes"/>
			<point x="75.5" y="-11"/>
			<point x="93.5" y="-3"/>
			<point x="100.5" y="17" type="curve" smooth="yes"/>
			<point x="101.5" y="19"/>
			<point x="113.5" y="66"/>
			<point x="119.5" y="91" type="curve" smooth="yes"/>
			<point x="169.5" y="290"/>
			<point x="169.5" y="289"/>
			<point x="171.5" y="298" type="curve"/>
			<point x="180.88655" y="317.39887"/>
			<point x="205.1534475302" y="360.293025574"/>
			<point x="245.2808689142" y="389.680810507" type="curve" smooth="yes"/>
			<point x="269.2783199018" y="407.2556235461"/>
			<point x="298.94815" y="420"/>
			<point x="334.5" y="420" type="curve" smooth="yes"/>
			<point x="379.5" y="420"/>
			<point x="388.5" y="383"/>
			<point x="388.5" y="350" type="curve" smooth="yes"/>
			<point x="388.5" y="288"/>
			<point x="339.5" y="160"/>
			<point x="323.5" y="117" type="curve" smooth="yes"/>
			<point x="314.5" y="94"/>
			<point x="313.5" y="82"/>
			<point x="313.5" y="71" type="curve" smooth="yes"/>
			<point x="313.5" y="24"/>
			<point x="348.5" y="-11"/>
			<point x="395.5" y="-11" type="curve" smooth="yes"/>
			<point x="489.5" y="-11"/>
			<point x="526.5" y="135"/>
			<point x="526.5" y="143" type="curve" smooth="yes"/>
			<point x="526.5" y="153"/>
			<point x="517.5" y="153"/>
			<point x="514.5" y="153" type="curve" smooth="yes"/>
			<point x="504.5" y="153"/>
			<point x="504.5" y="150"/>
			<point x="499.5" y="135" type="curve" smooth="yes"/>
			<point x="479.5" y="67"/>
			<point x="446.5" y="11"/>
			<point x="397.5" y="11" type="curve" smooth="yes"/>
			<point x="380.5" y="11"/>
			<point x="373.5" y="21"/>
			<point x="373.5" y="44" type="curve" smooth="yes"/>
			<point x="373.5" y="69"/>
			<point x="382.5" y="93"/>
			<point x="391.5" y="115" type="curve" smooth="yes"/>
			<point x="410.5" y="168"/>
			<point x="452.5" y="278"/>
			<point x="452.5" y="335" type="curve" smooth="yes"/>
			<point x="452.5" y="402"/>
			<point x="409.5" y="442"/>
			<point x="337.5" y="442" type="curve" smooth="yes"/>
			<point x="247.5" y="442"/>
			<point x="198.5" y="378"/>
			<point x="181.5" y="355" type="curve"/>
			<point x="176.5" y="411"/>
			<point x="135.5" y="442"/>
			<point x="89.5" y="442" type="curve" smooth="yes"/>
			<point x="43.5" y="442"/>
			<point x="22.5" y="403"/>
			<point x="14.5" y="385" type="curve" smooth="yes"/>
			<point x="-0.5" y="351"/>
			<point x="-15.5" y="292"/>
			<point x="-15.5" y="288" type="curve" smooth="yes"/>
			<point x="-15.5" y="278"/>
			<point x="-5.5" y="278"/>
			<point x="-3.5" y="278" type="curve" smooth="yes"/>
			<point x="6.5" y="278"/>
			<point x="7.5" y="279"/>
			<point x="13.5" y="301" type="curve" smooth="yes"/>
			<point x="30.5" y="372"/>
			<point x="50.5" y="420"/>
			<point x="86.5" y="420" type="curve" smooth="yes"/>
			<point x="106.5" y="420"/>
			<point x="117.5" y="407"/>
			<point x="117.5" y="374" type="curve" smooth="yes"/>
			<point x="117.5" y="353"/>
			<point x="114.5" y="342"/>
			<point x="101.5" y="290" type="curve" smooth="yes"/>
			<point x="82.186" y="213.077"/>
			<point x="62.872" y="136.154"/>
			<point x="43.5" y="59" type="curve" smooth="yes"/>
			<point x="40.5" y="44"/>
			<point x="34.5" y="21"/>
			<point x="34.5" y="16" type="curve" smooth="yes"/>
			<point x="34.5" y="-2"/>
			<point x="48.5" y="-11"/>
		</contour>
	</outline>
</glyph>
<glyph name="o" format="2">
	<unicode hex="006F"/>
	<advance width="968"/>
	<outline>
		<contour>
			<point x="849" y="546" type="curve" smooth="yes"/>
			<point x="849" y="754"/>
			<point x="709" y="884"/>
			<point x="529" y="884" type="curve" smooth="yes"/>
			<point x="261" y="884"/>
			<point x="-7" y="600"/>
			<point x="-7" y="316" type="curve" smooth="yes"/>
			<point x="-7" y="118"/>
			<point x="127" y="-22"/>
			<point x="313" y="-22" type="curve" smooth="yes"/>
			<point x="579" y="-22"/>
			<point x="849" y="254"/>
		</contour>
		<contour>
			<point x="315" y="22" type="curve" smooth="yes"/>
			<point x="229" y="22"/>
			<point x="141" y="84"/>
			<point x="141" y="240" type="curve" smooth="yes"/>
			<point x="141" y="338"/>
			<point x="193" y="554"/>
			<point x="257" y="656" type="curve" smooth="yes"/>
			<point x="357" y="810"/>
			<point x="471" y="840"/>
			<point x="527" y="840" type="curve" smooth="yes"/>
			<point x="643" y="840"/>
			<point x="703" y="744"/>
			<point x="703" y="624" type="curve" smooth="yes"/>
			<point x="703" y="546"/>
			<point x="663" y="336"/>
			<point x="587" y="206" type="curve" smooth="yes"/>
			<point x="517" y="90"/>
			<point x="407" y="22"/>
		</contour>
	</outline>
</glyph>
<glyph name="p" format="2">
	<unicode hex="0070"/>
	<advance width="503"/>
	<outline>
		<contour>
			<point x="43.8791017052" y="-122" type="line" smooth="yes"/>
			<point x="35.8791017052" y="-156"/>
			<point x="33.8791017052" y="-163"/>
			<point x="-10.1208982948" y="-163" type="curve" smooth="yes"/>
			<point x="-22.1208982948" y="-163"/>
			<point x="-33.1208982948" y="-163"/>
			<point x="-33.1208982948" y="-182" type="curve" smooth="yes"/>
			<point x="-33.1208982948" y="-190"/>
			<point x="-28.1208982948" y="-194"/>
			<point x="-20.1208982948" y="-194" type="curve" smooth="yes"/>
			<point x="6.8791017052" y="-194"/>
			<point x="35.8791017052" y="-191"/>
			<point x="63.8791017052" y="-191" type="curve" smooth="yes"/>
			<point x="96.8791017052" y="-191"/>
			<point x="130.8791017052" y="-194"/>
			<point x="162.8791017052" y="-194" type="curve" smooth="yes"/>
			<point x="167.8791017052" y="-194"/>
			<point x="180.8791017052" y="-194"/>
			<point x="180.8791017052" y="-174" type="curve" smooth="yes"/>
			<point x="180.8791017052" y="-163"/>
			<point x="170.8791017052" y="-163"/>
			<point x="156.8791017052" y="-163" type="curve" smooth="yes"/>
			<point x="106.8791017052" y="-163"/>
			<point x="106.8791017052" y="-156"/>
			<point x="106.8791017052" y="-147" type="curve" smooth="yes"/>
			<point x="106.8791017052" y="-144"/>
			<point x="108.8791017052" y="-133"/>
			<point x="112.8791017052" y="-117" type="curve" smooth="yes"/>
			<point x="127.1981017052" y="-60.39"/>
			<point x="141.5171017052" y="-3.78"/>
			<point x="155.8791017052" y="53" type="curve"/>
			<point x="168.8791017052" y="24"/>
			<point x="196.8791017052" y="-11"/>
			<point x="247.8791017052" y="-11" type="curve" smooth="yes"/>
			<point x="363.8791017052" y="-11"/>
			<point x="488.8791017052" y="135"/>
			<point x="488.8791017052" y="282" type="curve" smooth="yes"/>
			<point x="488.8791017052" y="376"/>
			<point x="431.8791017052" y="442"/>
			<point x="355.8791017052" y="442" type="curve" smooth="yes"/>
			<point x="305.8791017052" y="442"/>
			<point x="257.8791017052" y="406"/>
			<point x="224.8791017052" y="367" type="curve"/>
			<point x="214.8791017052" y="421"/>
			<point x="171.8791017052" y="442"/>
			<point x="134.8791017052" y="442" type="curve" smooth="yes"/>
			<point x="88.8791017052" y="442"/>
			<point x="69.8791017052" y="403"/>
			<point x="60.8791017052" y="385" type="curve" smooth="yes"/>
			<point x="42.8791017052" y="351"/>
			<point x="29.8791017052" y="291"/>
			<point x="29.8791017052" y="288" type="curve" smooth="yes"/>
			<point x="29.8791017052" y="278"/>
			<point x="39.8791017052" y="278"/>
			<point x="41.8791017052" y="278" type="curve" smooth="yes"/>
			<point x="51.8791017052" y="278"/>
			<point x="52.8791017052" y="279"/>
			<point x="58.8791017052" y="301" type="curve" smooth="yes"/>
			<point x="75.8791017052" y="372"/>
			<point x="95.8791017052" y="420"/>
			<point x="131.8791017052" y="420" type="curve" smooth="yes"/>
			<point x="148.8791017052" y="420"/>
			<point x="162.8791017052" y="412"/>
			<point x="162.8791017052" y="374" type="curve" smooth="yes"/>
			<point x="162.8791017052" y="351"/>
			<point x="159.8791017052" y="340"/>
			<point x="155.8791017052" y="323" type="curve" smooth="yes"/>
		</contour>
		<contour>
			<point x="352.8791017052" y="420" type="curve" smooth="yes"/>
			<point x="392.8791017052" y="420"/>
			<point x="416.8791017052" y="385"/>
			<point x="416.8791017052" y="326" type="curve" smooth="yes"/>
			<point x="416.8791017052" y="267"/>
			<point x="383.8791017052" y="152"/>
			<point x="365.8791017052" y="114" type="curve" smooth="yes"/>
			<point x="331.8791017052" y="44"/>
			<point x="283.8791017052" y="11"/>
			<point x="246.8791017052" y="11" type="curve" smooth="yes"/>
			<point x="180.8791017052" y="11"/>
			<point x="167.8791017052" y="94"/>
			<point x="167.8791017052" y="100" type="curve" smooth="yes"/>
			<point x="167.8791017052" y="102"/>
			<point x="167.8791017052" y="104"/>
			<point x="170.8791017052" y="116" type="curve" smooth="yes"/>
			<point x="219.8791017052" y="312" type="line" smooth="yes"/>
			<point x="226.8791017052" y="339"/>
			<point x="253.8791017052" y="367"/>
			<point x="271.8791017052" y="382" type="curve" smooth="yes"/>
			<point x="306.8791017052" y="413"/>
			<point x="335.8791017052" y="420"/>
		</contour>
	</outline>
</glyph>
